<?xml version="1.0" standalone="no"?>
<!DOCTYPE svg PUBLIC "-//W3C//DTD SVG 1.1//EN" "http://www.w3.org/Graphics/SVG/1.1/DTD/svg11.dtd" >
<svg xmlns="http://www.w3.org/2000/svg">
<metadata></metadata>
<defs>
<font id="thirsty_softlight" horiz-adv-x="1011" >
<font-face units-per-em="2048" ascent="1638" descent="-410" />
<missing-glyph horiz-adv-x="512" />
<glyph unicode="Ti" horiz-adv-x="1812" d="M0 336q0 152 100 265.5t248 135.5q34 5 53 -11.5t19 -51.5q0 -42 -15 -59.5t-57 -26.5q-93 -18 -148 -94t-55 -162q0 -43 15 -86t46 -81.5t85.5 -62.5t124.5 -24q77 0 142.5 32t118 94.5t93.5 137.5t82 178l344 846q21 58 -37 72q-48 12 -172.5 46t-183 49t-141 29.5 t-138.5 14.5q-137 0 -202.5 -65.5t-65.5 -155.5q0 -80 49.5 -128t124.5 -48q53 0 107 28q35 20 55 14.5t45 -40.5q35 -54 -19 -92q-78 -54 -182 -54q-139 0 -232 95.5t-93 230.5q0 65 24.5 127t73 115t131 85.5t186.5 32.5q99 0 249 -31t282.5 -68.5t286.5 -72.5t255 -41 q57 -3 78 6.5t58 53.5q30 41 84 41q47 0 78.5 -31t31.5 -80q0 -15 -3.5 -31t-17.5 -38.5t-37 -39.5t-67.5 -29.5t-103.5 -12.5q-116 0 -262 26q-34 5 -53 -5.5t-31 -41.5l-387 -948q-41 -102 -96 -182t-111 -129.5t-118.5 -81t-117.5 -44t-110 -12.5q-122 0 -218 58 t-146 150t-50 198zM1278 442l221 545q17 41 43 58.5t70 17.5h14q40 0 53 -19.5t-2 -56.5l-256 -635q-107 -264 0 -264q77 0 188.5 130t227.5 327q16 26 43.5 22.5t39 -27t-2.5 -53.5q-67 -117 -127.5 -203t-128.5 -160t-139 -112.5t-142 -38.5q-288 0 -102 469z" />
<glyph unicode="Wh" horiz-adv-x="2902" d="M0 836q0 61 16 116.5t48.5 101.5t70.5 85t92.5 74t102.5 62t113.5 54.5t113 46t112.5 43t101 39.5q71 28 119 84q72 88 164 113q26 7 44.5 -3.5t26.5 -35.5q10 -38 4.5 -55.5t-36.5 -40.5q-86 -64 -138 -187l-401 -1011q-27 -68 -37.5 -119.5t-7.5 -79t16 -44.5t27 -21.5 t31 -4.5q93 0 195.5 112t174.5 294l383 952q17 41 43 58.5t70 17.5h16q40 0 53.5 -19.5t-1.5 -56.5l-435 -1089q-28 -68 -39.5 -119t-9.5 -79t15 -44.5t28 -21.5t35 -5q97 0 201 120t172 290l387 958q98 250 280 250q151 0 297 -143q55 -55 27 -131l-156 -385 q-7 -19 0.5 -24t22.5 9q112 93 213 93q68 0 114 -39t46 -113q0 -85 -70 -258l-135 -328q-106 -264 0 -264q77 0 190 130.5t228 326.5q16 26 43 22.5t38.5 -27t-2.5 -53.5q-66 -114 -126.5 -201t-128.5 -161t-138 -113t-139 -39q-40 0 -73.5 12.5t-60.5 45.5t-36.5 84 t5.5 134.5t58 190.5l99 244q5 13 14.5 37.5t15 38t13 33.5t11.5 32.5t8.5 26.5t6.5 24t2 17q0 23 -16 35t-43 12q-38 0 -95 -29.5t-114 -83.5q-43 -43 -61 -90l-269 -661q-17 -41 -42.5 -58.5t-69.5 -17.5h-15q-40 0 -53 19.5t2 56.5l535 1329q22 58 -33 82 q-155 72 -235 -115l-330 -817q-26 -66 -51 -121t-61 -122.5t-72 -120t-84 -104.5t-98 -86t-112 -55.5t-128 -21.5q-141 0 -189 99q-14 26 -27 29.5t-36 -15.5q-133 -113 -269 -113q-56 0 -99.5 15.5t-75.5 55t-41.5 100.5t9 159t68.5 223l311 776q9 23 0 32.5t-32 0.5 q-26 -11 -82 -33t-93 -37t-92 -41t-91.5 -48.5t-78 -55t-66.5 -65.5t-41.5 -75.5t-16.5 -88.5q0 -63 25.5 -112.5t74.5 -70.5q46 -22 57.5 -39.5t11.5 -68.5q-3 -28 -22 -40t-49 -5q-115 24 -182.5 118.5t-65.5 211.5z" />
<glyph unicode="Wi" horiz-adv-x="2449" d="M0 836q0 61 16 116.5t48.5 101.5t70.5 85t92.5 74t102.5 62t113.5 54.5t113 46t112.5 43t101 39.5q71 28 119 84q72 88 164 113q26 7 44.5 -3.5t26.5 -35.5q10 -38 4.5 -55.5t-36.5 -40.5q-84 -58 -138 -187l-401 -1011q-27 -68 -37.5 -119t-7 -79t16.5 -44.5t26.5 -21.5 t30.5 -5q91 0 191 111.5t179 294.5l383 952q17 41 43 58.5t70 17.5h16q40 0 53.5 -19.5t-1.5 -56.5l-435 -1089q-28 -68 -39.5 -119t-9.5 -79t15 -44.5t28 -21.5t35 -5q49 0 101.5 34t101 92.5t91.5 130t79 153.5l387 958q96 250 289 250q64 0 114 -18.5t109 -61.5 q11 -9 51 -31t57 -40q27 -30 27 -72q0 -45 -32 -77t-77 -32q-37 0 -67.5 25.5t-36.5 69.5q-3 29 -13 43.5t-38 27.5q-143 70 -225 -133l-330 -817q-26 -66 -51 -121t-61 -122.5t-72 -120t-84 -104.5t-98 -86t-112 -55.5t-128 -21.5q-141 0 -189 99q-14 26 -27 29.5 t-36 -15.5q-133 -113 -269 -113q-56 0 -99.5 15.5t-75.5 55t-42 100.5t8.5 159t69.5 223l311 776q9 23 0 32.5t-32 0.5q-26 -11 -82 -33t-93 -37t-92 -41t-91.5 -48.5t-78 -55t-66.5 -65.5t-41.5 -75.5t-16.5 -88.5q0 -63 25.5 -112.5t74.5 -70.5q43 -20 55.5 -37.5 t13.5 -60.5v-10q-3 -28 -22 -40t-49 -5q-115 24 -182.5 118.5t-65.5 211.5zM1849.5 118.5q-7.5 51.5 8 135t57.5 188.5l221 545q17 41 43 58.5t70 17.5h14q40 0 53 -19.5t-2 -56.5l-258 -635q-104 -264 2 -264q76 0 188.5 130.5t227.5 326.5q16 26 43.5 22.5t39 -27 t-2.5 -53.5q-68 -117 -128.5 -203t-128.5 -160t-138.5 -112.5t-141.5 -38.5q-42 0 -76 13.5t-59 47t-32.5 85z" />
<glyph unicode="Kh" horiz-adv-x="2686" d="M-123 227q0 152 100 266t248 136q32 5 51.5 -11.5t20.5 -50.5q0 -44 -14.5 -61.5t-57.5 -26.5q-92 -18 -147 -93.5t-55 -164.5q0 -45 15.5 -87.5t46 -80.5t84.5 -61t124 -23q76 0 140 31.5t116 93.5t92.5 137.5t81.5 180.5l334 833q9 25 -0.5 34.5t-34.5 0.5 q-29 -11 -80.5 -28t-89.5 -29.5t-89.5 -33t-88 -40t-76 -47.5t-64 -58.5t-40 -71t-15.5 -85.5q0 -62 26 -110.5t75 -69.5q46 -22 57.5 -40t11.5 -69q-3 -28 -22 -40t-49 -5q-115 24 -182.5 118.5t-65.5 211.5q0 69 21 129t54 103.5t85.5 83.5t103 66.5t119 54.5t121.5 45 t123 40t112 39q71 26 117 86q85 101 182 127q26 6 45 -5t27 -36q11 -38 5 -55t-38 -39q-82 -61 -133 -185l-232 -565q-23 -60 39 -63q149 -15 250.5 62.5t175.5 268.5l152 381q102 250 283 250q82 0 149.5 -32.5t140.5 -108.5q55 -58 27 -133l-154 -385q-7 -19 0.5 -24 t22.5 9q112 93 213 93q66 0 112 -39t46 -113q0 -85 -70 -258l-133 -328q-106 -264 0 -264q77 0 188.5 130t227.5 327q16 25 43 21.5t38.5 -26.5t-2.5 -53q-65 -114 -125.5 -201t-128 -161t-137.5 -113t-139 -39q-28 0 -53 6t-48 21.5t-40 39t-25.5 61t-7 84.5t17.5 112.5 t47 142.5l101 244q5 13 14.5 37.5t15 38t13 33.5t11.5 32.5t8.5 26.5t6.5 24t2 17q0 23 -16 35t-43 12q-39 0 -95.5 -29t-113.5 -84q-41 -37 -61 -90l-271 -661q-17 -41 -42.5 -58.5t-69.5 -17.5h-15q-40 0 -53 19.5t2 56.5l537 1323q21 58 -33 84q-78 41 -134 14.5 t-97 -125.5l-125 -311q-156 -387 -412 -469q-50 -14 -14 -53q111 -121 59 -381l-65 -369q-16 -79 -4 -123t55 -57q53 -19 67.5 -39.5t14.5 -75.5q-2 -35 -23.5 -52t-58.5 -11q-123 20 -180.5 125t-28.5 258l55 299q35 182 16 289t-94 169q-16 13 -36 23.5t-44.5 10 t-35.5 -22.5l-125 -312q-42 -103 -96.5 -183t-110 -129t-117.5 -80.5t-116 -43.5t-109 -12q-122 0 -218 57.5t-146 149.5t-50 198z" />
<glyph unicode="Ki" horiz-adv-x="2207" d="M-123 227q0 152 100 266t248 136q34 5 53 -12t19 -52q0 -42 -15 -60t-57 -26q-92 -18 -147 -95t-55 -163q0 -45 15.5 -87.5t46 -80.5t84.5 -61t124 -23q76 0 140 31.5t116 93.5t92.5 137.5t81.5 180.5l334 833q9 25 -0.5 34.5t-34.5 0.5q-29 -11 -80.5 -28t-89.5 -29.5 t-89.5 -33t-88 -40t-76 -47.5t-64 -58.5t-40 -71t-15.5 -85.5q0 -62 26 -110.5t75 -69.5q42 -19 54.5 -37.5t14.5 -61.5q0 -33 -19 -47.5t-52 -7.5q-115 24 -182.5 118.5t-65.5 211.5q0 69 21 129t54 103.5t85.5 83.5t103 66.5t119 54.5t121.5 45t123 40t112 39 q71 26 117 86q85 101 182 127q26 6 45 -5t27 -36q11 -38 5 -55t-38 -39q-82 -61 -133 -185l-232 -565q-23 -60 39 -63q149 -15 249.5 62t176.5 269l152 381q98 250 283 250q101 0 217 -80q9 -6 33.5 -19.5t44 -26.5t32.5 -27q27 -30 27 -70q0 -44 -32.5 -76.5t-76.5 -32.5 q-37 0 -66.5 24.5t-35.5 68.5q-5 30 -15 45.5t-36 27.5q-32 16 -58.5 19t-54 -9t-53 -47.5t-49.5 -95.5l-125 -311q-150 -385 -412 -467q-51 -15 -14 -55q111 -121 59 -381l-65 -369q-16 -79 -4 -123t55 -57q53 -19 67.5 -39.5t14.5 -75.5q-2 -35 -23.5 -52t-58.5 -11 q-123 20 -180.5 125t-28.5 258l55 299q35 182 16 289t-94 169q-16 13 -36 23.5t-44.5 10t-35.5 -22.5l-125 -312q-42 -104 -97.5 -184.5t-111 -129t-118 -80t-115.5 -43t-107 -11.5q-122 0 -218 57.5t-146 149.5t-50 198zM1609 118.5q-8 51.5 8 135t58 188.5l219 545 q17 41 43 58.5t70 17.5h14q40 0 53.5 -19.5t-1.5 -56.5l-256 -635q-104 -264 2 -264q76 0 186.5 130t226.5 327q16 25 43.5 21.5t39 -26.5t-2.5 -53q-67 -117 -127 -203t-128 -160t-138 -112.5t-141 -38.5q-42 0 -76 13.5t-59.5 47t-33.5 85z" />
<glyph unicode="&#x20;r" horiz-adv-x="1337" d="M274 35q-6 25 11 47q74 71 196.5 273t261.5 499q17 37 15.5 59t-21.5 58q-24 46 -24 84q0 52 35 101t86 81q53 32 98 -6l12 -8q50 -41 25 -97l-33 -73q-26 -57 20 -97q4 -3 26 -22.5t27.5 -25t24.5 -23.5t25 -26t20 -25t19.5 -28.5t13 -27.5t10 -31.5t2.5 -31.5 q0 -49 -24 -109l-103 -256q-28 -69 -41.5 -120t-13.5 -77t9 -42t18.5 -19.5t21.5 -3.5q59 0 146.5 113t224.5 344q16 26 43.5 22.5t39 -27t-2.5 -53.5q-56 -97 -95 -159.5t-93 -137t-99 -117t-99.5 -71.5t-107.5 -29q-63 0 -102.5 26.5t-56.5 82.5t0.5 150.5t70.5 222.5 l78 190q16 41 16 64q0 25 -11.5 44t-47.5 54q-47 41 -74 -14q-132 -287 -263.5 -505.5t-209.5 -287.5q-19 -17 -43.5 -3.5t-30.5 38.5z" />
<glyph unicode="&#x20;s" horiz-adv-x="1298" d="M254 10.5q-7 25.5 12 46.5q43 38 141.5 177t196.5 311q158 275 277 522q17 36 40 43.5t58 -10.5q37 -20 48 -44t3 -65q-19 -91 -25.5 -203.5t-4 -189t8 -166.5t5.5 -106q0 -76 -13 -129q-4 -25 7.5 -31.5t31.5 8.5q127 100 283 371q15 26 42.5 22.5t39.5 -27t-2 -53.5 q-31 -54 -50.5 -87t-51.5 -82.5t-56 -80t-59 -71t-66 -65.5t-72 -52t-82.5 -42t-91.5 -24.5t-104 -9.5q-142 0 -231 99q-15 17 -12.5 35t22.5 30q28 17 45 16.5t43 -20.5q48 -29 98 -29q66 0 96.5 52.5t30.5 189.5q0 44 -5 176t-5 217q0 22 -8 23.5t-19 -17.5 q-83 -160 -141 -258q-229 -396 -354 -512q-19 -18 -44 -4t-32 39.5z" />
<glyph unicode="Kl" horiz-adv-x="2228" d="M-123 227q0 152 100 266t248 136q32 5 51.5 -11.5t20.5 -50.5q0 -44 -14.5 -61.5t-57.5 -26.5q-92 -18 -147 -93.5t-55 -164.5q0 -45 15.5 -87.5t46 -80.5t84.5 -61t124 -23q76 0 140 31.5t116 93.5t92.5 137.5t81.5 180.5l334 833q9 25 -0.5 34.5t-34.5 0.5 q-29 -11 -80.5 -28t-89.5 -29.5t-89.5 -33t-88 -40t-76 -47.5t-64 -58.5t-40 -71t-15.5 -85.5q0 -62 26 -110.5t75 -69.5q43 -20 55 -38t14 -61q0 -33 -19 -47.5t-52 -7.5q-115 24 -182.5 118.5t-65.5 211.5q0 69 21 129t54 103.5t85.5 83.5t103 66.5t119 54.5t121.5 45 t123 40t112 39q71 26 117 86q85 101 182 127q26 6 45 -5t27 -36q11 -38 5 -55t-38 -39q-82 -61 -133 -185l-232 -565q-23 -60 39 -63q149 -15 250.5 62.5t175.5 268.5l152 381q102 250 283 250q82 0 149.5 -32.5t140.5 -108.5q55 -58 27 -133l-422 -1045q-105 -264 0 -264 q77 0 188.5 130t227.5 327q16 25 43.5 21.5t39 -26.5t-2.5 -53q-67 -116 -127.5 -202.5t-128 -160.5t-138 -112.5t-141.5 -38.5q-42 0 -76 13.5t-59.5 47t-33 85t8.5 135t58 188.5l387 957q21 58 -33 84q-78 41 -134 14.5t-97 -125.5l-125 -311q-156 -387 -412 -469 q-50 -14 -14 -53q111 -121 59 -381l-65 -369q-16 -79 -4 -123t55 -57q51 -17 65.5 -36.5t16.5 -72.5q0 -38 -22 -56.5t-60 -12.5q-123 20 -180.5 125t-28.5 258l55 299q35 182 16 289t-94 169q-16 13 -36 23.5t-44.5 10t-35.5 -22.5l-125 -312q-42 -104 -97.5 -184.5 t-111 -129t-118 -80t-115.5 -43t-107 -11.5q-122 0 -218 57.5t-146 149.5t-50 198z" />
<glyph unicode="Br" horiz-adv-x="2555" d="M-61 182q0 107 76.5 191t207.5 84q121 0 275 -103q50 -36 80 19q58 105 112 241l246 609q38 93 104 160t144 87q55 16 71 -45q11 -34 5 -51t-35 -39q-91 -65 -138 -182l-61 -154q-22 -58 39 -67q79 -15 157.5 1t141.5 57t102 113.5t39 162.5q0 145 -105 243.5t-288 98.5 q-106 0 -197.5 -34t-154 -90t-107.5 -127t-65.5 -145t-20.5 -145q0 -64 19 -127q14 -47 5.5 -72.5t-48.5 -54.5q-29 -22 -53.5 -13t-36.5 44q-33 101 -33 203q0 106 30 207.5t90.5 191t145 156.5t201.5 106t252 39q235 0 381.5 -142.5t146.5 -347.5q0 -80 -23 -147 t-56.5 -110t-79 -78t-81 -52t-73.5 -30q-52 -19 -8 -49q33 -24 62.5 -55.5t62 -79.5t52 -114t19.5 -141q0 -72 -18.5 -144t-57.5 -139.5t-94.5 -119t-136.5 -82.5t-176 -31q-110 0 -204 42t-212 132q-28 20 -48.5 19.5t-45.5 -23.5q-138 -131 -311 -131q-140 0 -219.5 75.5 t-79.5 182.5zM78 188q0 -46 43.5 -81t107.5 -35q95 0 187 86q47 44 -4 82q-118 77 -191 77q-60 0 -101.5 -41t-41.5 -88zM700 214.5q4 -19.5 29 -40.5q172 -133 324 -133q67 0 123 25.5t92.5 66.5t62 94t36.5 105.5t11 103.5q0 273 -360 375q-61 18 -84 -41 q-49 -127 -109 -270q-55 -133 -112 -236q-17 -30 -13 -49.5zM1492.5 35q-6.5 25 10.5 47q74 71 197 273t262 499q17 37 15.5 59t-21.5 58q-25 48 -25 84q0 52 35 101t86 81q53 32 98 -6l13 -8q49 -40 24 -97l-33 -73q-26 -56 21 -97q4 -3 26 -22.5t27.5 -25t24.5 -23.5 t25 -26t20 -25t19.5 -28.5t13 -27.5t10 -31.5t2.5 -31.5q0 -47 -25 -109l-102 -256q-28 -69 -41.5 -120t-13.5 -77t9 -42t18.5 -19.5t21.5 -3.5q59 0 145.5 112.5t224.5 344.5q16 26 43.5 22.5t39 -27t-2.5 -53.5q-40 -68 -68 -114.5t-66.5 -105.5t-68.5 -97.5t-68 -79 t-72 -64t-72.5 -38.5t-77.5 -15q-63 0 -102.5 26.5t-56.5 82.5t0.5 150.5t70.5 222.5l78 190q16 41 16 64q0 25 -11.5 44t-47.5 54q-47 41 -74 -14q-132 -287 -263.5 -505.5t-209.5 -287.5q-19 -17 -43.5 -3.5t-31 38.5z" />
<glyph unicode="Dr" horiz-adv-x="2682" d="M-63 182q0 106 78 190.5t214 84.5q81 0 151 -33t161 -107q45 -40 80 13q63 101 122 248l246 614q38 93 103.5 160.5t142.5 87.5q26 8 45.5 -3.5t26.5 -39.5q11 -35 5 -52t-38 -40q-80 -58 -131 -183l-254 -628q-73 -177 -141 -273q-19 -26 -15.5 -45.5t29.5 -38.5 q132 -98 252 -98q99 0 198.5 57t180.5 155t144.5 220.5t98.5 262.5t35 272q0 121 -31 223.5t-90 179.5t-153 120.5t-213 43.5q-135 0 -253 -58t-194 -146.5t-119 -190t-43 -193.5q0 -60 19 -123q13 -46 5 -70t-46 -53q-29 -20 -54.5 -12.5t-37.5 39.5q-35 103 -35 213 q0 153 64 290.5t169.5 233.5t246 152.5t290.5 56.5q134 0 249.5 -46.5t202 -132.5t136 -219.5t49.5 -297.5q0 -125 -28 -258t-79 -258.5t-126 -237.5t-164 -195.5t-199.5 -132.5t-226.5 -49q-93 0 -170 34t-176 110q-28 22 -49.5 22t-49.5 -22q-155 -105 -319 -105 q-141 0 -225 74.5t-84 183.5zM78 188q0 -53 47.5 -84.5t128.5 -31.5q97 0 184 61q25 17 26 38.5t-22 41.5q-123 104 -221 104q-59 0 -101 -40.5t-42 -88.5zM1619.5 35q-6.5 25 10.5 47q74 71 197 273t262 499q17 37 15.5 59t-21.5 58q-25 48 -25 84q0 52 35 101t86 81 q53 32 98 -6l13 -8q49 -40 24 -97l-33 -73q-26 -56 21 -97q4 -3 26 -22.5t27.5 -25t24.5 -23.5t25 -26t20 -25t19.5 -28.5t13 -27.5t10 -31.5t2.5 -31.5q0 -47 -25 -109l-102 -256q-28 -69 -41.5 -120t-13.5 -77t9 -42t18.5 -19.5t21.5 -3.5q59 0 145.5 112.5t224.5 344.5 q16 26 43.5 22.5t39 -27t-2.5 -53.5q-40 -68 -68 -114.5t-66.5 -105.5t-68.5 -97.5t-68 -79t-72 -64t-72.5 -38.5t-77.5 -15q-63 0 -102.5 26.5t-56.5 82.5t0.5 150.5t70.5 222.5l78 190q16 41 16 64q0 25 -11.5 44t-47.5 54q-47 41 -74 -14q-132 -287 -263.5 -505.5 t-209.5 -287.5q-19 -17 -43.5 -3.5t-31 38.5z" />
<glyph unicode="Er" horiz-adv-x="2150" d="M0 373q0 148 72 277.5t201 208t282 77.5q31 0 40.5 12t2.5 43q-20 74 -20 150q0 131 65 252q17 32 20 53.5t-4 56.5q-25 112 -16 228q3 56 59 47q31 -5 43 -19.5t9 -44.5q-2 -34 2 -96q2 -29 17 -36.5t38 9.5q137 97 305 97q87 0 157.5 -28t111.5 -73.5t62.5 -97 t20.5 -103.5q-3 -129 -98 -224t-252 -95q-99 0 -186 43.5t-146 120.5q-11 13 -21.5 16.5t-18 -4t-11.5 -24.5q-11 -60 -9.5 -119t26 -121t69.5 -109q29 -31 32.5 -51t-13.5 -51q-18 -32 -39.5 -38.5t-57.5 11.5q-88 47 -186 47q-109 0 -198.5 -58t-138 -152.5t-48.5 -202.5 q0 -162 105.5 -276.5t273.5 -114.5q99 0 180.5 40t131 104.5t72 144.5t11.5 161q-4 44 9.5 64t56.5 32q74 18 86 -55q22 -134 -13.5 -255.5t-112.5 -206.5t-189 -135t-240 -50q-150 0 -275.5 74t-196.5 199t-71 272zM838.5 1383q-1.5 -27 17.5 -50q48 -64 114.5 -100.5 t139.5 -36.5q53 0 94.5 17.5t64.5 45t34.5 55.5t11.5 54q0 25 -10.5 50.5t-33 51t-65.5 41t-100 15.5q-143 0 -244 -94q-22 -22 -23.5 -49zM1087 35q-6 25 11 47q74 71 196.5 273t261.5 499q17 37 15.5 59t-21.5 58q-24 46 -24 84q0 52 35 101t86 81q53 32 98 -6l12 -8 q50 -41 25 -97l-33 -73q-26 -57 20 -97q4 -3 26 -22.5t27.5 -25t24.5 -23.5t25 -26t20 -25t19.5 -28.5t13 -27.5t10 -31.5t2.5 -31.5q0 -49 -24 -109l-103 -256q-28 -69 -41.5 -120t-13.5 -77t9 -42t18.5 -19.5t21.5 -3.5q59 0 146.5 113t224.5 344q16 26 43.5 22.5t39 -27 t-2.5 -53.5q-56 -97 -95 -159.5t-93 -137t-99 -117t-99.5 -71.5t-107.5 -29q-63 0 -102.5 26.5t-56.5 82.5t0.5 150.5t70.5 222.5l78 190q16 41 16 64q0 25 -11.5 44t-47.5 54q-47 41 -74 -14q-132 -287 -263.5 -505.5t-209.5 -287.5q-19 -17 -43.5 -3.5t-30.5 38.5z" />
<glyph unicode="Fr" horiz-adv-x="2230" d="M0 227q0 154 101.5 268t250.5 134q34 5 53 -12t19 -52q0 -43 -14.5 -60t-57.5 -26q-96 -18 -151.5 -94t-55.5 -162q0 -43 15.5 -86t46 -81.5t85.5 -62.5t126 -24q63 0 118 22t97.5 59t82.5 95.5t71 121t65 145.5l104 254q22 57 -38 57h-74q-47 0 -29 47q11 25 25.5 35 t40.5 10h71q34 0 53 13t31 44l195 484q23 56 -37 59q-110 6 -333 58.5t-304 52.5q-86 0 -146 -36.5t-85 -86.5t-25 -105q0 -78 49.5 -128t124.5 -50q55 0 111 31q34 19 53.5 13.5t42.5 -40.5q37 -56 -18 -92q-77 -53 -181 -53q-138 0 -232.5 95.5t-94.5 225.5q0 65 26.5 129 t75.5 117t128 86t175 33q98 0 331 -54.5t341 -54.5q44 0 91.5 15t82.5 41q48 31 94 45q56 13 72 -45q9 -35 3 -52t-36 -40q-82 -54 -135 -183l-191 -465q-22 -57 39 -57h80q48 0 29 -45q-12 -26 -27 -36.5t-41 -10.5h-80q-34 0 -53 -13t-31 -44l-161 -396 q-42 -102 -97 -181.5t-111 -128.5t-119 -81t-118.5 -44.5t-111.5 -12.5q-121 0 -216.5 57.5t-145.5 149.5t-50 198zM1167 35q-6 25 11 47q74 71 196.5 273t261.5 499q17 37 15.5 59t-21.5 58q-24 46 -24 84q0 53 34.5 101.5t85.5 80.5q54 33 99 -6l12 -8q50 -41 25 -97 l-33 -73q-26 -57 20 -97q4 -3 26 -22.5t27.5 -25t24.5 -23.5t25 -26t20 -25t19.5 -28.5t13 -27.5t10 -31.5t2.5 -31.5q0 -49 -24 -109l-103 -256q-28 -69 -41.5 -120t-13.5 -77t9 -42t18.5 -19.5t21.5 -3.5q59 0 146.5 113t224.5 344q16 26 43.5 22.5t39 -27t-2.5 -53.5 q-56 -97 -95 -159.5t-93 -137t-99 -117t-99.5 -71.5t-107.5 -29q-63 0 -102.5 26.5t-56.5 82.5t0.5 150.5t70.5 222.5l78 190q16 41 16 64q0 25 -11.5 44t-47.5 54q-47 41 -74 -14q-132 -287 -263.5 -505.5t-209.5 -287.5q-19 -17 -43.5 -3.5t-30.5 38.5z" />
<glyph unicode="Ir" horiz-adv-x="2004" d="M-125 227q0 152 100 266t248 136q34 5 53 -12t19 -52q0 -42 -15 -59.5t-57 -26.5q-94 -18 -148.5 -93.5t-54.5 -164.5q0 -45 15.5 -87.5t46 -80.5t84.5 -61t123 -23q77 0 141.5 31.5t116.5 94.5t92 137.5t82 179.5l358 891q9 23 0 32t-32 0q-24 -10 -83.5 -32.5 t-95 -36.5t-93 -40.5t-93 -48.5t-79 -55.5t-68 -66.5t-41.5 -76t-17 -90q0 -64 25.5 -112.5t75.5 -69.5q45 -20 57 -39t12 -70q-3 -28 -22 -40t-50 -5q-115 24 -182 118.5t-65 211.5q0 69 22.5 131.5t57 109.5t90.5 92t107.5 76t125 64.5t126.5 54t128.5 49.5t114.5 45 q64 26 112 86q85 102 183 127q55 13 71 -45q10 -35 4 -52t-36 -40q-84 -55 -136 -182l-460 -1129q-43 -104 -99 -184.5t-111.5 -129t-117.5 -80t-115.5 -43t-107.5 -11.5q-121 0 -216.5 57.5t-145.5 149.5t-50 198zM941.5 35q-6.5 25 10.5 47q74 71 197 273t262 499 q17 37 15.5 59t-21.5 58q-25 48 -25 84q0 52 35 101t86 81q53 32 98 -6l13 -8q49 -40 24 -97l-32 -73q-26 -57 20 -97q4 -3 26 -22.5t27.5 -25t24.5 -23.5t25 -26t20 -25t19.5 -28.5t13 -27.5t10 -31.5t2.5 -31.5q0 -47 -25 -109l-102 -256q-28 -69 -41.5 -120t-13.5 -77 t9 -42t18.5 -19.5t21.5 -3.5q59 0 146.5 113t224.5 344q16 26 43 22.5t38.5 -27t-2.5 -53.5q-40 -68 -68 -114.5t-66.5 -105.5t-68.5 -97.5t-68 -79t-72 -64t-72.5 -38.5t-77.5 -15q-63 0 -102.5 26.5t-56.5 82.5t0.5 150.5t70.5 222.5l78 190q16 41 16 64q0 25 -11.5 44 t-47.5 54q-47 41 -74 -14q-132 -287 -263.5 -505.5t-209.5 -287.5q-19 -17 -43.5 -3.5t-31 38.5z" />
<glyph unicode="Kr" horiz-adv-x="2486" d="M-123 227q0 152 100 266t248 136q34 5 53 -12t19 -52q0 -42 -15 -59.5t-57 -26.5q-92 -18 -147 -93.5t-55 -164.5q0 -45 15.5 -87.5t46 -80.5t84.5 -61t124 -23q76 0 140 31.5t116 94.5t92.5 138t81.5 179l334 833q9 25 -0.5 34.5t-34.5 0.5q-29 -11 -80.5 -28 t-89.5 -29.5t-89.5 -33t-88 -40t-76 -47.5t-64 -58.5t-40 -71t-15.5 -85.5q0 -62 26 -110.5t75 -69.5q43 -20 55 -38t14 -61q0 -33 -19 -47.5t-52 -7.5q-115 24 -182.5 118.5t-65.5 211.5q0 69 21 129t54 103.5t85.5 83.5t103 66.5t119 54.5t121.5 45t123 40t112 39 q71 26 117 86q85 101 182 127q26 6 45 -5t27 -36q10 -39 4 -55.5t-37 -40.5q-81 -56 -133 -183l-232 -565q-22 -57 39 -63q150 -15 251 62t175 269l146 363q58 150 151 214.5t242 49.5q61 -9 49 -70q-9 -36 -26.5 -49.5t-53.5 -13.5q-65 2 -111 -34t-89 -142l-121 -297 q-150 -385 -412 -467q-26 -9 -29.5 -22t15.5 -33q43 -47 60 -118t14 -129t-15 -134l-65 -369q-16 -79 -4 -123t55 -57q51 -17 65.5 -36.5t16.5 -72.5q0 -38 -22 -56.5t-60 -12.5q-123 20 -180.5 125t-28.5 258l55 299q35 182 16 289t-94 169q-16 13 -36 23.5t-44.5 10 t-35.5 -22.5l-125 -312q-42 -104 -97.5 -184.5t-111 -129t-118 -80t-115.5 -43t-107 -11.5q-122 0 -218 57.5t-146 149.5t-50 198zM1423 35q-6 25 11 47q74 71 196.5 273t261.5 499q17 37 15.5 59t-21.5 58q-24 46 -24 84q0 53 34.5 101.5t85.5 80.5q54 33 99 -6l12 -8 q50 -41 25 -97l-33 -73q-26 -57 20 -97q4 -3 26 -22.5t27.5 -25t24.5 -23.5t25 -26t20 -25t19.5 -28.5t13 -27.5t10 -31.5t2.5 -31.5q0 -49 -24 -109l-103 -256q-28 -69 -41.5 -120t-13.5 -77t9 -42t18.5 -19.5t21.5 -3.5q59 0 146.5 113t224.5 344q16 26 43.5 22.5t39 -27 t-2.5 -53.5q-56 -97 -95 -159.5t-93 -137t-99 -117t-99.5 -71.5t-107.5 -29q-63 0 -102.5 26.5t-56.5 82.5t0.5 150.5t70.5 222.5l78 190q16 41 16 64q0 25 -11.5 44t-47.5 54q-47 41 -74 -14q-132 -287 -263.5 -505.5t-209.5 -287.5q-19 -17 -43.5 -3.5t-30.5 38.5z" />
<glyph unicode="Mr" horiz-adv-x="2766" d="M0 893q0 71 23.5 135t60.5 112.5t95 94.5t115 78t134 67t137.5 58.5t140 54.5t128.5 53q42 18 68.5 10t51.5 -45l29 -41q19 -28 37.5 -31t44.5 17q134 107 258 107q69 0 117.5 -33.5t60.5 -93.5q9 -48 45 -15q155 142 303 142q80 0 130.5 -43.5t50.5 -120.5 q0 -89 -78 -285l-449 -1110q-54 -136 10 -213q35 -42 40.5 -67.5t-13.5 -75.5q-14 -37 -40 -44.5t-58 17.5q-208 159 -94 442l409 1014q10 25 25.5 63.5t24.5 62t19 50t14.5 45.5t4.5 31q0 20 -3 32.5t-17.5 23t-42.5 10.5q-53 0 -129 -40t-146 -104q-42 -38 -61 -88 l-449 -1114q-17 -41 -42.5 -58.5t-69.5 -17.5h-15q-40 0 -53 19.5t2 56.5l412 1028q9 22 26 63.5t25.5 62.5t19 49t15 46.5t4.5 30.5q0 31 -13 48.5t-53 17.5q-54 0 -131.5 -41t-144.5 -105q-41 -37 -61 -90l-447 -1110q-17 -41 -43 -58.5t-70 -17.5h-14q-40 0 -53 19.5 t2 56.5l518 1292q9 23 -0.5 32t-32.5 -1q-36 -16 -96.5 -40t-105.5 -41.5t-103.5 -44t-101 -50.5t-86.5 -57.5t-72 -67.5t-45.5 -78t-17.5 -92q0 -64 25 -112.5t73 -69.5q46 -22 58.5 -40.5t12.5 -68.5q-3 -29 -21.5 -41.5t-49.5 -5.5q-115 25 -182.5 119t-65.5 211z M1703.5 35q-6.5 25 10.5 47q74 71 197 273t262 499q17 37 15.5 59t-21.5 58q-25 48 -25 84q0 52 35 101t86 81q53 32 98 -6l13 -8q49 -40 24 -97l-33 -73q-26 -56 21 -97q4 -3 26 -22.5t27.5 -25t24.5 -23.5t25 -26t20 -25t19.5 -28.5t13 -27.5t10 -31.5t2.5 -31.5 q0 -47 -25 -109l-102 -256q-28 -69 -41.5 -120t-13.5 -77t9 -42t18.5 -19.5t21.5 -3.5q59 0 145.5 112.5t224.5 344.5q16 26 43.5 22.5t39 -27t-2.5 -53.5q-40 -68 -68 -114.5t-66.5 -105.5t-68.5 -97.5t-68 -79t-72 -64t-72.5 -38.5t-77.5 -15q-63 0 -102.5 26.5 t-56.5 82.5t0.5 150.5t70.5 222.5l77 190q17 44 17 64q0 25 -11.5 44t-48.5 54q-46 40 -73 -14q-132 -287 -263.5 -505.5t-209.5 -287.5q-19 -17 -43.5 -3.5t-31 38.5z" />
<glyph unicode="Pr" horiz-adv-x="2123" d="M2 1014q0 141 58.5 274.5t159 234.5t243.5 162.5t301 61.5q174 0 320.5 -76.5t233.5 -214t87 -305.5q0 -151 -66.5 -292.5t-182.5 -236.5t-273 -123.5t-338 46.5q-31 12 -49.5 4t-30.5 -39l-184 -461q-17 -41 -43 -58.5t-70 -17.5h-14q-40 0 -53.5 19.5t1.5 56.5 l473 1174q37 92 103 159.5t143 87.5q26 7 45 -3t27 -35q10 -39 4.5 -56t-35.5 -41q-84 -59 -135 -182l-168 -414q-24 -59 35 -80q147 -51 266.5 -23.5t203.5 107.5t129.5 186t45.5 212q0 124 -58.5 230t-169.5 171.5t-251 65.5q-111 0 -211.5 -38.5t-172 -100.5t-124.5 -139 t-79 -156t-26 -150q0 -54 21 -127q14 -42 6.5 -66t-43.5 -51q-28 -20 -52 -13.5t-36 38.5q-41 96 -41 209zM1060.5 35q-6.5 25 10.5 47q74 71 197 273t262 499q17 37 15.5 59t-21.5 58q-25 48 -25 84q0 52 35 101t86 81q53 32 98 -6l13 -8q49 -40 24 -97l-33 -73 q-26 -56 21 -97q4 -3 26 -22.5t27.5 -25t24.5 -23.5t25 -26t20 -25t19.5 -28.5t13 -27.5t10 -31.5t2.5 -31.5q0 -47 -25 -109l-102 -256q-28 -69 -41.5 -120t-13.5 -77t9 -42t18.5 -19.5t21.5 -3.5q59 0 145.5 112.5t224.5 344.5q16 26 43.5 22.5t39 -27t-2.5 -53.5 q-40 -68 -68 -114.5t-66.5 -105.5t-68.5 -97.5t-68 -79t-72 -64t-72.5 -38.5t-77.5 -15q-63 0 -102.5 26.5t-56.5 82.5t0.5 150.5t70.5 222.5l77 190q17 44 17 64q0 25 -11.5 44t-48.5 54q-46 40 -73 -14q-132 -287 -263.5 -505.5t-209.5 -287.5q-19 -17 -43.5 -3.5 t-31 38.5z" />
<glyph unicode="Sr" horiz-adv-x="2185" d="M-86 -424q-13 208 127 418q20 29 20.5 50t-18.5 52q-84 139 -84 310q0 84 21 160.5t58.5 136.5t88 109t110.5 80.5t125 48t133 14.5t132 -23t39 -86q-17 -38 -38 -49t-59 -2q-93 20 -177.5 -2.5t-144 -76.5t-95 -135.5t-35.5 -174.5q0 -95 35 -179q11 -28 30 -32t41 18 q60 61 161.5 160.5t258 251t242.5 235.5q25 23 33.5 47t3.5 58q-25 186 -25 297q0 225 91 350t249 125q124 0 195 -73t71 -189q0 -48 -12 -94.5t-40.5 -95t-54 -85.5t-76 -91t-81 -84.5t-92.5 -90.5q-46 -43 -35 -105q41 -281 41 -380q0 -280 -163.5 -456.5t-424.5 -176.5 q-193 0 -352 102q-26 17 -44.5 12.5t-35.5 -30.5q-98 -159 -90 -324q1 -34 -12 -47.5t-47 -13.5h-4q-63 0 -66 61zM307 113q-44 -44 8 -76q108 -64 232 -64q194 0 317 125.5t123 343.5q0 77 -22 242q-5 28 -20 33t-34 -15zM1065 1272q0 -61 10 -156q2 -28 16.5 -33t34.5 15 q127 122 184.5 202.5t57.5 159.5q0 61 -31 97t-82 36q-74 0 -132 -79t-58 -242zM1122 35q-6 25 11 47q74 71 196.5 273t261.5 499q17 37 15.5 59t-21.5 58q-24 46 -24 84q0 53 34.5 101.5t85.5 80.5q54 33 99 -6l12 -8q50 -41 25 -97l-33 -73q-26 -57 20 -97q4 -3 26 -22.5 t27.5 -25t24.5 -23.5t25 -26t20 -25t19.5 -28.5t13 -27.5t10 -31.5t2.5 -31.5q0 -49 -24 -109l-103 -256q-28 -69 -41.5 -120t-13.5 -77t9 -42t18.5 -19.5t21.5 -3.5q59 0 146.5 113t224.5 344q16 26 43.5 22.5t39 -27t-2.5 -53.5q-56 -97 -95 -159.5t-93 -137t-99 -117 t-99.5 -71.5t-107.5 -29q-63 0 -102.5 26.5t-56.5 82.5t0.5 150.5t70.5 222.5l78 190q16 41 16 64q0 25 -11.5 44t-47.5 54q-47 41 -74 -14q-132 -287 -263.5 -505.5t-209.5 -287.5q-19 -17 -43.5 -3.5t-30.5 38.5z" />
<glyph unicode="Tr" horiz-adv-x="2115" d="M0 336q0 153 100.5 266t247.5 135q34 5 53 -11.5t19 -51.5q0 -42 -15 -59.5t-57 -26.5q-93 -18 -148 -94.5t-55 -165.5q0 -42 15.5 -84t46.5 -80t85 -62t124 -24q77 0 142.5 32t118 94.5t93.5 137.5t82 178l352 873q21 58 -37 69q-48 10 -143 31.5t-148 32.5t-124.5 25 t-125 20t-96.5 6q-79 0 -135.5 -21t-85 -55.5t-41 -70.5t-12.5 -74q0 -80 50 -129t124 -49q56 0 107 30q35 19 55 14t45 -40q35 -54 -19 -92q-78 -54 -180 -54q-138 0 -232.5 95.5t-94.5 230.5q0 65 24.5 126.5t73.5 115t134 86t194 32.5q99 0 259 -29.5t303.5 -64.5 t311 -64.5t279.5 -29.5q113 0 198 35q32 14 49.5 13t49.5 -19q17 -10 22 -30.5t-6 -35.5q-71 -108 -303 -108q-101 0 -248 20q-34 5 -53 -5.5t-31 -41.5l-401 -983q-51 -126 -121 -217.5t-145.5 -140t-146.5 -70t-142 -21.5q-121 0 -216.5 58t-145.5 150t-50 198zM1052 35 q-6 25 11 47q74 71 197 273t262 499q17 37 15.5 59t-21.5 58q-25 48 -25 84q0 52 35 101t86 81q53 32 98 -6l12 -8q50 -41 25 -97l-33 -73q-26 -56 21 -97q4 -3 26 -22.5t27.5 -25t24.5 -23.5t25 -26t20 -25t19.5 -28.5t13 -27.5t10 -31.5t2.5 -31.5q0 -47 -25 -109 l-102 -256q-28 -69 -41.5 -120t-13.5 -77t8.5 -42t18 -19.5t21.5 -3.5q59 0 146.5 113t224.5 344q16 26 43.5 22.5t39 -27t-2.5 -53.5q-56 -97 -95 -159.5t-93 -137t-99 -117t-99.5 -71.5t-107.5 -29q-63 0 -102.5 26.5t-56.5 82.5t0.5 150.5t70.5 222.5l78 190q17 44 17 64 q0 25 -11.5 44t-48.5 54q-47 41 -74 -14q-132 -287 -263.5 -505.5t-209.5 -287.5q-19 -17 -43.5 -3.5t-30.5 38.5z" />
<glyph unicode="Wr" horiz-adv-x="2746" d="M0 836q0 61 16 116.5t48.5 101.5t70.5 85t92.5 74t102.5 62t113.5 54.5t113 46t112.5 43t101 39.5q71 28 119 84q72 88 164 113q26 7 44.5 -3.5t26.5 -35.5q10 -38 4.5 -55.5t-36.5 -40.5q-86 -64 -138 -187l-401 -1011q-27 -68 -37.5 -119t-7 -79t16.5 -44.5t26.5 -21.5 t30.5 -5q91 0 191 111.5t179 294.5l383 952q17 41 43 58.5t70 17.5h16q40 0 53.5 -19.5t-1.5 -56.5l-435 -1089q-28 -68 -39.5 -119t-9.5 -79t15 -44.5t28 -21.5t35 -5q96 0 200 120.5t173 289.5l387 958q54 140 147.5 199.5t237.5 46.5q61 -6 49 -70q-9 -36 -26.5 -49.5 t-53.5 -13.5q-65 2 -110.5 -31.5t-85.5 -130.5l-330 -817q-26 -66 -51 -121t-61 -122.5t-72 -120t-84 -104.5t-98 -86t-112 -55.5t-128 -21.5q-141 0 -189 99q-14 26 -27 29.5t-36 -15.5q-133 -113 -269 -113q-56 0 -99.5 15.5t-75.5 55t-42 100.5t8.5 159t69.5 223l311 776 q9 23 0 32.5t-32 0.5q-26 -11 -82 -33t-93 -37t-92 -41t-91.5 -48.5t-78 -55t-66.5 -65.5t-41.5 -75.5t-16.5 -88.5q0 -63 25.5 -112.5t74.5 -70.5q46 -22 57.5 -39.5t11.5 -68.5q-3 -28 -22 -40t-49 -5q-115 24 -182.5 118.5t-65.5 211.5zM1683 35q-6 25 11 47 q74 71 196.5 273t261.5 499q17 37 15.5 59t-21.5 58q-24 46 -24 84q0 52 35 101t86 81q53 32 98 -6l12 -8q50 -41 25 -97l-33 -73q-26 -57 20 -97q4 -3 26 -22.5t27.5 -25t24.5 -23.5t25 -26t20 -25t19.5 -28.5t13 -27.5t10 -31.5t2.5 -31.5q0 -49 -24 -109l-103 -256 q-28 -69 -41.5 -120t-13.5 -77t9 -42t18.5 -19.5t21.5 -3.5q59 0 146.5 113t224.5 344q16 26 43.5 22.5t39 -27t-2.5 -53.5q-56 -97 -95 -159.5t-93 -137t-99 -117t-99.5 -71.5t-107.5 -29q-63 0 -102.5 26.5t-56.5 82.5t0.5 150.5t70.5 222.5l78 190q16 41 16 64 q0 25 -11.5 44t-47.5 54q-47 41 -74 -14q-132 -287 -263.5 -505.5t-209.5 -287.5q-19 -17 -43.5 -3.5t-30.5 38.5z" />
<glyph unicode="Es" horiz-adv-x="2127" d="M0 373q0 148 72 277.5t201 208t282 77.5q31 0 40.5 12t2.5 43q-20 74 -20 150q0 131 65 252q17 32 20 53.5t-4 56.5q-25 112 -16 228q3 56 59 47q31 -5 43 -19.5t9 -44.5q-2 -34 2 -96q2 -29 17 -36.5t38 9.5q137 97 305 97q87 0 157.5 -28t111.5 -73.5t62.5 -97 t20.5 -103.5q-3 -129 -98 -224t-252 -95q-99 0 -186 43.5t-146 120.5q-11 13 -21.5 16.5t-18 -4t-11.5 -24.5q-11 -60 -9.5 -119t26 -121t69.5 -109q29 -31 32.5 -51t-13.5 -51q-18 -32 -39.5 -38.5t-57.5 11.5q-88 47 -186 47q-109 0 -198.5 -58t-138 -152.5t-48.5 -202.5 q0 -162 105.5 -276.5t273.5 -114.5q99 0 180.5 40t131 104.5t72 144.5t11.5 161q-4 44 9.5 64t56.5 32q74 18 86 -55q22 -134 -13.5 -255.5t-112.5 -206.5t-189 -135t-240 -50q-150 0 -275.5 74t-196.5 199t-71 272zM838.5 1383q-1.5 -27 17.5 -50q48 -64 114.5 -100.5 t139.5 -36.5q53 0 94.5 17.5t64.5 45t34.5 55.5t11.5 54q0 25 -10.5 50.5t-33 51t-65.5 41t-100 15.5q-143 0 -244 -94q-22 -22 -23.5 -49zM1083.5 10.5q-6.5 25.5 12.5 46.5q43 38 141.5 177t196.5 311q151 264 276 522q17 36 40 43.5t58 -10.5q37 -20 48 -44t4 -65 q-19 -91 -26 -203.5t-4.5 -189t8 -167t5.5 -105.5q0 -80 -12 -129q-4 -25 7.5 -31.5t31.5 8.5q125 99 282 371q15 26 42.5 22.5t39.5 -27t-2 -53.5q-31 -54 -50.5 -87t-51.5 -82.5t-56 -80t-59 -71t-66 -65.5t-72 -52t-82.5 -42t-91.5 -24.5t-104 -9.5q-142 0 -231 99 q-15 17 -12.5 35t22.5 30q28 17 45 16.5t43 -20.5q48 -29 99 -29q66 0 96.5 52.5t30.5 189.5q0 44 -5.5 176t-5.5 217q0 22 -7.5 23.5t-18.5 -17.5q-75 -145 -142 -258q-229 -396 -354 -512q-19 -18 -44 -4t-31.5 39.5z" />
<glyph unicode="Is" horiz-adv-x="1955" d="M-125 227q0 152 100 266t248 136q34 5 53 -12t19 -52q0 -42 -15 -59.5t-57 -26.5q-94 -18 -148.5 -93.5t-54.5 -164.5q0 -45 15.5 -87.5t46 -80.5t84.5 -61t123 -23q77 0 141.5 31.5t116.5 94.5t92 137.5t82 179.5l358 891q9 23 0 32t-32 0q-24 -10 -83.5 -32.5 t-95 -36.5t-93 -40.5t-93 -48.5t-79 -55.5t-68 -66.5t-41.5 -76t-17 -90q0 -64 25.5 -112.5t75.5 -69.5q45 -20 57 -39t12 -70q-3 -28 -22 -40t-50 -5q-115 24 -182 118.5t-65 211.5q0 69 22.5 131.5t57 109.5t90.5 92t107.5 76t125 64.5t126.5 54t128.5 49.5t114.5 45 q64 26 112 86q85 102 183 127q55 13 71 -45q10 -35 4 -52t-36 -40q-84 -55 -136 -182l-460 -1129q-43 -104 -99 -184.5t-111.5 -129t-117.5 -80t-115.5 -43t-107.5 -11.5q-121 0 -216.5 57.5t-145.5 149.5t-50 198zM911.5 10.5q-6.5 25.5 12.5 46.5q43 38 141.5 177 t196.5 311q151 264 276 522q17 36 40 43.5t58 -10.5q37 -20 48 -44t4 -65q-19 -91 -26 -203.5t-4.5 -189t8 -167t5.5 -105.5q0 -80 -12 -129q-4 -25 7.5 -31.5t31.5 8.5q125 99 282 371q15 26 42.5 22.5t39.5 -27t-2 -53.5q-31 -54 -50.5 -87t-51.5 -82.5t-56 -80t-59 -71 t-66 -65.5t-72 -52t-82.5 -42t-91.5 -24.5t-104 -9.5q-142 0 -231 99q-15 17 -12.5 35t22.5 30q28 17 45 16.5t43 -20.5q48 -29 99 -29q66 0 96.5 52.5t30.5 189.5q0 44 -5.5 176t-5.5 217q0 22 -7.5 23.5t-18.5 -17.5q-75 -145 -142 -258q-229 -396 -354 -512 q-19 -18 -44 -4t-31.5 39.5z" />
<glyph unicode="Ms" horiz-adv-x="2727" d="M0 893q0 71 23.5 135t60.5 112.5t95 94.5t115 78t134 67t137.5 58.5t140 54.5t128.5 53q42 18 68.5 10t51.5 -45l29 -41q19 -28 37.5 -31t44.5 17q134 107 258 107q69 0 117.5 -33.5t60.5 -93.5q9 -48 45 -15q155 142 303 142q80 0 130.5 -43.5t50.5 -120.5 q0 -89 -78 -285l-449 -1110q-54 -136 10 -213q35 -42 40.5 -67.5t-13.5 -75.5q-14 -37 -40 -44.5t-58 17.5q-208 159 -94 442l409 1014q10 25 25.5 63.5t24.5 62t19 50t14.5 45.5t4.5 31q0 20 -3 32.5t-17.5 23t-42.5 10.5q-53 0 -129 -40t-146 -104q-42 -38 -61 -88 l-449 -1114q-17 -41 -42.5 -58.5t-69.5 -17.5h-15q-40 0 -53 19.5t2 56.5l412 1028q9 22 26 63.5t25.5 62.5t19 49t15 46.5t4.5 30.5q0 31 -13 48.5t-53 17.5q-54 0 -131.5 -41t-144.5 -105q-41 -37 -61 -90l-447 -1110q-17 -41 -43 -58.5t-70 -17.5h-14q-40 0 -53 19.5 t2 56.5l518 1292q9 23 -0.5 32t-32.5 -1q-36 -16 -96.5 -40t-105.5 -41.5t-103.5 -44t-101 -50.5t-86.5 -57.5t-72 -67.5t-45.5 -78t-17.5 -92q0 -64 25 -112.5t73 -69.5q46 -22 58.5 -40.5t12.5 -68.5q-3 -29 -21.5 -41.5t-49.5 -5.5q-115 25 -182.5 119t-65.5 211z M1683.5 10.5q-6.5 25.5 12.5 46.5q43 38 141.5 177t196.5 311q151 264 276 522q17 36 40 43.5t58 -10.5q37 -20 48 -44t4 -65q-19 -91 -26 -203.5t-4.5 -189t8 -167t5.5 -105.5q0 -80 -12 -129q-4 -25 7.5 -31.5t31.5 8.5q127 100 283 371q15 26 42 22.5t39 -27t-2 -53.5 q-31 -54 -50.5 -86.5t-51.5 -82.5t-55.5 -80.5t-58.5 -71t-66 -65.5t-72.5 -52t-82.5 -42t-91 -24.5t-104 -9.5q-143 0 -232 99q-15 17 -12.5 35t22.5 30q28 17 45 16.5t43 -20.5q48 -29 99 -29q66 0 96.5 52.5t30.5 189.5q0 44 -5.5 176t-5.5 217q0 22 -7.5 23.5 t-18.5 -17.5q-83 -160 -141 -258q-228 -393 -355 -512q-19 -18 -44 -4t-31.5 39.5z" />
<glyph unicode="Ps" horiz-adv-x="2084" d="M2 1014q0 141 58.5 274.5t159 234.5t243.5 162.5t301 61.5q174 0 320.5 -76.5t233.5 -214t87 -305.5q0 -151 -66.5 -292.5t-182.5 -236.5t-273 -123.5t-338 46.5q-31 12 -49.5 4t-30.5 -39l-184 -461q-17 -41 -43 -58.5t-70 -17.5h-14q-40 0 -53.5 19.5t1.5 56.5 l473 1174q37 92 103 159.5t143 87.5q26 7 45 -3t27 -35q10 -39 4.5 -56t-35.5 -41q-84 -59 -135 -182l-168 -414q-24 -59 35 -80q147 -51 266.5 -23.5t203.5 107.5t129.5 186t45.5 212q0 124 -58.5 230t-169.5 171.5t-251 65.5q-111 0 -211.5 -38.5t-172 -100.5t-124.5 -139 t-79 -156t-26 -150q0 -54 21 -127q14 -42 6.5 -66t-43.5 -51q-28 -20 -52 -13.5t-36 38.5q-41 96 -41 209zM1040.5 10.5q-6.5 25.5 12.5 46.5q43 38 141.5 177t196.5 311q151 264 276 522q17 36 40 43.5t58 -10.5q37 -20 48 -44t4 -65q-19 -91 -26 -203.5t-4.5 -189t8 -167 t5.5 -105.5q0 -80 -12 -129q-4 -25 7.5 -31.5t31.5 8.5q125 99 282 371q15 26 42.5 22.5t39.5 -27t-2 -53.5q-31 -54 -50.5 -87t-51.5 -82.5t-56 -80t-59 -71t-66 -65.5t-72 -52t-82.5 -42t-91.5 -24.5t-104 -9.5q-142 0 -231 99q-15 17 -12.5 35t22.5 30q28 17 45 16.5 t43 -20.5q48 -29 99 -29q66 0 96.5 52.5t30.5 189.5q0 44 -5.5 176t-5.5 217q0 22 -8 23.5t-18 -17.5q-75 -145 -142 -258q-229 -396 -354 -512q-19 -18 -44 -4t-31.5 39.5z" />
<glyph unicode="Vs" horiz-adv-x="2314" d="M0 836q0 54 14 104t36 91t58.5 79.5t73 68t87.5 60t94 51.5t101 46t100 41t99.5 38t90.5 35q40 18 65.5 36.5t52.5 51.5q75 91 179 117q26 7 44.5 -4t26.5 -37q10 -37 4 -52t-39 -34q-98 -50 -126 -180l-248 -1117q-4 -25 6.5 -31t30.5 9q128 96 235 206t181.5 213 t135 218t97 211.5t64 203t40.5 183t23 160.5q4 43 24.5 64t65.5 30q78 15 72 -66q-7 -73 -14.5 -135.5t-25.5 -157t-41.5 -177.5t-63 -188.5t-89 -198.5t-121.5 -198t-157.5 -198t-200 -188t-246.5 -177q-68 -41 -147 -41h-11q-81 0 -63 80l264 1207q6 27 -5 36t-36 -2 q-27 -12 -81 -32.5t-94.5 -36.5t-95.5 -41t-95 -48.5t-83 -56.5t-70 -67t-44.5 -78t-17.5 -92q0 -63 25.5 -112.5t74.5 -70.5q46 -22 57.5 -39.5t11.5 -68.5q-3 -28 -22 -40t-49 -5q-115 24 -182.5 118.5t-65.5 211.5zM1270 10.5q-7 25.5 12 46.5q43 38 141.5 177t196.5 311 q151 264 276 522q17 36 40.5 43.5t58.5 -10.5q37 -20 48 -44t3 -65q-19 -91 -25.5 -203.5t-4 -189t8 -166.5t5.5 -106q0 -76 -13 -129q-4 -25 7.5 -31.5t31.5 8.5q127 100 283 371q15 26 42.5 22.5t39.5 -27t-2 -53.5q-31 -54 -50.5 -87t-51.5 -82.5t-56 -80t-59 -71 t-66 -65.5t-72 -52t-82.5 -42t-91.5 -24.5t-104 -9.5q-143 0 -232 99q-15 17 -12 35t23 30q28 17 45 16.5t43 -20.5q48 -29 98 -29q66 0 96.5 52.5t30.5 189.5q0 44 -5 176t-5 217q0 22 -8 23.5t-19 -17.5q-83 -160 -141 -258q-229 -396 -354 -512q-19 -18 -44 -4t-32 39.5z " />
<glyph unicode="tt" horiz-adv-x="1101" d="M-92 118q-5 52 13 134.5t61 189.5l229 564q22 57 -39 57h-86q-47 0 -29 47q11 25 25.5 35t40.5 10h86q34 0 53 13t31 44l74 181q17 41 42.5 58t69.5 17h15q82 0 51 -75l-74 -181q-22 -57 39 -57h250q34 0 53 13t31 44l74 181q17 41 42.5 58t69.5 17h14q40 0 53.5 -19 t-1.5 -56l-74 -181q-22 -57 39 -57h78q46 0 28 -47q-11 -25 -25 -35t-40 -10h-78q-34 0 -53 -13t-31 -44l-264 -654q-28 -67 -41 -116.5t-14 -76.5t7.5 -43.5t20 -21t27.5 -4.5q92 0 213 128.5t237 326.5q16 26 43.5 22.5t39 -27t-2.5 -53.5q-296 -514 -567 -514 q-209 0 -176 230q-193 -230 -375 -230q-52 0 -88.5 13.5t-61.5 46.5t-30 85zM70 159q-1 -27 7.5 -43.5t20 -21t27.5 -4.5q90 0 210 126t236 321l191 469q22 57 -39 57h-250q-34 0 -53 -13t-31 -44l-264 -654q-28 -67 -41 -116.5t-14 -76.5z" />
<glyph unicode="&#xd;" horiz-adv-x="778" />
<glyph unicode=" "  horiz-adv-x="512" />
<glyph unicode="&#x09;" horiz-adv-x="512" />
<glyph unicode="&#xa0;" horiz-adv-x="512" />
<glyph unicode="!" horiz-adv-x="628" d="M92 100q0 52 37 89.5t90 37.5q54 0 90.5 -37t36.5 -90t-36.5 -90t-90.5 -37q-53 0 -90 37.5t-37 89.5zM285 420l346 971q13 42 38 59.5t70 17.5h41q80 0 49 -75l-430 -973q-12 -27 -28.5 -38t-46.5 -11h-5q-53 0 -34 49z" />
<glyph unicode="&#x22;" horiz-adv-x="813" d="M180 877l148 538q11 35 39 57.5t63 22.5q43 0 74 -32t31 -77q0 -25 -15 -55l-241 -459q-19 -36 -62 -36h-4q-42 0 -33 41zM571 877l150 538q9 35 37 57.5t65 22.5q43 0 74 -32t31 -77q0 -20 -10 -43l-248 -471q-19 -36 -62 -36h-4q-42 0 -33 41z" />
<glyph unicode="#" horiz-adv-x="1366" d="M-4 444q13 32 33.5 46t54.5 14h164q34 0 53 13t31 44l141 342q11 28 0.5 43t-39.5 15h-164q-62 0 -41 59q13 35 33.5 49t54.5 14h164q33 0 52.5 13.5t31.5 44.5l107 262q13 35 36 50t62 15h4q70 0 45 -65l-106 -262q-11 -28 -0.5 -43t39.5 -15h209q33 0 52 13.5t31 44.5 l107 262q13 35 36 50t62 15h4q70 0 45 -65l-106 -262q-11 -28 -0.5 -43t39.5 -15h166q62 0 41 -59q-13 -35 -33.5 -49t-54.5 -14h-168q-33 0 -52.5 -13.5t-31.5 -44.5l-140 -342q-22 -57 39 -57h166q63 0 39 -64q-13 -32 -33.5 -45.5t-54.5 -13.5h-166q-34 0 -53 -13 t-31 -44l-106 -258q-14 -35 -36 -50.5t-60 -15.5h-5q-70 0 -45 66l107 258q22 57 -39 57h-211q-34 0 -53 -13t-31 -44l-106 -258q-13 -35 -36 -50.5t-61 -15.5h-4q-70 0 -45 66l107 258q22 57 -39 57h-166q-62 0 -39 63zM477 561q-22 -57 39 -57h211q34 0 53 13t31 44 l141 342q11 28 0.5 43t-39.5 15h-211q-33 0 -52.5 -13.5t-31.5 -44.5z" />
<glyph unicode="$" horiz-adv-x="931" d="M-7.5 340.5q3.5 45.5 17.5 91.5q25 76 103 76h16q40 0 52 -18t-1 -56q-51 -127 0 -186q17 -19 39 -15.5t31 27.5l162 397q22 56 -15 107q-48 68 -75 132t-27 148q0 32 12 75t40.5 95t69.5 97t105.5 79.5t141.5 43.5q37 5 55 18.5t33 48.5l22 55q17 46 68 46h4 q23 0 31.5 -12t-0.5 -34l-27 -67q-12 -32 -5.5 -50.5t38.5 -35.5q47 -25 74 -66.5t33.5 -89t2 -92.5t-17.5 -88q-25 -76 -103 -76h-18q-78 0 -49 74q50 121 12 184q-13 20 -35.5 18.5t-31.5 -24.5l-152 -379q-22 -56 12 -106q55 -82 85 -150.5t30 -146.5q0 -43 -11.5 -89.5 t-40.5 -96.5t-71.5 -91t-110.5 -71.5t-151 -38.5q-37 -4 -54.5 -18t-31.5 -48l-33 -80q-10 -25 -25.5 -35t-41.5 -10h-4q-23 0 -31.5 11.5t0.5 33.5l33 82q12 32 4.5 50.5t-39.5 31.5q-52 24 -82.5 64.5t-38 89.5t-4 94.5zM358 270q-10 -25 1 -36.5t36 -2.5q72 27 115 93.5 t43 162.5q0 35 -21 86q-8 16 -17.5 21.5t-19 -1t-16.5 -22.5zM469 1008q0 -28 14 -60q9 -22 23.5 -22t23.5 22l109 275q10 23 -1 32.5t-34 -2.5q-135 -69 -135 -245z" />
<glyph unicode="%" horiz-adv-x="1310" d="M109 891q0 117 82.5 200t199.5 83t199 -83t82 -200t-82 -199t-199 -82t-199.5 82t-82.5 199zM183 14q-7 14 12 37l882 1071q44 52 111 52h4q29 0 36.5 -15t-11.5 -37l-885 -1071q-43 -51 -109 -51h-4q-29 0 -36 14zM238 889q0 -65 42.5 -108.5t106.5 -43.5q65 0 109.5 44 t44.5 108t-44.5 108.5t-109.5 44.5q-64 0 -106.5 -44t-42.5 -109zM739 283q0 117 83 198.5t200 81.5t200 -81.5t83 -198.5t-83 -200t-200 -83t-200 83t-83 200zM868 279q0 -64 43.5 -107t108.5 -43t109.5 43t44.5 107t-44.5 108.5t-109.5 44.5q-64 0 -108 -44t-44 -109z" />
<glyph unicode="&#x26;" horiz-adv-x="1417" d="M2 487q0 137 59.5 249t157 176t213.5 73q32 1 41.5 14t3.5 45q-8 36 -8 78q0 128 60 230.5t159 158.5t215 56q85 0 154.5 -31.5t111.5 -82.5t64 -110t22 -118q0 -116 -76 -198.5t-188 -82.5q-93 0 -144.5 60t-35.5 135q11 46 39 66t61 20q44 0 76 -31t35 -76 q1 -26 15 -32.5t36 8.5q31 24 44 65t4 85.5t-33.5 84.5t-73 66t-109.5 26q-46 0 -93.5 -17.5t-91 -51.5t-70.5 -93.5t-27 -134.5q0 -110 57 -182q25 -30 26.5 -51t-18.5 -49q-19 -28 -37 -33t-55 10q-52 25 -109 25q-123 0 -217 -102t-94 -248q0 -67 22.5 -130.5t64 -115 t108 -82.5t147.5 -31q73 0 139 25t115.5 67.5t87 97.5t58 116.5t24.5 123.5q3 31 -13.5 46t-47.5 10q-122 -22 -182.5 -70t-80.5 -125q-7 -35 -23.5 -48t-51.5 -13q-61 0 -49 61q16 72 46 125.5t68 88t97.5 60t117.5 40t144 28.5q220 38 270 56q61 21 67 61q2 10 1 22 q-5 47 7 67.5t54 35.5q66 26 88 -45q36 -124 -32 -204t-277 -112q-35 -4 -48.5 -19.5t-13.5 -49.5q-4 -117 -48 -226.5t-117.5 -193.5t-179.5 -134.5t-226 -50.5q-135 0 -250.5 62t-187.5 180.5t-72 269.5z" />
<glyph unicode="'" horiz-adv-x="419" d="M180 877l148 538q11 35 39 57.5t63 22.5q43 0 74 -32t31 -77q0 -25 -15 -55l-241 -459q-19 -36 -62 -36h-4q-42 0 -33 41z" />
<glyph unicode="(" horiz-adv-x="751" d="M-68 -53q0 89 64 248l430 1067q0 1 12 29.5t17.5 40t21 44t30 53.5t38 55.5t50.5 63.5t61 63.5t77 70t92 69.5q66 48 107 -27q21 -37 15 -62t-42 -50q-83 -59 -147 -127.5t-95 -117t-49 -93.5l-430 -1067q-4 -10 -20.5 -50t-23.5 -58t-18 -50t-15.5 -55.5t-4.5 -42.5 q0 -39 29 -107q21 -43 14 -67t-47 -49l-8 -7q-67 -45 -106 29q-52 102 -52 197z" />
<glyph unicode=")" horiz-adv-x="751" d="M-25.5 -187.5q6.5 25.5 41.5 50.5q83 59 147 127.5t95 117t49 93.5l430 1067q4 10 20.5 50t23.5 58t18 50t15.5 55.5t4.5 42.5q0 40 -28 106q-22 43 -15 67.5t47 49.5l8 6q67 45 107 -29q51 -100 51 -196q0 -91 -63 -248l-430 -1067q-1 -3 -11 -26.5t-14.5 -34.5 t-18 -38.5t-24.5 -45.5t-30.5 -48.5t-39 -54t-48.5 -56t-59.5 -60.5t-70.5 -61t-84 -64q-66 -47 -106 26q-22 37 -15.5 62.5z" />
<glyph unicode="*" horiz-adv-x="866" d="M106.5 938q7.5 34 38.5 47l228 94q17 7 23.5 16t1 19t-20.5 19l-209 120q-32 12 -34 53t18 62q22 26 56 29t56 -21l160 -192q17 -20 32 -17t19 29l53 246q7 33 39.5 46t63.5 -1q30 -13 43.5 -43t-2.5 -60l-131 -213q-14 -22 -6.5 -35t34.5 -10l248 29q26 3 50 -20.5 t24 -65.5q0 -35 -26.5 -56.5t-59.5 -15.5l-244 62q-26 6 -35.5 -5t0.5 -36l105 -230q12 -30 -6.5 -59.5t-51.5 -38.5q-32 -8 -61.5 10t-32.5 52l-16 249q-2 28 -15.5 34t-33.5 -13l-187 -170q-27 -22 -59.5 -13.5t-50.5 38.5q-18 27 -10.5 61z" />
<glyph unicode="+" horiz-adv-x="1185" d="M104 531.5q-13 19.5 2 56.5q17 40 42.5 57t66.5 17h225q34 0 53 13t31 44l99 244q17 41 42.5 58t69.5 17h4q40 0 53.5 -19t-1.5 -56l-101 -244q-22 -57 39 -57h229q37 0 50 -19.5t-2 -56.5q-17 -40 -42.5 -57t-66.5 -17h-227q-34 0 -53 -13t-31 -44l-101 -246 q-17 -40 -42 -57t-68 -17h-4q-38 0 -51 19.5t2 54.5l98 246q22 57 -39 57h-227q-37 0 -50 19.5z" />
<glyph unicode="," horiz-adv-x="501" d="M-39 -274q-17 38 16 59q77 50 140 109q35 35 36.5 62.5t-26.5 57.5q-35 40 -35 86q0 52 37 89.5t88 37.5q50 0 89.5 -34.5t39.5 -106.5q0 -54 -26 -108.5t-63 -95.5t-85 -79.5t-86 -61.5t-72 -40q-35 -18 -51 18z" />
<glyph unicode="-" horiz-adv-x="978" d="M288.5 531.5q-13.5 19.5 0.5 54.5l2 4q15 40 40 57t68 17h361q38 0 51.5 -19.5t-0.5 -54.5l-2 -4q-15 -40 -40.5 -57t-68.5 -17h-360q-38 0 -51.5 19.5z" />
<glyph unicode="." horiz-adv-x="501" d="M92 100q0 52 37 89.5t90 37.5q54 0 90.5 -37t36.5 -90t-36.5 -90t-90.5 -37q-53 0 -90 37.5t-37 89.5z" />
<glyph unicode="/" horiz-adv-x="907" d="M120.5 -242.5q-8.5 11.5 0.5 33.5l756 1876q10 25 25.5 35t41.5 10h4q23 0 31.5 -11.5t-0.5 -33.5l-756 -1876q-10 -25 -25.5 -35t-41.5 -10h-4q-23 0 -31.5 11.5z" />
<glyph unicode="0" horiz-adv-x="987" d="M-8 295q0 125 39.5 285t112 319t163.5 293.5t205 218.5t225 84q33 0 63.5 -7t65 -28.5t59.5 -55t41.5 -92t16.5 -134.5q0 -103 -28.5 -233t-78 -263.5t-120.5 -261.5t-151 -227t-176 -159.5t-189 -60.5q-35 0 -67 8t-66 30t-58.5 56.5t-40.5 93t-16 134.5zM160 252 q0 -42 10 -71t26.5 -42.5t31 -18.5t30.5 -5q76 0 177 134.5t183 315t139.5 365t57.5 282.5q0 68 -24 105t-66 37q-79 0 -181.5 -134.5t-185.5 -315.5t-140.5 -366.5t-57.5 -285.5z" />
<glyph unicode="1" horiz-adv-x="759" d="M70 651q-33 39 4 74q347 333 592 678q26 36 54 50.5t73 14.5h6q82 0 51 -75l-531 -1317q-17 -41 -42.5 -58.5t-69.5 -17.5h-6q-40 0 -53 19.5t2 56.5l382 948q6 19 1 22t-17 -12q-188 -212 -373 -389q-35 -35 -73 6z" />
<glyph unicode="2" horiz-adv-x="878" d="M-162 19.5q-13 19.5 2 56.5l19 41q28 74 94 131q144 117 311 268q82 72 146.5 133t136.5 140t119 146.5t78.5 142.5t31.5 139q0 63 -32.5 104t-90.5 41q-99 0 -173.5 -75.5t-98.5 -186.5q-9 -49 -29.5 -65.5t-70.5 -16.5h-2q-39 0 -57.5 21.5t-12.5 60.5q13 76 47 144.5 t87.5 125.5t133.5 91t174 34q136 0 213.5 -70.5t77.5 -203.5q0 -89 -38 -186.5t-94.5 -180t-140 -172.5t-154.5 -154.5t-159 -136.5q-80 -63 -223 -182q-20 -17 -15.5 -29t29.5 -12h375q40 0 53 -19.5t-2 -56.5l-6 -16q-17 -41 -42.5 -58.5t-69.5 -17.5h-564q-40 0 -53 19.5 z" />
<glyph unicode="3" horiz-adv-x="952" d="M-58.5 232.5q-1.5 52.5 4 97t17.5 88.5q21 78 103 78h34q79 0 50 -74q-22 -53 -31.5 -105t-4 -100t41.5 -78t100 -30q76 0 144.5 43t113 107.5t70.5 138.5t26 139q0 49 -14 82t-41 49t-55 22t-66 6q-40 -2 -54 17.5t3 56.5l10 23q19 47 42 65.5t73 26.5q79 10 139.5 42.5 t93 70.5t53 83t26 75t5.5 52q0 154 -123 154q-84 0 -152.5 -57.5t-103.5 -141.5q-22 -48 -44.5 -63t-75.5 -15q-37 0 -51.5 21t-4.5 59q40 143 149.5 236.5t282.5 93.5q76 0 133 -21t86.5 -50t47 -68.5t22 -68t4.5 -56.5q0 -130 -79 -245t-228 -177q-49 -21 -6 -55 q98 -76 98 -228q0 -72 -20.5 -147t-64.5 -148t-105 -130.5t-149.5 -92.5t-190.5 -35q-83 0 -143.5 21.5t-93.5 59t-51.5 82t-20 97z" />
<glyph unicode="4" horiz-adv-x="1007" d="M-41 379.5q-13 19.5 2 56.5q40 89 90 144l756 827q31 34 62 47.5t75 13.5h53q40 0 53.5 -19t-1.5 -56l-328 -813q-10 -26 0.5 -38.5t36.5 -4.5q24 6 39 12q32 11 46.5 7.5t39.5 -28.5q32 -37 -2 -71q-73 -69 -187 -88q-37 -8 -55 -22.5t-31 -49.5l-90 -221 q-17 -41 -42.5 -58.5t-69.5 -17.5h-7q-40 0 -53 19.5t2 56.5l92 227q22 57 -39 57h-389q-40 0 -53 19.5zM179 531q6 -13 32 -13h254q34 0 53 13t31 44l254 629q7 18 0 22.5t-19 -9.5l-594 -654q-17 -19 -11 -32z" />
<glyph unicode="5" horiz-adv-x="970" d="M-33 227q-2 53 4 102t19 99q21 78 100 78h25q79 0 55 -76q-50 -140 -31.5 -229.5t109.5 -89.5q80 0 162.5 87t139 206.5t92.5 238.5t36 188q0 63 -28.5 95t-80.5 32q-111 0 -227 -180q-23 -37 -49 -43.5t-64 13.5q-37 19 -46.5 43.5t5.5 62.5l218 539q17 41 42 55t68 8 q256 -41 301 -41q65 0 129 25q34 14 51.5 9.5t40.5 -32.5q38 -45 -2 -82q-93 -90 -235 -90q-45 0 -203 25q-33 6 -52.5 -5t-31.5 -42l-63 -158q-8 -19 -1.5 -24.5t25.5 3.5q56 35 125 35q116 0 182 -79.5t66 -221.5q0 -67 -18.5 -151.5t-53 -174.5t-88.5 -175.5t-119 -153.5 t-151.5 -109t-179.5 -41q-71 0 -123.5 20.5t-82 56t-46.5 80t-19 97.5z" />
<glyph unicode="6" horiz-adv-x="958" d="M-2 289q0 88 20 197t58 223.5t89 228t117.5 213.5t139 177t157.5 122t169 45q137 0 202 -101t33 -274q-8 -41 -30.5 -60.5t-63.5 -19.5h-19q-42 0 -56 18t-5 60q10 42 13.5 81t-1.5 76.5t-27 60t-59 22.5q-83 0 -182 -128t-193 -329q-9 -20 -2.5 -26t25.5 6 q103 75 209 75q107 0 170 -74.5t59 -215.5q-4 -79 -30 -171t-75 -184.5t-113 -168t-152 -122.5t-183 -47q-27 0 -55.5 5t-69 24t-71 51t-52.5 93.5t-22 142.5zM162 264q0 -79 30 -116t78 -37q67 0 139.5 66t125 159t86.5 192t34 166q0 142 -106 142q-58 0 -127.5 -43.5 t-126.5 -112.5q-18 -25 -44.5 -76t-35.5 -80q-53 -168 -53 -260z" />
<glyph unicode="7" horiz-adv-x="882" d="M55 76q135 294 334 594t404 553q15 20 9 32t-32 11h-14q-63 0 -277 26q-34 4 -53 -7t-31 -42l-53 -137q-17 -41 -43 -58.5t-70 -17.5h-6q-40 0 -53 19.5t2 56.5l119 293q13 38 36.5 52t63.5 9q421 -45 449 -45q77 0 139 29q24 12 39.5 9.5t32.5 -23.5q27 -34 2 -72 q-495 -680 -774 -1284q-19 -40 -45 -57t-70 -17h-60q-80 0 -49 76z" />
<glyph unicode="8" horiz-adv-x="954" d="M-61 266q0 71 22 149t63 151.5t107.5 135t147.5 93.5q29 12 33 24.5t-13 40.5q-41 68 -41 158q0 62 19 127.5t57.5 128t91.5 112t127.5 79.5t157.5 30q130 0 211.5 -71t81.5 -193q0 -72 -29 -154t-91.5 -161.5t-144.5 -122.5q-28 -13 -30 -27t18 -37q70 -78 70 -205 q0 -70 -21 -145t-65.5 -147.5t-105 -130t-146.5 -93t-183 -35.5q-40 0 -78.5 5t-87.5 23.5t-85 48.5t-61 86t-25 130zM115 268q0 -85 46 -121t115 -36q80 0 149 45.5t110.5 113t64.5 139t23 130.5q0 79 -41 120t-117 41q-67 0 -125.5 -31t-98.5 -79.5t-69.5 -107t-43 -114 t-13.5 -100.5zM430 1001q0 -67 36 -98t93 -31q62 0 115.5 38.5t86 95.5t50.5 116.5t18 108.5q0 62 -31.5 94.5t-90.5 32.5q-64 0 -119 -38.5t-88 -95.5t-51.5 -116.5t-18.5 -106.5z" />
<glyph unicode="9" horiz-adv-x="942" d="M-29 348q15 80 97 80h16q42 0 56 -18t5 -60q-11 -42 -14.5 -81.5t2 -76.5t27 -59t57.5 -22q84 0 184 128.5t193 327.5q9 20 2.5 25.5t-25.5 -6.5q-106 -74 -209 -74q-107 0 -171 75t-58 216q3 65 22 141t52 153t82 148.5t108 127t134 89t155 33.5q27 0 55.5 -4.5t69 -24 t71 -51t52.5 -93t22 -142.5q0 -103 -27.5 -233t-76 -264t-119 -262t-151.5 -227.5t-179 -160t-196 -60.5q-137 0 -202.5 98.5t-33.5 276.5zM297 774q0 -68 27.5 -104.5t81.5 -36.5q58 0 127.5 43t125.5 112q18 22 44.5 74t35.5 82q52 175 52 260q0 78 -30 116t-77 38 q-54 0 -112.5 -43.5t-106 -111.5t-86.5 -146.5t-60.5 -154t-21.5 -128.5z" />
<glyph unicode=":" horiz-adv-x="600" d="M92 100q0 52 37 89.5t90 37.5q54 0 90.5 -37t36.5 -90t-36.5 -90t-90.5 -37q-53 0 -90 37.5t-37 89.5zM377 803q0 53 37.5 90t89.5 37q54 0 90.5 -37t36.5 -90t-36.5 -90t-90.5 -37q-52 0 -89.5 37t-37.5 90z" />
<glyph unicode=";" horiz-adv-x="600" d="M-37 -274q-17 37 17 59q74 48 139 109q35 35 36.5 62.5t-26.5 57.5q-35 40 -35 86q0 52 37 89.5t88 37.5q50 0 89.5 -34.5t39.5 -106.5q0 -54 -26 -108.5t-63 -95.5t-85 -79.5t-86 -61.5t-72 -40q-35 -18 -51 18zM377 803q0 53 37.5 90t89.5 37q54 0 90.5 -37t36.5 -90 t-36.5 -90t-90.5 -37q-52 0 -89.5 37t-37.5 90z" />
<glyph unicode="&#x3c;" horiz-adv-x="1288" d="M102 526.5q-10 26.5 7 67.5q18 41 42 64t64 36l961 332q34 11 47 -3t0 -46l-15 -33q-18 -42 -42 -65.5t-66 -36.5l-721 -252q-25 -9 -25 -23t23 -24l495 -242q35 -17 43.5 -41.5t-6.5 -62.5q-29 -68 -94 -35l-665 319q-38 19 -48 45.5z" />
<glyph unicode="=" horiz-adv-x="1214" d="M35 325q-13 20 2 58q17 41 42 58.5t68 17.5h740q38 0 51 -20t-2 -58q-17 -41 -42.5 -58.5t-68.5 -17.5h-739q-38 0 -51 20zM197 788q19 43 44.5 60.5t69.5 17.5h736q82 0 51 -75q-19 -43 -45 -60.5t-70 -17.5h-735q-82 0 -51 75z" />
<glyph unicode="&#x3e;" horiz-adv-x="1292" d="M-27 159q-13 14 0 46l15 35q18 42 42 65.5t66 36.5l723 252q25 9 25 23t-23 24l-497 242q-66 28 -39 98l2 4q25 67 92 37l665 -320q72 -35 43 -108l-2 -4q-15 -40 -39 -64t-65 -37l-961 -333q-34 -11 -47 3z" />
<glyph unicode="?" horiz-adv-x="878" d="M90 100q0 52 37 89.5t90 37.5t90 -37.5t37 -89.5t-37 -89.5t-90 -37.5t-90 37.5t-37 89.5zM268 432q36 92 104.5 184t137 163t133 141t105 144.5t40.5 147.5q0 64 -30.5 102t-85.5 38q-87 0 -157 -85.5t-91 -203.5q-8 -43 -26 -58.5t-62 -15.5q-75 0 -66 74 q7 63 25.5 122.5t51.5 115t77.5 97t108.5 66.5t139 25q62 0 111 -15.5t80 -41.5t51.5 -61t29 -72t8.5 -78q0 -63 -24 -126.5t-64 -119.5t-89.5 -111.5t-104.5 -110t-105 -105.5t-94 -108t-68 -108q-17 -36 -36 -48.5t-58 -12.5q-63 0 -41 61z" />
<glyph unicode="@" horiz-adv-x="2009" d="M225 309q0 126 30 255t86 250t142 226t191 183.5t240.5 124t283.5 45.5q133 0 242 -37t182.5 -98.5t123.5 -145t72.5 -174.5t22.5 -188q0 -146 -52 -291t-133 -251.5t-182.5 -172.5t-197.5 -66q-173 0 -217 160q-6 25 -17 28t-30 -16q-94 -94 -203 -94q-71 0 -108 53.5 t-37 126.5q0 56 18.5 145t57.5 193t89.5 194.5t123.5 151t151 60.5q92 0 135 -80q19 -31 35 -36t47 13l65 39q28 15 39.5 4.5t-0.5 -39.5l-208 -518q-37 -88 -37 -151.5t28 -93t78 -29.5q67 0 142 56.5t137.5 147t103.5 214.5t41 247q0 232 -143.5 371t-376.5 139 q-130 0 -253 -47.5t-223 -135t-175 -203t-116.5 -259.5t-41.5 -297q0 -277 147 -437.5t408 -160.5q249 0 428 129q26 19 44.5 16t35.5 -28q35 -52 -10 -88q-107 -75 -238 -117.5t-268 -42.5q-112 0 -215 28.5t-192 87.5t-155 143.5t-103.5 204t-37.5 261.5zM803 238 q0 -35 14.5 -51.5t46.5 -16.5q63 0 162 123q36 46 55 92l123 305q6 13 7.5 40t-3.5 42q-10 34 -34.5 54t-53.5 20q-54 0 -114 -73.5t-103 -173.5t-71.5 -201.5t-28.5 -159.5z" />
<glyph unicode="A" horiz-adv-x="1689" d="M-147 305q0 155 110 252.5t289 97.5q174 0 377 -104q29 -15 49 -9.5t37 33.5l475 797q13 21 38 64t35.5 59.5t31 49t30.5 45t28 34.5t30.5 30t30 18.5t34.5 14t37 3.5q18 0 37.5 -5t45 -19t40 -39t20.5 -65q2 -11 3 -24q0 -33 -13 -74l-313 -1185q-3 -12 -3 -21 q0 -39 50 -39q108 4 182 73t180 253q16 26 44 23q26 -4 38 -28q5 -11 6 -22q0 -15 -8 -31q-125 -219 -225 -305q-97 -83 -238 -82h-10q-35 0 -52 -12.5t-26 -46.5l-80 -303q-9 -37 -29 -42q-3 -1 -6 -1q-17 0 -38 24l-29 35q-29 32 -37 66q-3 14 -3 29q0 22 7 47l51 190 q4 14 4 26q0 41 -45 58q-75 33 -239 119q-29 17 -49.5 12t-40.5 -33q-211 -295 -482 -295q-168 0 -271 93.5t-103 238.5zM2 313q0 -34 12.5 -67t37.5 -62t70.5 -47t104.5 -18q94 0 177.5 57t168.5 174q15 21 15 39q0 25 -33 41q-168 86 -303 86q-67 0 -117 -18t-78 -48.5 t-41.5 -65t-13.5 -71.5zM846 492q-11 -20 -11 -37q0 -29 33 -47q114 -64 207 -113q18 -9 32 -9q30 0 40 42l315 1151q1 2 1 3q0 6 -9 9q-2 1 -5 1q-6 0 -9 -5z" />
<glyph unicode="B" horiz-adv-x="1683" d="M-61 182q0 107 76.5 191t207.5 84q121 0 275 -103q20 -14 36 -14q25 0 44 33q58 105 112 241l246 609q38 93 104 160t144 87q11 3 21 3q37 0 50 -48q11 -34 5 -51t-35 -39q-91 -65 -138 -182l-61 -154q-6 -15 -6 -27q0 -33 45 -40q38 -7 76 -7q41 0 81 8q78 16 141.5 57 t102.5 113.5t39 162.5q0 145 -105 243.5t-288 98.5q-106 0 -197.5 -34t-154 -90t-107.5 -127t-65.5 -145t-20.5 -145q0 -64 19 -127q9 -29 9 -50q1 -12 -3 -22q-8 -26 -49 -55q-29 -22 -53.5 -13t-36.5 44q-33 101 -33 203q0 106 30 207.5t90.5 191t145 156.5t201.5 106 t252 39q235 0 381.5 -142.5t146.5 -347.5q0 -80 -23 -147t-56.5 -110t-79 -78t-81 -52t-73.5 -30q-28 -10 -28 -24q0 -11 20 -25q33 -24 62.5 -55.5t62 -79.5t52 -114t19.5 -141q0 -72 -18.5 -144t-57.5 -139.5t-94.5 -119t-136.5 -82.5t-176 -31q-110 0 -204 42t-212 132 q-28 20 -48.5 19.5t-45.5 -23.5q-138 -131 -311 -131q-140 0 -219.5 75.5t-79.5 182.5zM78 188q0 -46 43.5 -81t107.5 -35q95 0 187 86q23 21 23 41q0 21 -27 41q-118 77 -191 77q-60 0 -101.5 -41t-41.5 -88zM700 214q4 -20 29 -40q172 -133 324 -133q67 0 123 25.5 t92.5 66.5t62 94t36.5 105.5t11 103.5q0 273 -360 375q-14 4 -26 4q-40 0 -58 -45q-49 -127 -109 -270q-55 -133 -112 -236q-14 -24 -14 -42q0 -4 1 -8z" />
<glyph unicode="C" horiz-adv-x="1341" d="M0 1116q0 127 59 239t150 183q25 19 46 19q28 0 50 -33q26 -36 23.5 -58t-33.5 -49q-69 -60 -111.5 -141t-42.5 -168q0 -98 65.5 -188.5t166.5 -131.5q19 -7 34 -7q37 0 52 44q49 135 112 262t141 241t161 199t176.5 135t183.5 50q123 0 193.5 -87t70.5 -218 q0 -120 -52.5 -258t-164.5 -258q-256 -272 -653 -283q-33 -2 -50 -14.5t-26 -44.5q-45 -167 -45 -297q0 -223 196 -223q160 0 344.5 142.5t319.5 373.5q16 26 43.5 22.5t39 -27t-2.5 -53.5q-76 -131 -160.5 -237t-182 -190t-209.5 -130.5t-228 -46.5q-326 0 -326 377 q0 145 39 311q9 34 -1 51.5t-42 28.5q-90 34 -157.5 89.5t-105 119.5t-55.5 128t-18 128zM642 763q9 -12 30 -12q5 0 10 1q134 12 253 72t208 155q85 94 134.5 201.5t49.5 199.5q0 75 -32 119.5t-89 44.5q-88 0 -195 -111t-199.5 -274.5t-168.5 -355.5q-6 -13 -6 -23t5 -17z " />
<glyph unicode="D" horiz-adv-x="1857" d="M-63 182q0 106 78 190.5t214 84.5q81 0 151 -33t161 -107q19 -17 37 -17q23 0 43 30q63 101 122 248l246 614q38 93 103.5 160.5t142.5 87.5q26 8 45.5 -3.5t26.5 -39.5q11 -35 5 -52t-38 -40q-80 -58 -131 -183l-254 -628q-73 -177 -141 -273q-19 -26 -15.5 -45.5 t29.5 -38.5q132 -98 252 -98q99 0 198.5 57t180.5 155t144.5 220.5t98.5 262.5t35 272q0 121 -31 223.5t-90 179.5t-153 120.5t-213 43.5q-135 0 -253 -58t-194 -146.5t-119 -190t-43 -193.5q0 -60 19 -123q8 -28 8 -49q0 -12 -3 -21q-8 -24 -46 -53q-29 -20 -54.5 -12.5 t-37.5 39.5q-35 103 -35 213q0 153 64 290.5t169.5 233.5t246 152.5t290.5 56.5q134 0 249.5 -46.5t202 -132.5t136 -219.5t49.5 -297.5q0 -125 -28 -258t-79 -258.5t-126 -237.5t-164 -195.5t-199.5 -132.5t-226.5 -49q-93 0 -170 34t-176 110q-28 22 -49.5 22t-49.5 -22 q-155 -105 -319 -105q-141 0 -225 74.5t-84 183.5zM78 188q0 -53 47.5 -84.5t128.5 -31.5q97 0 184 61q26 18 26 40q0 21 -22 40q-123 104 -221 104q-59 0 -101 -40.5t-42 -88.5z" />
<glyph unicode="E" horiz-adv-x="1249" d="M0 373q0 148 72 277.5t201 207.5q127 78 278 78h4q31 0 40.5 12t2.5 43q-20 74 -20 150q0 131 65 252q17 32 20 53.5t-4 56.5q-18 82 -18 167q0 30 2 61q3 48 45 48q7 0 14 -1q31 -5 43 -19.5t9 -44.5q-1 -11 0 -26q0 -29 2 -70q2 -29 17 -36.5t38 9.5q137 97 305 97 q87 0 157.5 -28t111.5 -74q41 -44 63 -96q21 -49 20 -99q0 -131 -98 -229q-95 -95 -252 -95q-99 0 -186 43.5t-146 120.5q-11 13 -21.5 16.5t-18 -4t-11.5 -24.5q-10 -53 -10 -105q1 -7 1 -14q2 -59 26 -121t69 -109q29 -31 32.5 -51t-13.5 -51q-18 -32 -39.5 -38.5 t-57.5 11.5q-88 47 -186 47q-109 0 -198.5 -58t-138 -152.5t-48.5 -202.5q0 -162 105.5 -276.5t273.5 -114.5q99 0 180.5 40t131 104.5t71.5 144.5q15 54 16 108q0 26 -4 53q-1 10 -1 19q1 30 11 45q14 20 56 32q15 4 27 4q50 0 59 -59q8 -51 9 -101q-1 -80 -23 -154 q-36 -122 -112.5 -207t-188.5 -135t-240 -50q-150 0 -275.5 74t-196.5 199t-71 272zM838 1379q0 -25 18 -46q48 -64 114.5 -100.5t139.5 -36.5q53 0 94.5 17.5t64.5 45t34.5 55.5t11.5 54q0 25 -10.5 50.5t-33 51t-65.5 41t-100 15.5q-143 0 -244 -94q-24 -24 -24 -53z" />
<glyph unicode="F" horiz-adv-x="1384" d="M0 227q0 154 101.5 268t250.5 134q34 5 53 -12t19 -52q0 -43 -14.5 -60t-57.5 -26q-96 -18 -151.5 -94t-55.5 -162q0 -43 15.5 -86t46 -81.5t85.5 -62.5t126 -24q63 0 118 22t97.5 59t82.5 95.5t71 121t65 145.5l104 254q6 15 6 26q0 31 -44 31h-74q-34 0 -34 25 q0 9 5 22q11 25 25.5 35t40.5 10h71q34 0 53 13t31 44l195 484q6 16 6 27q0 30 -43 32q-110 6 -333 58.5t-304 52.5q-86 0 -146 -36.5t-85 -86.5t-25 -105q0 -78 49.5 -128t124.5 -50q55 0 111 31q34 19 53.5 13t42.5 -40q15 -23 15 -42q0 -29 -33 -50q-77 -53 -181 -53 q-138 0 -232.5 95.5t-94.5 225.5q0 65 26.5 129t75.5 117t128 86t175 33q98 0 331 -54.5t341 -54.5q44 0 91.5 15t82.5 41q48 31 94 45q10 2 19 2q40 0 53 -47q5 -21 5 -36q0 -10 -2 -16q-6 -17 -36 -40q-82 -54 -135 -183l-191 -465q-6 -15 -6 -26q0 -31 45 -31h80 q34 0 34 -23q0 -9 -5 -22q-12 -26 -27 -36.5t-41 -10.5h-80q-34 0 -53 -13t-31 -44l-161 -396q-42 -102 -97 -181.5t-111 -128.5t-119 -81t-118.5 -44.5t-111.5 -12.5q-121 0 -216.5 57.5t-145.5 149.5t-50 198z" />
<glyph unicode="G" horiz-adv-x="1546" d="M0 1147q0 122 58 223.5t151 169.5q23 17 44 17q30 0 54 -33q24 -35 21 -57.5t-35 -47.5q-152 -113 -152 -289q0 -117 63 -204t175 -140q19 -9 34 -9q34 0 48 42q51 135 114 259.5t145 242.5t170.5 204t193.5 137q102 50 204 50h8q141 -1 213 -87.5t72 -217.5 q0 -112 -50 -251.5t-157 -258.5q-117 -134 -297 -217.5t-420 -83.5h-36q-34 2 -50.5 -10.5t-23.5 -44.5q-47 -165 -47 -262q0 -79 29 -122.5t87 -43.5q83 0 191 72.5t192 172.5q40 46 58 93l33 77q18 42 42 66t66 37l51 18q34 11 47 -3t0 -46l-202 -496q-9 -23 -0.5 -30 t30.5 6q138 89 255.5 211.5t191.5 253.5q15 26 42.5 22.5t39.5 -27.5q6 -10 6 -23q0 -14 -8 -30q-57 -100 -130.5 -188.5t-152 -155t-151 -115.5t-146.5 -87q-54 -25 -76 -82q-21 -52 -36.5 -88.5t-39.5 -84t-46 -79.5t-52.5 -66.5t-62 -55t-72 -33.5t-84.5 -13 q-91 0 -144 53q-47 46 -47 125q0 10 1 21q13 137 221 231q9 4 73 31.5t105 46.5q56 27 76 82l26 65q7 20 0 25.5t-24 -6.5q-175 -140 -322 -140q-64 0 -110 28t-69.5 76t-33.5 99.5t-10 110.5q0 129 39 282q8 34 -1 52.5t-40 31.5q-342 143 -342 494zM516 -383q0 -25 19 -38 t40 -13q47 0 101.5 51.5t109.5 161.5q11 23 2 33t-32 0q-98 -45 -140 -68q-100 -57 -100 -127zM630 748q10 -13 36 -13h4q189 7 326 71.5t243 182.5q78 91 124 201.5t46 202.5q0 151 -127 151q-70 0 -145 -43.5t-144 -116t-136 -170t-123 -204t-103 -219.5q-6 -14 -6 -25 q0 -10 5 -18z" />
<glyph unicode="H" horiz-adv-x="1849" d="M0 301q0 161 114.5 257.5t291.5 96.5q147 0 317 -73q17 -7 30 -7q32 0 48 39l291 723q5 15 5 25q0 31 -44 31h-7q-110 0 -284 28q-180 29 -242 29q-74 0 -130 -20t-87 -54.5t-46 -74t-15 -84.5q0 -90 53.5 -139.5t122.5 -49.5q56 0 112 35q31 17 48.5 13t37.5 -34l7 -10 q17 -25 12.5 -49t-29.5 -41q-83 -53 -180 -53q-140 0 -234 95t-94 233q0 70 26.5 134.5t77 117.5t134 84.5t188.5 31.5q72 0 268 -31q145 -23 242 -23q35 0 64 3q94 10 164 65q50 41 106 56q10 3 20 3q14 0 25 -6q19 -10 27 -36q10 -38 4 -55t-37 -39q-85 -63 -135 -185 l-330 -805q-12 -31 -5 -51t36 -37q18 -10 98.5 -56t122.5 -69q18 -10 33 -10q29 0 45 37l430 1065q17 41 43 58.5t70 17.5h16q40 0 53 -19.5t-2 -56.5l-457 -1128q-12 -26 -2 -43.5t41 -20.5q21 -3 42 -3q98 0 172 60q88 72 196 269q18 34 53 21q29 -12 34 -43q1 -4 1 -8 q0 -14 -8 -28q-30 -52 -55 -93.5t-52.5 -81t-52.5 -69.5t-53 -57t-56 -44.5t-59 -31.5q-31 -12 -64 -18q-30 -5 -64 -6h-6q-38 0 -79 8q-34 6 -52.5 -3.5t-31.5 -41.5l-137 -342q-9 -22 -21 -30q-6 -4 -13 -4q-6 0 -12 3q-13 7 -24 27l-24 43q-22 38 -24 72v6q0 32 16 70 l90 221q12 31 4 50t-37 34q-110 54 -229 118q-20 12 -37 12q-29 0 -50 -34q-185 -322 -473 -322q-156 0 -257 94.5t-101 233.5zM147 309q0 -82 61.5 -136t156.5 -54q192 0 327 252q10 20 10 35q0 29 -36 45q-150 65 -271 65q-117 0 -182.5 -59t-65.5 -148z" />
<glyph unicode="I" horiz-adv-x="1138" d="M-125 227q0 152 100 266t248 136q34 5 53 -12t19 -52q0 -42 -15 -59.5t-57 -26.5q-94 -18 -148.5 -93.5t-54.5 -164.5q0 -45 15.5 -87.5t46 -80.5t84.5 -61t123 -23q77 0 141.5 31.5t116.5 94.5t92 137.5t82 179.5l358 891q9 23 0 32t-32 0q-24 -10 -83.5 -32.5 t-95 -36.5t-93 -40.5t-93 -48.5t-79 -55.5t-68 -66.5t-41.5 -76t-17 -90q0 -64 25.5 -112.5t75.5 -69.5q45 -20 57 -39t12 -70q-3 -28 -22 -40t-50 -5q-115 25 -182 119q-65 92 -65 204v7q0 69 22.5 131.5t57 109.5t90.5 92t107.5 76t125 64.5t126.5 54t128.5 49.5t114.5 45 q64 26 112 86q85 102 183 127q10 2 19 2q39 0 52 -47q6 -22 6 -37q0 -9 -2 -15q-6 -17 -36 -40q-84 -55 -136 -182l-460 -1129q-43 -104 -99 -184.5t-111.5 -129t-117.5 -80t-115.5 -43t-107.5 -11.5q-121 0 -216.5 57.5t-145.5 149.5t-50 198z" />
<glyph unicode="J" horiz-adv-x="1058" d="M-272 -313q0 61 22.5 114.5t59 94.5t93.5 77.5t113.5 62t131.5 49.5t136.5 39t139.5 32q33 8 51.5 23.5t30.5 45.5l412 1022q9 24 -0.5 33t-32.5 0q-227 -99 -308 -142q-283 -150 -337 -318q-13 -41 -13 -85q0 -78 39.5 -136t110.5 -79q43 -14 57.5 -32t14.5 -62 q0 -34 -19 -49.5t-53 -9.5q-138 23 -219 127q-78 100 -78 244v7q0 59 18 115t48.5 103.5t76 93.5t94.5 83t110.5 74t117.5 65.5t121.5 57.5t116.5 50t109 44q40 16 58 23q61 23 109 80q81 98 172 121q10 3 20 3q14 0 25 -6q19 -11 27 -36q7 -25 7 -40q0 -9 -2 -14 q-6 -17 -38 -40q-79 -53 -129 -168l-432 -1069q-9 -23 0 -32.5t34 -0.5q89 40 158 92t107.5 97.5t74.5 103.5q17 26 44.5 22.5t38.5 -27t-3 -53.5q-47 -80 -86 -132t-94.5 -101t-127 -86.5t-171.5 -71.5q-33 -11 -50.5 -27.5t-29.5 -48.5q-69 -168 -138.5 -283 t-143.5 -183.5t-150 -98.5t-166 -30q-70 0 -131.5 27t-104 88.5t-42.5 146.5zM-123 -311q0 -52 35.5 -85.5t95.5 -33.5q114 0 206.5 98t186.5 303q6 13 6 23q0 8 -5 13q-6 7 -19 7q-7 0 -16 -2q-79 -19 -138.5 -36t-130 -46t-115.5 -61t-75.5 -78.5t-30.5 -101.5z" />
<glyph unicode="K" horiz-adv-x="1626" d="M-123 227q0 152 100 266t248 136q34 5 53 -12t19 -52q0 -42 -15 -59.5t-57 -26.5q-92 -18 -147 -93.5t-55 -164.5q0 -45 15.5 -87.5t46 -80.5t84.5 -61t124 -23q76 0 140 31.5t116 94.5t92.5 138t81.5 179l334 833q9 25 -0.5 34.5t-34.5 0.5q-29 -11 -80.5 -28 t-89.5 -29.5t-89.5 -33t-88 -40t-76 -47.5t-64 -58.5t-40 -71t-15.5 -85.5q0 -62 26 -110.5t75 -69.5q43 -20 55 -38t14 -61q0 -33 -19 -47.5t-52 -7.5q-114 25 -182 119q-66 92 -66 204v7q0 69 21 129t54 103.5t85.5 83.5t103 66.5t119 54.5t121.5 45t123 40t112 39 q71 26 117 86q85 101 182 127q26 6 45 -5t27 -36q10 -39 4 -55.5t-37 -40.5q-81 -56 -133 -183l-232 -565q-6 -15 -6 -27q0 -32 45 -36q24 -2 48 -3q119 0 203 65q101 77 175 269l146 363q58 151 151 215q75 52 188 52q26 0 54 -3q51 -8 51 -51q0 -9 -2 -19 q-9 -36 -26.5 -49.5t-53.5 -13.5h-7q-61 0 -104 -34q-46 -36 -89 -142l-121 -297q-150 -385 -412 -467q-26 -9 -29.5 -22t15.5 -33q43 -47 60 -118q14 -60 15 -111q0 -9 -1 -18q-3 -58 -15 -134l-65 -369q-9 -45 -9 -79q0 -25 5 -44q12 -44 55 -57q51 -17 65.5 -36.5 t16.5 -72.5q0 -38 -22 -56q-17 -14 -42 -14q-8 0 -18 1q-123 20 -181 125q-38 70 -38 161q0 46 10 97l55 299q23 118 23 204q0 47 -7 85q-19 107 -94 169q-16 13 -36 23.5t-44.5 10t-35.5 -22.5l-125 -312q-42 -104 -97.5 -184.5t-111 -129t-118 -80t-115.5 -43t-107 -11.5 q-122 0 -218 57.5t-146 149.5t-50 198z" />
<glyph unicode="L" horiz-adv-x="1443" d="M-133 115q0 106 80 190t213 84q132 0 254 -82q18 -13 33 -13q24 0 40 34q67 154 101 243q12 31 4 49.5t-39 30.5q-93 35 -161.5 90t-105.5 119.5t-54 127.5t-17 128q0 127 59 239t150 183q24 19 46 19q28 0 52 -33t24 -54q0 -24 -34 -55q-156 -131 -156 -307 q0 -104 67.5 -192t170.5 -132q19 -8 34 -8q35 0 52 43q55 140 102.5 247t103.5 214t112.5 182t121 134t137 88.5t152.5 29.5q67 0 120.5 -20.5t86 -52.5t54 -74t30 -80.5t8.5 -75.5q0 -120 -56 -259.5t-169 -260.5q-254 -267 -635 -283q-33 0 -51.5 -13t-30.5 -44 q-87 -226 -143 -340q-15 -29 -11.5 -50t27.5 -44q35 -34 122.5 -120t147 -141t119.5 -102q162 -125 275 -125q100 0 215 92q33 26 57 26h4q26 -2 55 -36l2 -2q25 -27 25 -53q0 -31 -35 -59q-168 -134 -319 -134q-167 0 -375 162q-109 84 -385 348q-25 24 -44 24t-46 -24 q-120 -108 -287 -118h-18q-119 0 -199 72q-86 78 -86 188zM18 125q0 -50 36.5 -87.5t101.5 -37.5q95 0 178 86q19 22 19 43q0 25 -27 47q-91 70 -162 70q-69 0 -107.5 -37t-38.5 -84zM858 797q-4 -12 -4 -22q0 -11 6 -19q9 -12 29 -12q5 0 10 1q251 31 447 234 q85 94 134.5 202t49.5 203q0 70 -33 112t-96 42q-260 0 -543 -741z" />
<glyph unicode="M" horiz-adv-x="1900" d="M0 893q0 71 23.5 135t60.5 112.5t95 94.5t115 78t134 67t137.5 58.5t140 54.5t128.5 53q29 12 51 12q9 0 17 -2q26 -8 52 -45l29 -41q19 -28 37.5 -31t44.5 17q134 107 258 107q69 0 117.5 -33.5t60.5 -93.5q5 -28 20 -28q10 0 25 13q155 142 303 142q80 0 130.5 -43.5 t50.5 -120.5q0 -89 -78 -285l-449 -1110q-25 -62 -24 -112q0 -59 34 -101q35 -41 41 -67q1 -6 1 -13q0 -24 -15 -63q-14 -36 -40 -44q-6 -2 -12 -2q-21 0 -46 19q-134 103 -134 257q0 85 40 185l409 1014q10 25 25.5 63.5t24.5 62t19 50t14.5 45.5t4.5 31q0 20 -3 32.5 t-17.5 23t-42.5 10.5q-53 0 -129 -40t-146 -104q-42 -38 -61 -88l-449 -1114q-17 -41 -42.5 -58.5t-69.5 -17.5h-15q-40 0 -53 19.5t2 56.5l412 1028q9 22 26 63.5t25.5 62.5t19 49t15 46.5t4.5 30.5q0 31 -13 48.5t-53 17.5q-54 0 -131.5 -41t-144.5 -105q-41 -37 -61 -90 l-447 -1110q-17 -41 -43 -58.5t-70 -17.5h-14q-40 0 -53 19.5t2 56.5l518 1292q9 23 -0.5 32t-32.5 -1q-36 -16 -96.5 -40t-105.5 -41.5t-103.5 -44t-101 -50.5t-86.5 -57.5t-72 -67.5t-45.5 -78t-17.5 -92q0 -64 25 -112.5t73 -69.5q46 -22 58.5 -40.5t12.5 -68.5 q-3 -29 -21.5 -41.5t-49.5 -5.5q-114 25 -182 119q-66 91 -66 204v7z" />
<glyph unicode="N" horiz-adv-x="1437" d="M0 893q0 71 23.5 135t60.5 112.5t95 94.5t115 78t134 67t137.5 58.5t140 54.5t128.5 53q23 10 40 10q41 0 56 -55l35 -112q9 -36 30 -36q14 0 33 15q240 195 377 195q69 0 116.5 -44t47.5 -120q0 -84 -80 -285l-445 -1110q-25 -63 -25 -113q0 -59 34 -100q35 -41 40 -67 q1 -5 1 -12q0 -25 -15 -64q-13 -36 -39 -44q-6 -2 -13 -2q-21 0 -44 19q-134 103 -134 257q0 85 40 185l407 1014q90 228 90 252q0 66 -53 66q-63 0 -181 -75.5t-214 -168.5q-41 -41 -61 -92l-406 -1010q-17 -41 -43 -58.5t-70 -17.5h-14q-40 0 -53 19.5t2 56.5l512 1278 q9 25 -0.5 34.5t-34.5 0.5q-22 -8 -74 -27t-82 -30t-81.5 -31.5t-83.5 -36.5t-76.5 -40t-73 -46t-59.5 -51.5t-49 -59t-29.5 -65.5t-11.5 -74q0 -64 25 -112.5t73 -69.5q47 -22 59 -40t12 -69q-3 -29 -21.5 -41.5t-49.5 -5.5q-114 25 -182 119q-66 91 -66 204v7z" />
<glyph unicode="O" horiz-adv-x="1378" d="M2 260q0 149 49.5 337t133 367t205 334.5t253.5 233.5q52 31 102 76q107 96 240 96q145 0 229 -111t84 -293q0 -192 -59.5 -416.5t-165.5 -439.5q-12 -25 -2.5 -42.5t37.5 -20.5q18 -2 36 -2q35 0 68 9q50 14 87 42.5t61.5 56.5t42.5 58q16 25 43.5 20.5t39.5 -27.5 q5 -10 5 -22q0 -14 -8 -29q-77 -119 -196 -169q-86 -36 -171 -36q-33 0 -65 5q-34 5 -51.5 -3.5t-36.5 -37.5q-127 -199 -278.5 -314.5t-315.5 -115.5q-94 0 -166 35t-115 96.5t-64.5 140.5t-21.5 172zM170 242q0 -54 10 -101.5t32 -90.5t64 -68t99 -25q102 0 214.5 95.5 t211.5 254.5q20 31 17 51t-30 45q-25 23 -49 50t-54.5 71.5t-55 94t-46 118t-31.5 142.5q-9 65 -10 145v24q2 94 19 195q4 22 -4 25.5t-22 -13.5q-136 -185 -250.5 -497.5t-114.5 -515.5zM688 999q0 -149 41 -274t117 -211q18 -21 36 -21l4 1q20 2 32 30q97 200 156 421 t59 335q0 134 -47.5 194t-127.5 60q-77 0 -140 -76.5t-96.5 -198t-33.5 -260.5z" />
<glyph unicode="P" horiz-adv-x="1298" d="M2 1014q0 141 58.5 274.5t159 234.5t243.5 162.5t301 61.5q174 0 320.5 -76.5t233.5 -214t87 -305.5q0 -151 -66.5 -292.5t-182.5 -236.5q-116 -96 -273 -124q-43 -8 -88 -7q-119 0 -250 54q-31 12 -49.5 4t-30.5 -39l-184 -461q-17 -41 -43 -58.5t-70 -17.5h-14 q-40 0 -53.5 19.5t1.5 56.5l473 1174q37 92 103 159.5t143 87.5q26 7 45 -3t27 -35q10 -39 4.5 -56t-35.5 -41q-84 -59 -135 -182l-168 -414q-7 -17 -7 -31q0 -34 42 -49q96 -33 179 -33q45 0 87 10q120 28 204 107.5t129.5 185.5t45.5 212q0 124 -58.5 230t-169.5 171.5 t-251 65.5q-111 0 -211.5 -38.5t-172 -100.5t-124.5 -139t-79 -156t-26 -150q0 -54 21 -127q9 -27 9 -47q-1 -11 -3 -19q-8 -24 -43 -51q-28 -20 -52 -13.5t-36 38.5q-41 96 -41 209z" />
<glyph unicode="Q" horiz-adv-x="1314" d="M-72 100q0 110 84 190.5t217 80.5q179 0 392 -164q21 -18 41 -18q25 0 47 26q179 195 294 482t115 495q0 56 -9 107t-30 98.5t-53 82t-81 55.5t-111 21q-93 0 -184 -45.5t-161.5 -119.5t-125.5 -164t-84 -183t-29 -172q0 -103 37 -163t116 -88q38 -13 47.5 -34t-4.5 -59 q-21 -54 -65 -54q-14 0 -29 5q-264 81 -264 389q0 155 62 307.5t164 269t243 189t289 72.5q101 0 180.5 -32t127.5 -83t79.5 -121t43 -138.5t11.5 -143.5q0 -259 -126.5 -566t-332.5 -518q-23 -24 -22.5 -43t24.5 -43q214 -201 316 -280q78 -61 142.5 -93t129.5 -32 q102 0 217 92q32 25 56 25h6q26 -3 55 -37q26 -30 26 -58q0 -31 -34 -59q-165 -129 -320 -129q-161 0 -372 160q-110 79 -357 305q-27 24 -48 26t-52 -16q-156 -86 -330 -86q-90 0 -157.5 23t-105.5 62t-56.5 84t-18.5 95zM76 102q0 -49 43 -85.5t145 -36.5q107 0 219 61 q28 13 28 34q0 18 -22 36q-133 110 -256 110q-72 0 -114.5 -34.5t-42.5 -84.5z" />
<glyph unicode="R" horiz-adv-x="1288" d="M2 1014q0 141 59 274.5t160 234.5t246.5 162.5t308.5 61.5q127 0 240 -36.5t200 -105t138 -175t51 -236.5q0 -146 -54.5 -274t-158 -217t-238.5 -115q-32 -5 -32 -21q0 -11 16 -26q72 -80 73 -230q0 -69 -16 -153l-67 -369q-8 -40 -8 -72q0 -96 67 -123q45 -21 59 -39 t15 -63q0 -34 -20 -50q-15 -12 -37 -13q-8 0 -17 2q-124 19 -183 123q-40 70 -40 163q0 46 10 97l55 299q25 141 25 227q0 22 -2 41q-6 71 -29 111q-46 80 -170 120q-8 2 -69 27q-16 7 -29 7q-32 0 -49 -40l-225 -557q-17 -41 -43 -58.5t-70 -17.5h-14q-40 0 -53.5 19.5 t1.5 56.5l473 1174q37 92 103 159.5t143 87.5q26 7 45 -3t27 -35q10 -38 4 -56t-37 -41q-82 -56 -133 -182l-133 -326q-7 -17 -7 -30q0 -34 42 -49q105 -38 193 -38q36 0 68 6q114 21 191 96.5t117.5 176t40.5 207.5q0 182 -132.5 297t-336.5 115q-114 0 -216 -38.5 t-174.5 -100.5t-126.5 -139t-80 -156t-26 -150q0 -54 21 -127q9 -27 9 -47q-1 -11 -3 -19q-8 -24 -43 -51q-28 -20 -52 -13.5t-36 38.5q-41 96 -41 209z" />
<glyph unicode="S" horiz-adv-x="1304" d="M-86 -424q-1 18 -1 35q0 190 128 383q20 29 20.5 50t-18.5 52q-84 139 -84 310q0 84 21 160.5t58.5 136.5t88 109t110.5 80.5t125 47.5q58 15 118 15h15q68 -2 132 -23q46 -15 46 -53q0 -15 -7 -33q-17 -38 -38 -49t-59 -2q-44 9 -86 9q-47 0 -91 -12q-84 -22 -144 -76 t-95.5 -135.5t-35.5 -174.5q0 -95 35 -179q11 -28 30 -32t41 18q60 61 161.5 160.5t258 251t242.5 235.5q25 23 33.5 47t3.5 58q-25 186 -25 297q0 225 91 350t249 125q124 0 195 -73t71 -189q0 -48 -12 -94.5t-40.5 -95t-54 -85.5t-76 -91t-81 -84.5t-92.5 -90.5 q-37 -35 -37 -82q0 -11 2 -23q41 -281 41 -380q0 -280 -163.5 -456.5t-424.5 -176.5q-193 0 -352 102q-26 17 -44.5 12.5t-35.5 -30.5q-91 -147 -90 -299v-25q1 -34 -12 -47.5t-47 -13.5h-4q-63 0 -66 61zM307 113q-20 -20 -20 -38q0 -21 28 -38q108 -64 232 -64 q194 0 317 125.5t123 343.5q0 77 -22 242q-5 28 -20 33t-34 -15zM1065 1272q0 -61 10 -156q3 -28 17 -33q3 -1 6 -1q12 0 28 16q127 122 184.5 202.5t57.5 159.5q0 61 -31 97t-82 36q-74 0 -132 -79t-58 -242z" />
<glyph unicode="T" horiz-adv-x="1228" d="M0 336q0 153 100.5 266t247.5 135q34 5 53 -11.5t19 -51.5q0 -42 -15 -59.5t-57 -26.5q-93 -18 -148 -94.5t-55 -165.5q0 -42 15.5 -84t46.5 -80t85 -62t124 -24q77 0 142.5 32t118 94.5t93.5 137.5t82 178l352 873q6 15 6 28q0 33 -43 41q-48 10 -143 31.5t-148 32.5 t-124.5 25t-125 20t-96.5 6q-79 0 -135.5 -21t-85 -55.5t-41 -70.5t-12.5 -74q0 -80 50 -129t124 -49q56 0 107 30q35 19 55 14t45 -40q14 -21 14 -40q0 -29 -33 -52q-78 -54 -180 -54q-138 0 -232.5 95.5t-94.5 230.5q0 65 24.5 126.5t73.5 115t134 86t194 32.5 q99 0 259 -29.5t303.5 -64.5t311 -64.5t279.5 -29.5q113 0 198 35q32 14 49.5 13t49.5 -19q17 -11 22 -31q2 -6 2 -12q0 -13 -8 -23q-71 -108 -303 -108q-101 0 -248 20q-34 5 -53 -5.5t-31 -41.5l-401 -983q-51 -126 -121 -217.5t-145.5 -140t-146.5 -70t-142 -21.5 q-121 0 -216.5 58t-145.5 150t-50 198z" />
<glyph unicode="U" horiz-adv-x="1624" d="M0 786q0 69 22.5 131t56.5 109t90.5 92.5t108 76t126 65t126.5 55t128.5 49.5t115.5 45q64 27 115 84q77 94 166 117q10 3 20 3q15 -1 25 -7q18 -10 26 -35q11 -38 5.5 -55.5t-37.5 -38.5q-82 -61 -136 -191l-372 -924q-49 -118 -49 -187q0 -60 37 -85q19 -12 42 -12 q51 0 112 35.5t117 90.5t113.5 126.5t101.5 137.5t81 130q21 32 49 96l287 717q17 41 42.5 58.5t69.5 17.5h15q40 0 53 -19.5t-2 -56.5l-434 -1083q-46 -114 -46 -172q0 -60 50 -60q80 0 195 128t229 321q16 25 43.5 21.5t39.5 -26.5q5 -10 5 -22q0 -14 -8 -31 q-295 -514 -539 -514q-74 0 -122.5 45.5t-51.5 141.5q-1 23 -11.5 26t-25.5 -14q-220 -250 -395 -250q-31 0 -60 7t-57 25t-48.5 45.5t-32.5 71.5q-10 39 -10 87v13q2 56 21 134t56 170l292 729q9 23 0 32.5t-32 0.5q-26 -11 -82 -33t-93 -37t-92 -41t-92 -48.5t-79 -55 t-67 -65.5t-41.5 -75.5t-16.5 -88.5q0 -64 25.5 -113t74.5 -70q46 -20 57.5 -38.5t11.5 -69.5q-3 -28 -22 -40t-49 -5q-114 24 -182 118q-66 91 -66 204v7z" />
<glyph unicode="V" horiz-adv-x="1527" d="M0 836q0 54 14 104t36 91t58.5 79.5t73 68t87.5 60t94 51.5t101 46t100 41t99.5 38t90.5 35q40 18 65.5 36.5t52.5 51.5q75 91 179 117q26 7 44.5 -4t26.5 -37q10 -37 4 -52t-39 -34q-98 -50 -126 -180l-248 -1117q-4 -25 6.5 -31t30.5 9q128 96 235 206t181.5 213 t135 218t97 211.5t64 203t40.5 183t23 160.5q4 43 24.5 64t65.5 30q12 2 22 2q50 0 50 -57v-11q-7 -73 -14.5 -135.5t-25.5 -157t-41.5 -177.5t-63 -188.5t-89 -198.5t-121.5 -198t-157.5 -198t-200 -188t-246.5 -177q-68 -41 -147 -41h-11q-66 0 -66 54q0 12 3 26l264 1207 q6 27 -5 36t-36 -2q-27 -12 -81 -32.5t-94.5 -36.5t-95.5 -41t-95 -48.5t-83 -56.5t-70 -67t-44.5 -78t-17.5 -92q0 -63 25.5 -112.5t74.5 -70.5q46 -22 57.5 -39.5t11.5 -68.5q-3 -28 -22 -40t-49 -5q-114 24 -182 118q-66 92 -66 205v7z" />
<glyph unicode="W" horiz-adv-x="1859" d="M0 836q0 61 16 116.5t48.5 101.5t70.5 85t92.5 74t102.5 62t113.5 54.5t113 46t112.5 43t101 39.5q71 28 119 84q72 88 164 113q26 7 44.5 -3.5t26.5 -35.5q10 -38 4.5 -55.5t-36.5 -40.5q-86 -64 -138 -187l-401 -1011q-27 -68 -37 -119q-8 -38 -9 -64q-1 -8 1 -15 q4 -28 17 -44.5t26.5 -21.5t30.5 -5q91 0 191 111.5t179 294.5l383 952q17 41 43 58.5t70 17.5h16q40 0 53.5 -19.5t-1.5 -56.5l-435 -1089q-27 -68 -39 -119q-10 -43 -10 -70v-9q2 -28 15 -44.5t28 -21.5t35 -5q96 0 200 120.5t173 289.5l387 958q54 139 148 199 q77 49 187 49q24 0 50 -2q51 -5 51 -51q0 -9 -2 -19q-9 -36 -26.5 -49.5t-53.5 -13.5h-7q-59 0 -103 -32q-46 -34 -86 -130l-330 -817q-26 -66 -51 -121t-61 -122.5t-72 -120t-84 -104.5t-98 -86t-112 -55.5t-128 -21.5q-141 0 -189 99q-14 26 -27 29.5t-36 -15.5 q-133 -113 -269 -113q-56 0 -99.5 15.5t-75.5 55t-42 100.5q-4 21 -4 47q0 48 12 112q18 98 70 223l311 776q9 23 0 32.5t-32 0.5q-26 -11 -82 -33t-93 -37t-92 -41t-91.5 -48.5t-78 -55t-66.5 -65.5t-41.5 -75.5t-16.5 -88.5q0 -63 25.5 -112.5t74.5 -70.5 q46 -22 57.5 -39.5t11.5 -68.5q-3 -28 -22 -40t-49 -5q-114 24 -182 118q-66 92 -66 205v7z" />
<glyph unicode="X" horiz-adv-x="1458" d="M-82 -14q0 55 19 112t55.5 109t97 89.5t135.5 49.5q34 6 52 -9.5t18 -49.5q0 -41 -13.5 -58t-56.5 -32q-67 -22 -113 -76t-46 -131q0 -49 17 -84.5t45 -54t56 -27t56 -8.5q53 0 113 31t105.5 71t91 91.5t64.5 77.5t31 44l297 420q31 46 31 103v10l-39 653q-2 45 -34 45 q-11 0 -26 -6q-25 -10 -81.5 -32t-94.5 -37t-95 -41.5t-96 -49.5t-83 -57t-70.5 -68t-44.5 -78t-18 -92q0 -61 25.5 -110t74.5 -70q43 -20 56 -38t14 -60v-11q-3 -28 -22 -40t-50 -5q-115 25 -183 119q-66 92 -65 204v7q0 54 14 104t36.5 91t59 80t73 68.5t88 60t94 52 t101 46.5t100 40.5t99.5 38t91 35.5q73 27 123 86q87 90 176 115q11 4 21 4q13 0 24 -6q20 -10 27 -35l2 -8q9 -32 1.5 -50t-36.5 -38q-61 -39 -103 -97q-39 -53 -38 -121v-13l30 -478q1 -24 13.5 -27.5t25.5 15.5l490 692q128 181 303 181q65 0 135 -25q42 -12 42 -43 q0 -14 -9 -33l-2 -4q-15 -31 -35 -40.5t-53 -0.5q-29 8 -56 8q-33 1 -62 -11q-53 -20 -114 -109l-622 -879q-31 -44 -31 -101v-10l45 -723q11 -174 117 -184q56 -8 73.5 -23.5t26.5 -66.5q6 -35 -11 -57t-54 -25q-13 -1 -26 -1q-44 -1 -84 13q-52 18 -96 59.5t-72.5 117 t-35.5 178.5l-33 506q-1 25 -13 27.5t-25 -17.5q-174 -246 -229 -316q-157 -198 -292 -264q-88 -43 -182 -43q-147 0 -243.5 91t-96.5 229z" />
<glyph unicode="Y" horiz-adv-x="1564" d="M-2 786q0 69 22.5 131.5t57.5 109.5t91 92.5t108 76t125.5 64.5t127 54.5t128.5 49.5t114 45q70 29 119 86q79 92 166 115q10 3 20 3q13 0 25 -7q18 -10 26 -35q11 -38 5.5 -55.5t-37.5 -38.5q-87 -64 -138 -191l-370 -924q-27 -69 -38 -122q-10 -45 -10 -74v-9 q2 -30 13.5 -48.5t25.5 -24.5t31 -6q67 0 155 62t166.5 152.5t144 187t98.5 171.5l307 760q17 41 42.5 58.5t69.5 17.5h15q40 0 53 -19.5t-2 -56.5l-520 -1290q-9 -23 0.5 -31t29.5 4q131 83 239.5 203t180.5 248q15 26 42.5 22.5t39.5 -27.5q6 -10 6 -23q0 -14 -8 -30 q-107 -184 -256.5 -322.5t-304.5 -219.5q-30 -18 -46 -36t-28 -48q-30 -75 -52.5 -125t-59.5 -111.5t-74.5 -98t-91 -62t-115.5 -25.5q-92 0 -145 53q-46 46 -46 124q0 11 1 22q13 137 221 231q17 9 79.5 35t98.5 43q56 27 76 82l43 104q6 18 -0.5 22t-18.5 -10 q-99 -103 -198 -163t-183 -60q-40 0 -76 14t-67.5 53t-43.5 99q-5 24 -5 56q0 45 10 104q17 100 68 227l295 729q9 25 -0.5 34t-34.5 -1q-21 -9 -65.5 -25.5t-74 -28t-74.5 -30.5t-76.5 -35t-71.5 -39t-67.5 -44.5t-56 -50t-45.5 -57t-28 -64t-11 -72.5q0 -62 26.5 -111 t76.5 -70q46 -20 57.5 -38t11.5 -68q-3 -29 -21.5 -41.5t-49.5 -5.5q-115 24 -182 118q-66 91 -66 204v7zM555 -383q0 -25 18.5 -38t40.5 -13q47 0 101.5 51.5t109.5 161.5q6 13 6 21t-4 12q-5 5 -13 5t-19 -5q-98 -45 -140 -68q-100 -57 -100 -127z" />
<glyph unicode="Z" horiz-adv-x="1181" d="M-154 115q0 113 82 196.5t207 83.5q80 0 144.5 -27t138.5 -79q26 -20 46 -17.5t40 27.5q34 42 119 156l690 911q17 22 10 35.5t-35 15.5q-100 9 -311.5 59t-292.5 50q-65 0 -116 -20.5t-81 -54.5t-45.5 -73t-15.5 -80q0 -78 49.5 -128t126.5 -50q53 0 109 31q34 19 53 14 t41 -37l2 -4q14 -22 14 -41q0 -29 -33 -51q-73 -53 -178 -53q-146 0 -236.5 93.5t-90.5 227.5q0 65 26 129t75 117t127.5 86t174.5 33q98 0 331.5 -54.5t340.5 -54.5q91 0 166 52q49 37 104 49q26 6 45 -5.5t25 -37.5q6 -21 6 -36q0 -10 -2 -17q-6 -18 -37 -37 q-27 -18 -53.5 -48t-79.5 -100l-623 -821l-280 -367q-20 -26 -18.5 -47.5t26.5 -44.5q22 -21 90 -88t99.5 -97t84 -76.5t95.5 -80.5q78 -61 142 -93t128 -32q102 0 217 92q33 26 58 26h3q26 -2 58 -36l2 -2q24 -28 24 -54q0 -31 -34 -58q-167 -131 -320 -134 q-162 0 -375 162q-48 36 -105 86t-91.5 82.5t-100 96t-82.5 79.5q-25 23 -46.5 23.5t-47.5 -21.5q-135 -113 -291 -116h-3q-124 0 -210 76q-86 77 -86 184zM-2 125q0 -53 42 -93q37 -35 90 -35q8 0 17 1q85 7 170 84q24 21 24 42t-24 42q-100 84 -186 84q-56 0 -94.5 -38 t-38.5 -87z" />
<glyph unicode="[" horiz-adv-x="751" d="M-178 -244l792 1962q17 41 43 58.5t70 17.5h250q67 0 43 -65q-15 -37 -37.5 -52.5t-60.5 -15.5h-91q-33 0 -52 -13t-31 -44l-701 -1733q-22 -57 39 -57h92q68 0 43 -66q-15 -37 -37.5 -52t-60.5 -15h-250q-82 0 -51 75z" />
<glyph unicode="\" horiz-adv-x="747" d="M150 1663q-6 49 43 49h4q26 0 39 -11.5t16 -37.5l244 -1868q6 -49 -43 -49h-4q-26 0 -39.5 11.5t-16.5 37.5z" />
<glyph unicode="]" horiz-adv-x="749" d="M-98 -254q15 37 37.5 52.5t60.5 15.5h90q34 0 53 13t31 44l700 1733q22 57 -38 57h-93q-67 0 -43 65q15 37 38 52.5t61 15.5h250q40 0 53 -19.5t-2 -56.5l-793 -1962q-17 -41 -42.5 -58t-69.5 -17h-250q-67 0 -43 65z" />
<glyph unicode="^" horiz-adv-x="985" d="M38 638.5q-9 17.5 13 45.5l596 721q27 35 57.5 49t75.5 14h23q43 0 62.5 -19.5t19.5 -62.5v-692q0 -38 -18 -55.5t-56 -17.5h-4q-38 0 -56 17.5t-18 55.5v520q0 25 -12 29.5t-27 -14.5l-442 -545q-28 -34 -58.5 -48.5t-74.5 -14.5h-37q-35 0 -44 17.5z" />
<glyph unicode="_" horiz-adv-x="1067" d="M-188 -166q12 29 30 41t49 12h955q55 0 35 -57q-12 -29 -30.5 -41t-49.5 -12h-955q-54 0 -34 57z" />
<glyph unicode="`" horiz-adv-x="757" d="M271.5 1446.5q5.5 15.5 39.5 15.5h41q45 0 75.5 -14t59.5 -49l136 -160q17 -20 11 -32.5t-32 -12.5h-4q-60 0 -104 39l-203 176q-25 22 -19.5 37.5z" />
<glyph unicode="a" d="M-51 190q0 57 16.5 143t46.5 187.5t78 202t104.5 182.5t131.5 133.5t155 51.5q119 0 170 -109q15 -31 32 -36t48 13l107 64q28 15 39.5 4.5t-0.5 -39.5l-256 -635q-54 -132 -53.5 -198t53.5 -66q77 0 188 129.5t227 327.5q16 26 44 23q26 -4 38 -28q5 -11 6 -22 q0 -15 -8 -31q-51 -89 -97.5 -159t-102 -139t-107.5 -114.5t-111.5 -73.5t-117.5 -28q-124 0 -160 105q-8 25 -19 27.5t-30 -17.5q-115 -115 -236 -115q-90 0 -138 60t-48 157zM117 211q0 -86 67 -86q92 0 211 149q34 49 51 91l152 374q12 32 12 63q0 18 -4 36 q-22 98 -96 98q-58 0 -118.5 -58.5t-108 -147.5t-86 -189t-59.5 -189t-21 -141z" />
<glyph unicode="b" horiz-adv-x="925" d="M-32 148q-7 35 -7 76q0 169 111 454l288 715q17 41 43 58t70 17h14q40 0 53.5 -19t-1.5 -56l-144 -355q-8 -19 0 -24.5t25 6.5q93 70 174 70q188 0 188 -230q0 -97 -37 -242t-122 -303q-12 -23 -3 -36t35 -7q52 12 96.5 38.5t82 70t60.5 76.5t56 88q16 26 44 23 q26 -4 38 -28q5 -11 6 -22q0 -15 -8 -31q-33 -56 -61 -96.5t-68 -83t-83.5 -70t-102.5 -48t-129 -27.5q-37 -3 -57 -12.5t-44 -36.5q-137 -140 -297 -140q-186 0 -220 175zM116 188q2 -42 22 -67t57 -25q54 0 116 56q23 21 23 40q0 22 -29 41q-85 63 -123 152 q-6 13 -13.5 17.5t-14.5 -1t-11 -20.5q-16 -55 -23 -103q-5 -35 -5 -68q0 -11 1 -22zM244 573q0 -162 116 -249q19 -15 38 -15q6 -1 12 1q24 6 39 34q68 128 114.5 275.5t46.5 218.5q0 51 -22.5 74.5t-69.5 23.5q-32 0 -76 -21.5t-89.5 -63t-77 -115t-31.5 -163.5z" />
<glyph unicode="c" horiz-adv-x="821" d="M-33 262q0 114 45.5 256.5t119 270t180.5 214.5t216 87q134 0 184 -102q22 -45 22 -101q0 -73 -36 -166q-30 -74 -110 -74h-17q-56 0 -56 38q0 15 9 36q38 85 48 135q4 21 4 37q0 20 -8 30q-12 17 -44 17q-75 0 -151 -85t-128 -201t-85 -229t-33 -177q0 -70 42.5 -115 t123.5 -45q129 0 282 128.5t271 328.5q16 26 44 23q26 -4 38 -28q5 -11 6 -22q0 -15 -8 -31q-45 -79 -94.5 -148.5t-115 -138.5t-134.5 -117.5t-154.5 -79t-173.5 -30.5q-138 0 -212.5 73t-74.5 216z" />
<glyph unicode="d" d="M-49 190q0 69 22 177t68 233.5t107 235t149 182t184 72.5q119 0 170 -109q12 -22 24 -21.5t21 23.5l166 410q17 41 43 58t70 17h14q60 0 60 -39q0 -15 -9 -36l-419 -1041q-26 -64 -39 -112t-14.5 -76.5t5.5 -46t18 -23.5t27 -6q54 0 128.5 68t145 165.5t144.5 223.5 q16 26 44 23q26 -4 38 -28q5 -11 6 -22q0 -15 -8 -31q-66 -113 -124 -197t-126 -160t-140 -116.5t-144 -40.5q-126 0 -162 105q-8 25 -19 27.5t-30 -17.5q-115 -115 -236 -115q-89 0 -136.5 59.5t-47.5 157.5zM117 211q0 -86 69 -86q95 0 209 149q34 49 51 91l152 374 q12 32 12 63q0 18 -4 36q-22 98 -96 98q-58 0 -118.5 -58.5t-108 -147.5t-86 -189t-59.5 -189t-21 -141z" />
<glyph unicode="e" horiz-adv-x="823" d="M-31 264q0 115 45.5 257.5t119.5 269t181.5 213t219.5 86.5q94 0 148 -56.5t54 -148.5t-55 -209q-39 -79 -88.5 -131.5t-110.5 -78.5q-61 -28 -124 -36q-43 -6 -94 -5q-24 0 -50 1h-6q-50 0 -64 -49q-7 -29 -11.5 -56t-6.5 -62v-13q1 -26 7 -50q8 -28 24 -54t49 -40 t80 -14q141 0 289.5 126t271.5 331q16 26 44 23q26 -4 38 -28q5 -11 6 -22q0 -15 -8 -31q-46 -80 -95.5 -148.5t-115.5 -138t-135 -118t-154.5 -79t-173.5 -30.5q-138 0 -211.5 73t-73.5 218zM215 584q-5 -14 -5 -25q0 -12 6 -20q12 -17 40 -17h14q97 0 156 51 q63 55 109 154q48 100 48 154q0 61 -63 61q-41 0 -82.5 -27.5t-73 -65.5t-63 -91t-50 -92t-36.5 -82z" />
<glyph unicode="f" horiz-adv-x="755" d="M-360 -535q-4 16 -4 37q0 27 6 61q10 60 41 136l616 1530q91 223 183.5 313t197.5 90q74 0 118 -41t52 -123q1 -13 1 -28q0 -74 -34 -178q-40 -126 -121.5 -306.5t-144.5 -293.5q-40 -74 -70 -118t-72 -83.5t-94.5 -60t-124.5 -27.5q-35 -3 -53.5 -17.5t-32.5 -48.5 l-6 -12q-11 -26 -3.5 -49.5t32.5 -36.5q60 -31 129 -31q164 0 290.5 89.5t233.5 277.5q15 26 42 22.5t39 -27.5q6 -11 6 -24t-7 -29q-224 -405 -598 -413q-34 0 -46.5 -13t-12.5 -47q0 -2 -2 -23.5t-4 -33.5q-37 -201 -138 -391q-57 -101 -120 -155t-150 -54q-38 0 -68 10 t-52 35t-29 63zM-203 -508q5 -6 10 -8t11 -2q40 0 85 56t80 137t61 158t38 134q8 39 8 69q0 34 -10 56t-32.5 21.5t-31.5 -23.5l-209 -510q-10 -24 -13 -42q-3 -15 -3 -24q0 -13 6 -22zM195 528q-5 -12 -5 -21q0 -10 6 -15q5 -7 16 -7q8 0 19 4q52 21 95 67.5t88 127.5 q100 185 176.5 375.5t105.5 286.5q15 54 15 87q0 50 -35 50q-39 0 -79 -44.5t-68.5 -100.5t-61.5 -138z" />
<glyph unicode="g" horiz-adv-x="991" d="M-182 -397q5 46 28.5 86.5t53.5 68t77.5 55t83.5 43.5t88.5 38t77.5 34q53 22 72 78l20 51q5 12 1 15t-13 -9q-81 -90 -180 -90q-84 0 -130 62.5t-46 157.5q0 58 17.5 145.5t48.5 188t78.5 200.5t102.5 181t126.5 131.5t144.5 50.5q133 0 184 -107q14 -31 31.5 -36.5 t46.5 11.5l107 64q28 15 39.5 4.5t-0.5 -39.5l-357 -876q-9 -23 0 -32t31 3q294 164 465 463q15 26 42.5 22.5t39.5 -27.5q6 -10 6 -23q0 -14 -8 -30q-55 -95 -120 -176t-122 -134.5t-127 -101.5t-118 -74t-111 -56q-57 -29 -78 -84q-27 -71 -50.5 -123.5t-62.5 -117 t-79 -106t-96.5 -70t-119.5 -28.5q-92 0 -146 52q-49 45 -49 116q0 9 1 19zM-72 -399q0 -25 17 -39.5t47 -14.5q48 2 102.5 50.5t102.5 154.5q12 25 2 35.5t-35 1.5q-236 -89 -236 -188zM117 211q0 -86 67 -86q97 0 211 149q34 49 51 91l152 374q12 31 12 63q0 18 -4 36 q-22 98 -96 98q-58 0 -118.5 -58.5t-108 -147.5t-86 -189t-59.5 -189t-21 -141z" />
<glyph unicode="h" horiz-adv-x="974" d="M-168 20q-6 9 -6 21q0 15 8 35l533 1317q17 41 42.5 58t69.5 17h15q60 0 60 -39q0 -15 -9 -36l-154 -381q-7 -19 0.5 -24t22.5 9q112 93 213 93q68 0 113.5 -39t45.5 -113q0 -88 -69 -258l-135 -328q-53 -132 -53 -198t53 -66q77 0 189 130t228 327q16 26 43.5 22.5 t39.5 -27.5q5 -11 5 -22q0 -15 -8 -31q-66 -114 -126.5 -201t-128.5 -161t-138 -113t-139 -39q-48 0 -83.5 12.5t-61.5 45.5t-32 84q-2 15 -2 32q0 43 11 102q16 83 59 191l101 244q5 13 14.5 37.5t15 38t13 33.5t11.5 32.5t8.5 26.5t6.5 24t2 17q0 22 -16.5 34.5 t-42.5 12.5q-38 0 -95 -29.5t-114 -83.5q-43 -43 -61 -90l-269 -661q-17 -41 -42.5 -58.5t-69.5 -17.5h-15q-40 0 -53 20z" />
<glyph unicode="i" horiz-adv-x="516" d="M-18 442l221 545q17 41 42.5 58.5t69.5 17.5h15q40 0 53 -19.5t-2 -56.5l-256 -635q-26 -64 -39 -112t-14.5 -76.5t5.5 -46t18.5 -23.5t27.5 -6q54 0 128.5 68t145 165.5t144.5 223.5q16 26 43.5 22.5t39.5 -27.5q5 -11 5 -22q0 -15 -8 -31q-68 -117 -128.5 -203 t-128.5 -160t-138.5 -112.5t-141.5 -38.5q-175 0 -175 173q0 112 73 296zM313 1311q0 44 31.5 75t75.5 31t76 -31t32 -75q0 -46 -32 -78.5t-76 -32.5t-75.5 32.5t-31.5 78.5z" />
<glyph unicode="j" horiz-adv-x="552" d="M-618 -418q0 158 223 262q28 14 92.5 43t89.5 41q52 25 74 80l182 445q8 19 -11 46t-7 46q38 67 72.5 133.5t78.5 157t76 153.5q20 40 47.5 57t71.5 17h16q40 0 53 -19.5t-2 -56.5l-356 -876q-9 -23 0 -32t31 3q294 164 465 463q15 26 41.5 22.5t38.5 -27.5q6 -11 6 -24 t-7 -29q-55 -96 -120 -177t-122 -134t-127.5 -101t-117.5 -74t-111 -56q-55 -28 -77 -84q-23 -56 -37.5 -90.5t-40.5 -87t-47.5 -85.5t-54 -71t-64.5 -59.5t-74 -36.5t-88 -15q-90 0 -142 46t-52 120zM-510 -399q0 -23 14.5 -38.5t40.5 -15.5q120 0 215 205q10 25 0.5 35.5 t-34.5 1.5q-236 -91 -236 -188zM371 1311q0 44 32.5 75t77.5 31q44 0 75.5 -31t31.5 -75q0 -46 -31.5 -78.5t-75.5 -32.5q-45 0 -77.5 33t-32.5 78z" />
<glyph unicode="k" horiz-adv-x="923" d="M-168 20q-6 9 -6 21q0 15 8 35l533 1317q17 41 42.5 58t69.5 17h15q60 0 60 -39q0 -15 -9 -36l-154 -381q-7 -19 0.5 -24t22.5 9q112 93 215 93q66 0 111.5 -39t45.5 -111q0 -109 -100 -317q-100 -197 -285 -238q-32 -6 -44.5 -21.5t-12.5 -48.5v-16q0 -50 6 -87 q6 -43 15 -65.5t23.5 -35t25 -15.5t24.5 -4h2q61 0 152 58q93 58 191.5 165t164.5 230q17 33 52 20q30 -12 35 -42q1 -4 1 -8q0 -14 -8 -28q-45 -82 -117 -170.5t-156.5 -166t-179 -127.5t-172.5 -50q-57 0 -100 26.5t-65.5 69t-37 95t-14.5 104.5t2 97q7 78 27 101t59 23 q55 0 100.5 16.5t73 38.5t52 59.5t35.5 62.5t26 65q47 125 47 160q0 23 -16.5 36t-42.5 13q-37 0 -93 -28.5t-114 -80.5q-42 -38 -61 -88l-269 -667q-17 -41 -42.5 -58.5t-69.5 -17.5h-15q-40 0 -53 20z" />
<glyph unicode="l" horiz-adv-x="516" d="M-18 442l385 951q17 41 42.5 58t69.5 17h15q60 0 60 -39q0 -15 -9 -36l-420 -1041q-26 -64 -39 -112t-14.5 -76.5t5.5 -46t18.5 -23.5t27.5 -6q54 0 128.5 68t145 165.5t144.5 223.5q16 26 43.5 22.5t39.5 -27.5q5 -11 5 -22q0 -15 -8 -31q-68 -117 -128.5 -203 t-128.5 -160t-138.5 -112.5t-141.5 -38.5q-175 0 -175 173q0 112 73 296z" />
<glyph unicode="m" horiz-adv-x="1427" d="M-166 20q-6 9 -6 21q0 15 8 35l367 911q19 46 49 46q20 0 45 -21l20 -17q28 -20 49.5 -20t49.5 22q115 93 221 93q49 0 88.5 -28t52.5 -81q6 -28 22 -28q11 0 25 14q136 123 258 123q64 0 110 -39t46 -115q0 -80 -70 -256l-133 -328q-21 -50 -33.5 -91t-16.5 -68t-3 -47 t6 -31t13.5 -17.5t15.5 -8t16 -1.5q54 0 128.5 68t145 165.5t144.5 223.5q16 26 44 23q26 -4 38 -28q5 -11 6 -22q0 -15 -8 -31q-66 -114 -127 -201.5t-128.5 -161t-138 -112.5t-139.5 -39q-48 0 -84 13t-61.5 45.5t-31.5 84.5q-2 14 -2 30q0 44 12 104q17 83 61 190l98 244 q72 179 72 209q0 23 -15.5 35t-41.5 12q-39 0 -95 -28t-112 -81q-39 -32 -62 -86l-270 -669q-17 -41 -43 -58.5t-70 -17.5h-14q-40 0 -53 19.5t2 56.5l248 608q71 177 71 209q0 22 -16.5 34.5t-42.5 12.5q-38 0 -92.5 -28t-112.5 -81q-42 -38 -61 -88l-269 -667 q-17 -41 -42.5 -58.5t-69.5 -17.5h-15q-40 0 -53 20z" />
<glyph unicode="n" horiz-adv-x="970" d="M-166 20q-6 9 -6 21q0 15 8 35l367 911q19 46 49 46q20 0 45 -21l20 -17q28 -20 49.5 -20t49.5 22q118 93 219 93q62 0 104.5 -39t42.5 -113q0 -83 -69 -258l-133 -328q-53 -132 -53 -198t53 -66q77 0 188 129.5t227 327.5q16 25 43.5 21.5t39.5 -26.5q5 -10 5 -22 q0 -14 -8 -31q-66 -115 -126.5 -202t-128.5 -160.5t-138 -112.5t-139 -39q-49 0 -85.5 14t-61 47.5t-30.5 85.5q-2 14 -2 30q0 44 13 104q17 82 59 186l101 244q64 162 69 194q2 8 2 15q0 22 -16.5 34.5t-42.5 12.5q-38 0 -92.5 -28t-112.5 -81q-42 -38 -61 -88l-269 -667 q-17 -41 -42.5 -58.5t-69.5 -17.5h-15q-40 0 -53 20z" />
<glyph unicode="o" horiz-adv-x="948" d="M-37 231q0 66 17.5 154t50 184.5t83 189t110.5 166.5t139.5 119.5t164.5 45.5q98 0 163 -65t65 -194q0 -93 -34 -224t-93 -253q-12 -25 -1.5 -41t38.5 -16q75 2 155 63.5t152 184.5q16 26 43.5 22.5t39.5 -27.5q5 -11 5 -22q0 -15 -8 -31q-91 -159 -207 -239 q-92 -64 -194 -64q-27 0 -54 4q-36 5 -53.5 -2t-40.5 -34q-142 -179 -314 -179q-98 0 -162.5 63.5t-64.5 194.5zM113 227q0 -61 25.5 -96t68.5 -35q67 0 139 88q37 40 43 64q2 8 2 20q0 23 -8 60q-4 20 -4 30q0 41 25 73t63 38q32 7 42.5 16.5t22.5 40.5q74 199 74 316 q0 63 -23.5 94t-62.5 31q-66 0 -141.5 -87t-132.5 -207t-95 -245t-38 -201z" />
<glyph unicode="p" horiz-adv-x="921" d="M-332 -386q-6 9 -6 21q0 15 8 35l533 1317q19 49 55 49q20 0 45 -16l12 -8q32 -20 52.5 -18.5t48.5 26.5q78 70 164 70q79 0 124.5 -63t45.5 -179q0 -172 -93 -390.5t-196 -336.5q-14 -17 -9 -24.5t27 -0.5q128 51 249.5 168t217.5 281q16 26 43 22.5t39 -27.5 q5 -11 5 -23q0 -14 -7 -30q-83 -146 -186 -258t-237.5 -184t-274.5 -72q-159 0 -244 90q-14 16 -14 31q0 17 16 33t31 18t25 -4t25.5 -13t29.5 -7q68 0 162.5 142t160.5 317t66 272q0 86 -64 86q-87 0 -194 -123q-44 -61 -54 -90l-426 -1055q-17 -41 -42.5 -58.5 t-69.5 -17.5h-15q-40 0 -53 20z" />
<glyph unicode="q" horiz-adv-x="993" d="M-49 190q0 69 22 177t68 233.5t107 235t149 182t184 72.5q119 0 170 -109q15 -31 32 -36t48 13l107 64q28 15 39.5 4.5t-0.5 -39.5l-334 -817q-10 -26 1.5 -42t39.5 -13q56 6 116 44t116 100.5t105 132.5t97 153q15 26 42.5 22.5t39.5 -27.5q6 -10 6 -23q0 -14 -8 -30 q-199 -348 -398 -444q-34 -15 -41.5 -29.5t-1.5 -52.5q6 -31 6 -64q0 -61 -22 -128q-15 -48 -28.5 -85t-36.5 -89.5t-49.5 -90.5t-60.5 -73.5t-77 -54.5t-92 -19q-38 0 -69 10.5t-55.5 35.5t-34.5 63q-5 21 -5 48q0 22 3 50q9 60 40 135l117 285q9 20 1 27t-28 -3 q-63 -35 -131 -35q-89 0 -136.5 59.5t-47.5 157.5zM117 211q0 -86 69 -86q95 0 209 149q34 49 51 91l152 374q12 31 12 63q0 18 -4 36q-22 98 -96 98q-58 0 -118.5 -58.5t-108 -147.5t-86 -189t-59.5 -189t-21 -141zM287 -480v-5q0 -20 7 -28q8 -9 23 -9q34 0 68.5 36.5 t62 94.5t45 103t31.5 89q19 57 19 99t-19 69q-13 20 -31 20q-2 0 -4 -1q-21 -2 -32 -25l-154 -383q-15 -36 -16 -60z" />
<glyph unicode="r" horiz-adv-x="776" d="M23 492q-6 11 -6 23q0 14 8 30q76 128 155 307q18 39 17.5 61t-21.5 58q-24 41 -24 84q0 53 34.5 101.5t85.5 80.5q25 15 48 15q27 0 51 -21l12 -8q33 -27 33 -61q0 -17 -8 -36l-33 -75q-9 -21 -9 -40q0 -33 29 -57q4 -4 28.5 -25.5t31 -28t27 -26.5t27.5 -29.5 t20.5 -28.5t18.5 -33.5t10 -33.5t5 -38q0 -45 -24 -105l-103 -256q-27 -66 -40.5 -116t-14.5 -77t6.5 -43.5t17 -21t21.5 -4.5q61 0 148.5 110.5t226.5 346.5q16 26 43.5 22.5t39.5 -27.5q5 -11 5 -22q0 -15 -8 -31q-41 -70 -68.5 -115t-66.5 -105t-69 -97.5t-68 -79 t-72 -64.5t-72.5 -38t-77.5 -15q-63 0 -102.5 27t-56.5 83q-8 28 -8 65q0 38 8 86q18 94 71 221l78 190q18 46 18 70q0 37 -61 92q-20 18 -36 18q-22 0 -38 -32q-73 -160 -156 -306q-15 -26 -42 -22.5t-39 27.5z" />
<glyph unicode="s" horiz-adv-x="718" d="M-54 107q2 18 23 30q28 17 45 16.5t43 -20.5q48 -29 99 -29q66 0 96.5 52.5t30.5 189.5q0 36 -5 170q-4 111 -4 189v30q0 22 -9 24t-19 -18q-12 -22 -142 -254q-15 -26 -42 -22.5t-39 27t2 53.5q136 232 276 522q17 35 40 43q7 2 15 3q19 0 43 -13q37 -20 48 -44 q7 -15 7 -36q0 -13 -3 -29q-19 -91 -26 -203q-5 -82 -5 -145v-43q2 -76 8 -166t6 -110q0 -75 -12 -127q-4 -25 7.5 -31.5t31.5 8.5q125 99 282 371q15 26 42.5 22.5t39.5 -27.5q6 -11 6 -23q0 -14 -8 -30q-31 -54 -50.5 -87t-51.5 -82.5t-56 -80t-59 -71t-66 -65.5t-72 -52 t-82.5 -42t-91.5 -24.5t-104 -9.5q-141 0 -231 99q-13 15 -13 30v5z" />
<glyph unicode="t" horiz-adv-x="550" d="M-92 118q-1 11 -1 24q0 46 14 110q18 82 61 190l229 564q6 15 6 26q0 31 -45 31h-86q-34 0 -34 25q0 9 5 22q11 25 25.5 35t40.5 10h86q34 0 53 13t31 44l74 181q17 41 42.5 58t69.5 17h15q60 0 60 -39q0 -15 -9 -36l-74 -181q-6 -15 -6 -26q0 -31 45 -31h78q33 0 33 -24 q0 -10 -5 -23q-11 -25 -25 -35t-40 -10h-78q-34 0 -53 -13t-31 -44l-264 -654q-28 -67 -41 -116.5t-14 -76.5t7.5 -43.5t20 -21t27.5 -4.5q92 0 213 128.5t237 326.5q16 26 43.5 22.5t39.5 -27.5q5 -11 5 -22q0 -15 -8 -31q-296 -514 -567 -514q-52 0 -88.5 13.5t-61.5 46.5 t-30 85z" />
<glyph unicode="u" horiz-adv-x="978" d="M-90 114q-1 12 -2 26q0 45 14 109q18 84 62 193l219 545q17 41 42.5 58.5t69.5 17.5h15q40 0 53 -19.5t-2 -56.5l-256 -635q-25 -61 -38.5 -106t-17 -71t2 -42t14.5 -21.5t23 -5.5q48 0 104.5 44.5t107.5 113.5t90.5 134t67.5 124l187 465q17 41 42.5 58.5t69.5 17.5h15 q40 0 53 -19.5t-2 -56.5l-256 -635q-53 -131 -53 -196.5t53 -65.5q51 0 125 67t147 166.5t144 221.5q16 26 42 23q26 -4 38 -28q5 -11 6 -23q0 -14 -7 -30q-64 -111 -123 -196.5t-127.5 -161t-141 -116t-144.5 -40.5q-66 0 -111.5 29.5t-58.5 89.5q-7 28 -22 28 q-11 0 -27 -16q-131 -131 -248 -131q-46 0 -80 12t-59 44.5t-31 84.5z" />
<glyph unicode="v" horiz-adv-x="872" d="M-76 80l197 903q11 43 33.5 61.5t66.5 18.5h8q67 0 67 -54q0 -12 -3 -26l-162 -745q-5 -25 6 -31.5t31 8.5q62 50 115.5 100t116.5 124t112.5 153t95 184.5t72.5 220.5q9 37 27.5 55t56.5 25q10 2 18 2q19 0 29 -10q14 -14 8 -47q-83 -371 -319 -655q-19 -22 -12.5 -39.5 t34.5 -22.5q21 -4 43 -4q73 0 151 47q100 61 181 197q16 26 43 23q26 -4 38 -28q5 -11 6 -23q0 -14 -7 -30q-99 -177 -245 -257q-86 -47 -179 -47q-64 0 -131 22q-34 10 -53 6t-45 -27q-98 -85 -177 -139q-62 -45 -143 -45h-16q-67 0 -67 54q0 12 3 26z" />
<glyph unicode="w" horiz-adv-x="1372" d="M-18 442l221 545q17 41 42.5 58.5t69.5 17.5h15q40 0 53 -19.5t-2 -56.5l-256 -635q-57 -139 -57 -200q0 -33 17 -43q6 -3 13 -3q41 0 87.5 29t87 73t81 100.5t69 106.5t50.5 95l193 477q17 41 42.5 58.5t69.5 17.5h15q40 0 53 -19.5t-2 -56.5l-258 -635 q-42 -108 -48 -167q-2 -18 -2 -31q0 -31 8 -38q12 -10 36 -10q75 0 168 103q22 24 31.5 42.5t10.5 28.5t-1.5 35t-2.5 43q0 42 29.5 75t71.5 38q33 5 44.5 13t26.5 38q107 223 170 477q7 35 26 52.5t56 25.5q10 2 18 2q17 0 26 -9q13 -13 6 -44q-85 -366 -240 -651 q-14 -25 -5.5 -44.5t36.5 -25.5q19 -4 38 -5q64 0 135 46q92 59 173 199q16 26 43.5 22.5t39.5 -27.5q5 -11 5 -22q0 -15 -8 -31q-100 -173 -228 -251q-81 -49 -169 -50q-51 0 -105 17q-32 9 -50.5 4t-41.5 -31q-84 -101 -171 -152t-165 -51q-60 0 -105 29.5t-61 93.5 q-7 30 -23 30q-11 0 -26 -15q-131 -138 -252 -138q-173 0 -173 171q0 112 75 298z" />
<glyph unicode="x" horiz-adv-x="1036" d="M-26 16q-1 4 -2 7q0 14 18 32l387 400q41 41 53 106q45 260 45 342q0 27 -5 40t-21 13q-27 0 -64 -35.5t-81 -101t-81.5 -128.5t-85.5 -146q-22 -39 -33 -58q-16 -26 -43 -22.5t-38.5 27t2.5 53.5q27 46 63.5 111t58.5 105.5t53 91t53 81.5t51.5 64t56 51t58.5 29.5 t66 11.5q58 0 96.5 -27t52.5 -71t17 -100q1 -11 1 -22q0 -46 -11 -94q-3 -22 6.5 -26.5t24.5 12.5l289 301q18 20 38 20q18 0 37 -18l4 -4q20 -18 20 -38q0 -19 -18 -38l-407 -420q-43 -45 -51 -106q-33 -207 -33 -273q0 -98 55 -98q71 0 210 137.5t245 319.5 q16 26 43.5 22.5t39.5 -27.5q5 -11 5 -22q0 -15 -8 -31q-60 -104 -125 -191.5t-139 -162.5t-154 -117.5t-156 -42.5q-57 0 -98 22t-62 60q-21 39 -29 85q-5 29 -5 60q0 20 2 40q3 23 -7.5 28t-25.5 -12l-197 -201q-29 -30 -58 -42.5t-71 -12.5h-4q-32 0 -38 16z" />
<glyph unicode="y" horiz-adv-x="958" d="M-215 -397q7 79 66.5 135.5t156.5 105.5q29 14 95 43t92 41q52 25 73 78l15 37q7 17 1 21.5t-20 -7.5q-98 -84 -190 -84q-45 0 -79 13t-57.5 46.5t-28.5 85.5q-1 12 -1 25q0 45 14 109q17 83 60 190l221 545q17 41 42.5 58.5t69.5 17.5h15q40 0 53 -19.5t-2 -56.5 l-256 -635q-25 -61 -38.5 -106t-17 -71t2 -42t14.5 -21.5t23 -5.5q48 0 104.5 44.5t107.5 113.5t90.5 134t67.5 124l187 465q17 41 42.5 58.5t69.5 17.5h15q40 0 53 -19.5t-2 -56.5l-357 -876q-9 -23 0 -32t31 3q294 164 465 463q15 26 42 22.5t39 -27.5q6 -11 6 -24t-7 -29 q-55 -96 -120 -177t-122 -134t-127.5 -101t-117.5 -74t-111 -56q-57 -29 -78 -84q-27 -71 -50.5 -123t-62 -117t-78.5 -106.5t-96.5 -70t-119.5 -28.5q-92 0 -147 51q-49 45 -49 117q0 9 1 19zM-104 -401q0 -25 18 -40q16 -14 42 -14h3q48 4 102.5 52.5t102.5 154.5 q7 14 7 23q0 8 -5 13t-13 5q-9 0 -22 -6q-235 -93 -235 -188z" />
<glyph unicode="z" horiz-adv-x="989" d="M35 133l661 676q16 17 16 29q0 17 -32 26q-9 3 -55.5 19.5t-80 24t-69.5 7.5q-29 0 -53.5 -7t-44 -16t-42 -33t-38 -42.5t-41 -61t-42 -71.5t-51.5 -92t-59 -105q-15 -26 -42 -22.5t-39 27t2 53.5q38 65 82.5 151t69.5 135.5t61 105.5t67.5 85t76.5 48.5t99 19.5 q45 0 101.5 -12t97.5 -24t99 -18q17 -2 34 -1q39 0 72 9q37 8 57.5 2t46.5 -32q20 -23 19 -42.5t-23 -41.5l-641 -649q-16 -17 -16 -30q0 -17 32 -24q34 -8 72.5 -31t77 -41t84.5 -18q98 0 198 100.5t222 307.5q15 25 42.5 21.5t39.5 -26.5q6 -11 6 -23q0 -14 -8 -30 q-63 -110 -121.5 -193.5t-129.5 -160.5t-149.5 -118.5t-158.5 -41.5q-52 0 -99 18t-79.5 38.5t-66.5 36.5q-25 11 -54 11q-10 1 -21 -1q-41 -6 -90 -39q-28 -19 -47.5 -17t-44.5 27q-22 22 -22 42t24 44z" />
<glyph unicode="{" horiz-adv-x="833" d="M-45.5 -143.5q2.5 36.5 10.5 69t21 66.5q45 116 264 553q15 30 18 52.5t-8 42t-47 30t-96 10.5q-26 0 -19 22l27 72l1 2q2 3 2 4t1.5 3t3 3t3.5 3t4 2.5t5 1.5t7 1.5t8 0.5q59 0 106.5 17t75 39t50.5 58.5t32 60.5t20 60q49 175 136 434q19 59 39 102t55 88.5t79 74 t110.5 47t150.5 18.5h45q40 0 24 -39l-26 -65q-11 -27 -37 -27h-33q-50 0 -91.5 -21t-71.5 -59.5t-49 -74.5t-38 -85q-27 -67 -83 -237.5t-70 -204.5q-74 -194 -213 -240q-25 -7 -27.5 -17.5t14.5 -29.5q88 -84 13 -248q-125 -264 -207 -458q-17 -38 -25 -60t-12 -47 t3.5 -38t28.5 -22t58 -9h45q37 0 25 -37l-25 -58q-13 -36 -53 -36h-45q-60 0 -103 14t-65 39.5t-33 55.5t-8.5 66.5z" />
<glyph unicode="|" horiz-adv-x="747" d="M332 -209v1876q0 45 47 45h4q45 0 45 -45v-1876q0 -45 -45 -45h-4q-47 0 -47 45z" />
<glyph unicode="}" horiz-adv-x="835" d="M-78 -281l27 66q11 27 37 27h32q41 0 76.5 15t60 37t47.5 56t37 63.5t29 67.5q27 67 83.5 238t70.5 205q73 193 213 239q25 7 27 17.5t-15 29.5q-88 83 -12 248q121 255 207 459q17 37 25 59.5t12 47.5t-4 38t-29 22t-58 9h-45q-36 0 -24 37l24 57q14 37 54 37h45 q60 0 103 -14t65 -39.5t33 -55.5t8.5 -66.5t-10.5 -69t-21 -66.5q-45 -116 -264 -553q-15 -30 -18 -52.5t8 -42t47 -30t96 -10.5q26 0 18 -23l-26 -72q-10 -20 -35 -20q-59 0 -106.5 -17t-75.5 -39.5t-50.5 -58.5t-32 -61t-20.5 -60q-54 -193 -135 -434q-19 -59 -39 -102 t-55 -88.5t-79 -74t-110.5 -46.5t-150.5 -18h-45q-40 0 -25 38z" />
<glyph unicode="~" horiz-adv-x="1419" d="M311 539q-29 53 17 90q68 56 130 77t136 21q71 0 132 -20t97.5 -43.5t87 -43.5t101.5 -20q80 0 145 53q25 20 42 17t34 -31q29 -53 -16 -90q-62 -53 -121 -76.5t-138 -23.5q-59 0 -108.5 13.5t-84 32.5t-67 37.5t-72 32t-83.5 13.5q-87 0 -156 -54q-25 -20 -42 -17 t-34 32z" />
<glyph unicode="&#xa1;" horiz-adv-x="643" d="M-174 -330l430 973q12 27 29 38t47 11h4q54 0 35 -49l-346 -971q-13 -42 -38.5 -60t-70.5 -18h-41q-80 0 -49 76zM309 963q0 53 36.5 90t90.5 37q52 0 89.5 -37t37.5 -90t-37.5 -90t-89.5 -37q-54 0 -90.5 37t-36.5 90z" />
<glyph unicode="&#xa2;" horiz-adv-x="804" d="M-23 274q0 80 26.5 188.5t78.5 225.5t120 220.5t159.5 181t187.5 100.5q38 9 55.5 24t32.5 50l27 65q11 28 27.5 39.5t47.5 11.5h4q55 0 33 -51l-31 -76q-14 -35 -8.5 -54t37.5 -42q51 -38 71.5 -106t14 -141t-32.5 -148q-27 -76 -106 -76h-29q-82 0 -47 72 q28 60 42 123.5t5 105.5q-6 25 -25 27t-28 -23l-334 -829q-9 -25 3 -39t38 -8q92 23 195 110q25 22 46 22t46 -22l4 -4q43 -40 -2 -82q-172 -152 -344 -164q-38 -3 -55.5 -15.5t-32.5 -49.5l-25 -64q-19 -51 -74 -51h-4q-53 0 -34 51l34 84q14 36 9 56.5t-35 44.5 q-97 79 -97 243zM150 188q6 -25 24 -26t27 22l321 795q9 24 -0.5 30.5t-29.5 -10.5q-80 -68 -169 -229t-141 -330t-32 -252z" />
<glyph unicode="&#xa3;" horiz-adv-x="1263" d="M98 96q0 62 55 108.5t140 35.5q29 -4 48.5 3.5t39.5 30.5q109 135 156 361q12 61 -50 61h-57q-29 0 -39 15.5t2 44.5q14 31 33 44t53 13h19q34 0 50.5 13.5t24.5 45.5q37 176 106.5 314.5t174 223.5t227.5 85q97 0 159.5 -52t74.5 -136t-23 -191q-24 -74 -106 -74h-21 q-78 0 -51 76q73 199 -51 199q-52 0 -99.5 -37t-84.5 -101.5t-66 -141t-51 -165.5q-12 -59 49 -59h129q61 0 39 -57q-14 -33 -33.5 -46.5t-52.5 -13.5h-96q-34 0 -51.5 -13.5t-24.5 -45.5q-56 -246 -215 -428q-40 -46 18 -59q69 -15 105 -15q81 0 135 53.5t100 151.5 q19 42 45 59t72 17h4q38 0 52 -20.5t1 -57.5q-17 -47 -37.5 -89.5t-56 -95.5t-76 -90.5t-99.5 -63.5t-124 -26q-23 0 -50.5 4.5t-40.5 8t-49.5 15t-41.5 13.5q-45 14 -79 13t-77 -19q-72 -30 -138.5 -3.5t-70.5 91.5z" />
<glyph unicode="&#xa4;" horiz-adv-x="1161" d="M180 381l72 72q26 26 29.5 46t-13.5 52q-44 86 -44 180.5t44 177.5q17 32 14 53t-28 46l-74 73q-35 35 2 72q35 33 70 -2l72 -72q25 -25 45.5 -28t52.5 14q83 44 178 44t180 -44q32 -17 53 -14t46 28l73 74q33 33 66 0q35 -37 2 -70l-74 -73q-26 -26 -29 -47.5t15 -53.5 q44 -83 44 -177.5t-44 -180.5q-17 -33 -14 -52t28 -46l74 -72q33 -33 -2 -70q-33 -33 -66 0l-73 74q-25 25 -46 28t-55 -14q-83 -43 -177 -43t-179 43q-32 17 -52.5 14t-45.5 -28l-72 -72q-35 -35 -70 -2q-37 37 -2 70zM365 733q0 -97 69 -168q69 -69 166 -69t166 69 q70 71 70 168t-70 166q-69 67 -166 67t-166 -67q-69 -69 -69 -166z" />
<glyph unicode="&#xa5;" horiz-adv-x="958" d="M61 586.5q-10 15.5 2 44.5q14 31 33.5 44t53.5 13h131q31 0 44 13t15 44l2 3q1 31 -11.5 44t-43.5 13h-90q-61 0 -39 57q14 33 33.5 46.5t52.5 13.5h47q32 0 48 14.5t17 46.5l31 406q3 41 24 60t64 19h4q81 0 72 -79l-49 -494q-1 -23 7.5 -26t20.5 16l355 516 q26 37 55.5 52t73.5 15h37q37 0 45.5 -18t-13.5 -47l-321 -432q-17 -22 -10.5 -35.5t34.5 -13.5h43q29 0 39 -15t-2 -43q-15 -32 -34.5 -45.5t-53.5 -13.5h-76q-33 0 -55 -11t-43 -38l-14 -19q-17 -22 -10.5 -35.5t34.5 -13.5h117q61 0 39 -57q-14 -33 -33.5 -46.5 t-52.5 -13.5h-156q-34 0 -53 -13t-31 -44l-176 -440q-17 -40 -42 -57t-68 -17h-4q-38 0 -51.5 19.5t1.5 54.5l177 440q22 57 -39 57h-142q-29 0 -39 15.5z" />
<glyph unicode="&#xa6;" horiz-adv-x="747" d="M332 -209v787q0 45 47 45h4q45 0 45 -45v-787q0 -45 -45 -45h-4q-47 0 -47 45zM332 883v784q0 45 47 45h4q45 0 45 -45v-784q0 -47 -45 -47h-4q-25 0 -36 11t-11 36z" />
<glyph unicode="&#xa7;" horiz-adv-x="991" d="M34 236q16 83 80 110q23 10 50 10q43 0 71.5 -28.5t28.5 -71.5q0 -32 -15.5 -58t-41.5 -38q-22 -10 -21.5 -28.5t23.5 -27.5q16 -8 41 -8q44 0 78 27q63 51 63 143q0 33 -14.5 63t-38 53.5t-52 46.5t-57 49t-52 55t-38 69.5t-14.5 87.5q0 54 18 106t65 103t118 80 q35 15 46.5 29t22.5 53q24 94 93.5 159.5t175.5 65.5q126 0 187 -97q49 -77 32 -166q-15 -83 -79 -110q-23 -10 -50 -10q-43 0 -72 29t-29 72q0 64 58 94q22 10 21.5 28.5t-23.5 28.5q-20 8 -41 8q-46 0 -78 -26q-64 -52 -64 -144q0 -33 14.5 -63t38.5 -53.5t52 -46.5 t56.5 -49t52.5 -55t38.5 -69.5t14.5 -87.5q0 -86 -48.5 -166t-150.5 -122q-37 -15 -49 -29.5t-23 -52.5q-18 -68 -63 -124.5t-111 -82.5q-55 -19 -96 -19q-126 0 -187 97q-48 77 -31 166zM274 713q0 -42 24.5 -80.5t56 -64.5t73 -65t64.5 -75q28 -48 77 -16q34 23 53 59.5 t19 75.5q0 42 -24 80.5t-55 64t-72 63.5t-64 74q-31 48 -80 17q-35 -23 -53.5 -58.5t-18.5 -74.5z" />
<glyph unicode="&#xa8;" horiz-adv-x="720" d="M154 1325q0 47 33.5 80t80.5 33q46 0 80.5 -33t34.5 -80t-34.5 -82t-80.5 -35q-47 0 -80.5 34.5t-33.5 82.5zM492 1325q0 47 33.5 80t80.5 33q46 0 80.5 -33t34.5 -80t-34.5 -82t-80.5 -35q-47 0 -80.5 34.5t-33.5 82.5z" />
<glyph unicode="&#xa9;" horiz-adv-x="1441" d="M102 483q0 138 61.5 270.5t162 230t234 157t271.5 59.5q225 0 371 -145t146 -365q0 -139 -62 -271.5t-163 -229.5t-235 -156.5t-272 -59.5q-224 0 -369 145t-145 365zM199 481q0 -184 119.5 -296.5t302.5 -112.5q119 0 235.5 52.5t202.5 138t139 199.5t53 230 q0 177 -116 294.5t-304 117.5q-161 0 -308 -88t-235.5 -232.5t-88.5 -302.5zM457 420q0 68 25 155t69.5 172t118.5 143t159 58q93 0 133.5 -71t8.5 -164q-19 -56 -78 -56h-12q-61 0 -37 56q50 127 -25 127q-48 0 -96 -53t-80 -125t-52 -140.5t-20 -105.5q0 -86 80 -86 q89 0 199 133q22 28 55 4q27 -24 6 -51q-132 -183 -290 -183q-81 0 -122.5 52t-41.5 135z" />
<glyph unicode="&#xaa;" horiz-adv-x="864" d="M145 778q0 56 18 143t54.5 186.5t85 186t118 144t144.5 57.5q90 0 131 -76q17 -31 33.5 -35.5t48.5 13.5l60 37q29 15 41 4.5t0 -39.5l-201 -492q-86 -211 2 -211q16 0 31 6q15 8 25 5.5t20 -15.5l8 -10q26 -32 -10 -49q-53 -29 -105 -29q-91 0 -125 78q-9 25 -19.5 27 t-29.5 -17q-88 -88 -184 -88q-71 0 -108.5 49.5t-37.5 124.5zM276 795q0 -72 56 -72q70 0 162 115q29 37 49 86l116 288q19 48 5 95q-16 65 -74 65q-57 0 -117 -70t-101.5 -166t-68.5 -191t-27 -150z" />
<glyph unicode="&#xab;" horiz-adv-x="1466" d="M244.5 513.5q-3.5 21.5 7.5 51.5q20 52 67 78l449 258q29 17 41 5.5t0 -40.5l-8 -24q-33 -76 -101 -119l-249 -154q-28 -17 -32 -36.5t15 -45.5l109 -137q22 -26 25 -51t-11 -57l-2 -2q-12 -29 -30 -32.5t-38 19.5l-219 242q-20 23 -23.5 44.5zM701.5 513.5 q-3.5 21.5 7.5 51.5q20 52 67 78l447 258q29 17 41 5.5t0 -40.5l-9 -24q-33 -77 -100 -119l-248 -154q-52 -32 -16 -82l108 -137q40 -48 15 -108l-2 -2q-12 -29 -30 -32.5t-38 19.5l-219 242q-20 23 -23.5 44.5z" />
<glyph unicode="&#xac;" horiz-adv-x="1181" d="M106.5 531.5q-12.5 19.5 2.5 56.5q17 40 42 57t66 17h739q40 0 53.5 -19.5t-1.5 -56.5l-123 -305q-13 -36 -37 -52t-64 -16h-4q-72 0 -47 68l70 174q22 57 -39 57h-608q-37 0 -49.5 19.5z" />
<glyph unicode="&#xad;" horiz-adv-x="978" d="M288.5 531.5q-13.5 19.5 0.5 54.5l2 4q15 40 40 57t68 17h361q38 0 51.5 -19.5t-0.5 -54.5l-2 -4q-15 -40 -40.5 -57t-68.5 -17h-360q-38 0 -51.5 19.5z" />
<glyph unicode="&#xae;" horiz-adv-x="860" d="M119 987q0 132 73.5 250t193 188t249.5 70q161 0 263.5 -104t102.5 -261q0 -98 -44 -191.5t-115 -162t-166 -110t-193 -41.5q-160 0 -262 102t-102 260zM182 985q0 -132 86 -213.5t211 -81.5q65 0 82.5 13t16.5 65v4q0 30 11 94t11 78q0 28 -18 43q-12 9 -25.5 6 t-19.5 -18l-48 -115q-10 -27 -26.5 -38t-44.5 -11h-4q-54 0 -33 49l129 324q11 26 28 37.5t46 11.5h4q54 0 35 -49l-31 -80q-8 -22 7 -30t42 9q23 15 37 43t14 56q0 39 -26.5 61.5t-75.5 22.5q-72 0 -110 -44.5t-38 -97.5q0 -4 1.5 -13t1.5 -14t-4.5 -10.5t-14.5 -9.5 l-37 -12q-7 -5 -13 -2t-9.5 3t-6 7t-4 10t-2 11.5t-0.5 12v11.5v4q0 99 71.5 166.5t170.5 67.5q86 0 142.5 -50.5t56.5 -131.5q0 -83 -70 -140q-32 -25 -37 -37.5t4 -52.5q4 -20 4 -37q0 -14 -8 -65.5t-8 -63.5q0 -18 16 -18q26 0 74 41l1 1q86 70 131 172q34 76 34 156 q0 133 -84 216.5t-215 83.5q-113 0 -219 -62.5t-171 -166t-65 -216.5z" />
<glyph unicode="&#xaf;" horiz-adv-x="757" d="M207 1341q12 30 30.5 43t49.5 13h389q56 0 37 -54q-12 -30 -30.5 -42.5t-49.5 -12.5h-389q-55 0 -37 53z" />
<glyph unicode="&#xb0;" horiz-adv-x="653" d="M219 1217q0 115 82.5 196.5t198.5 81.5q114 0 195 -81.5t81 -196.5t-81 -197t-195 -82q-116 0 -198.5 82t-82.5 197zM336 1217q0 -68 48 -115t116 -47q67 0 114.5 47t47.5 115q0 67 -48 114t-114 47q-68 0 -116 -47t-48 -114z" />
<glyph unicode="&#xb1;" horiz-adv-x="1175" d="M-76 19.5q-13 19.5 2 54.5v4q17 40 42.5 57t68.5 17h739q38 0 51 -19.5t-2 -54.5v-4q-17 -40 -42 -57t-68 -17h-740q-38 0 -51 19.5zM122.5 564q-12.5 19 0.5 54q17 42 41.5 59t66.5 17h228q33 0 52.5 13.5t31.5 44.5l53 131q17 41 43 58t70 17h4q82 0 51 -75l-55 -131 q-11 -28 -0.5 -43t39.5 -15h227q37 0 49.5 -19t-0.5 -54q-17 -41 -41.5 -58.5t-67.5 -17.5h-229q-33 0 -52.5 -13.5t-31.5 -44.5l-53 -129q-17 -41 -42.5 -58t-68.5 -17h-4q-82 0 -51 75l53 129q11 28 0.5 43t-39.5 15h-225q-37 0 -49.5 19z" />
<glyph unicode="&#xb2;" horiz-adv-x="593" d="M-33 743q29 68 86 111q125 97 178 143q246 216 246 353q0 33 -15 54t-44 21q-46 0 -82.5 -38.5t-52.5 -96.5q-9 -35 -24 -47t-52 -12h-2q-57 0 -47 59q20 95 88 164.5t180 69.5q88 0 134 -44t46 -120q0 -63 -29 -128.5t-82.5 -128.5t-97 -105.5t-104.5 -94.5 q-71 -57 -82 -67q-19 -15 -15 -27t29 -12h144q64 0 39 -60q-15 -34 -35.5 -47.5t-55.5 -13.5h-307q-70 0 -43 67z" />
<glyph unicode="&#xb3;" horiz-adv-x="614" d="M9 848q2 33 11 65q16 62 78 62h11q32 0 42 -14.5t-1 -45.5q-14 -39 -16.5 -71.5t15 -57t56.5 -24.5q73 0 123.5 73.5t50.5 145.5q0 80 -84 84q-31 3 -39.5 16.5t2.5 42.5q12 30 28.5 42.5t55.5 19.5q48 9 81.5 33t47 52.5t18.5 47.5t5 33q0 24 -13.5 48.5t-48.5 24.5 q-39 0 -69.5 -26.5t-49.5 -67.5q-15 -35 -32 -46t-56 -11q-26 0 -37 15.5t-2 41.5q26 83 91 138t167 55q47 0 81 -13t51.5 -30t27.5 -41.5t12 -40.5t2 -33q0 -64 -34 -122.5t-101 -94.5q-28 -14 -31 -27t17 -39q31 -43 31 -104q0 -52 -19 -106.5t-55.5 -103t-97 -79.5 t-135.5 -31q-54 0 -93 17t-58 43.5t-27 61t-6 67.5z" />
<glyph unicode="&#xb4;" horiz-adv-x="757" d="M265 1206.5q-6 12.5 11 32.5l136 160q29 35 59.5 49t75.5 14h41q34 0 39.5 -15.5t-19.5 -37.5l-202 -176q-44 -39 -105 -39h-4q-26 0 -32 12.5z" />
<glyph unicode="&#xb5;" horiz-adv-x="978" d="M-332 -386.5q-13 19.5 2 56.5l533 1317q17 41 42.5 58.5t69.5 17.5h15q40 0 53 -19.5t-2 -56.5l-256 -635q-88 -215 -40 -243q6 -3 13 -3q50 0 109.5 45t111 113t92 135t66.5 125l189 463q17 41 42.5 58.5t69.5 17.5h15q40 0 53 -19.5t-2 -56.5l-258 -635 q-104 -264 2 -264q76 0 188.5 130.5t227.5 326.5q16 26 43 22.5t38.5 -27t-2.5 -53.5q-65 -112 -124.5 -197.5t-127.5 -160.5t-140.5 -115.5t-143.5 -40.5q-147 0 -172 117q-9 52 -47 14q-131 -131 -246 -131q-24 0 -55 7q-28 8 -43 0.5t-25 -35.5l-111 -275 q-17 -41 -42.5 -58.5t-69.5 -17.5h-15q-40 0 -53 19.5z" />
<glyph unicode="&#xb6;" horiz-adv-x="1310" d="M127.5 630.5q-12.5 80.5 24.5 180.5q62 151 210 257t297 106h648q63 0 41 -60l-7 -14q-10 -26 -25.5 -36.5t-41.5 -10.5h-4q-54 0 -70 -47l-405 -1006q-27 -68 -75.5 -113t-103.5 -57q-35 -6 -47 27q-6 25 -2.5 35t23.5 22q50 32 90 117l389 964q11 28 0.5 43t-39.5 15 h-67q-33 0 -52.5 -13.5t-31.5 -44.5l-404 -995q-27 -68 -74 -113t-102 -57q-35 -6 -47 27q-6 24 -3 34.5t23 22.5q51 33 88 117l148 360q11 28 0.5 43t-39.5 15h-102q-98 0 -162.5 50.5t-77 131z" />
<glyph unicode="&#xb7;" horiz-adv-x="743" d="M274 588q0 52 37 89.5t90 37.5q54 0 90.5 -37t36.5 -90t-36.5 -90t-90.5 -37q-53 0 -90 37.5t-37 89.5z" />
<glyph unicode="&#xb8;" horiz-adv-x="757" d="M138 -408.5q-6 14.5 7 33.5q17 26 30 32t50 3q27 -2 54 2t52.5 14t41.5 31t16 49q0 51 -55 64q-34 7 -41 22.5t8 46.5l43 80q16 31 51 31h4q17 0 22 -9t-3 -22l-8 -14q-17 -34 -12.5 -48.5t36.5 -33.5q58 -28 58 -111q0 -76 -52 -125.5t-125.5 -63.5t-148.5 1 q-22 3 -28 17.5z" />
<glyph unicode="&#xb9;" horiz-adv-x="501" d="M82 1040q-22 25 2 52q179 179 313 368q20 28 41.5 38.5t55.5 10.5h2q58 0 36 -55l-290 -723q-12 -30 -30.5 -42.5t-51.5 -12.5h-4q-61 0 -39 55l178 455q6 17 1 20.5t-17 -10.5q-60 -74 -146 -160q-23 -24 -51 4z" />
<glyph unicode="&#xba;" horiz-adv-x="733" d="M158 815q0 66 19.5 153t59 179.5t91.5 170t125 127.5t151 50q80 0 133.5 -53.5t53.5 -159.5q0 -83 -33 -196t-89 -222t-144 -184.5t-185 -75.5q-79 0 -130.5 52t-51.5 159zM276 807q0 -50 20.5 -76t55.5 -26q52 0 111 68t103.5 163t74 195.5t29.5 164.5q0 99 -70 99 t-148.5 -114.5t-127 -252.5t-48.5 -221z" />
<glyph unicode="&#xbb;" horiz-adv-x="1466" d="M221 256l10 23q27 71 101 118l248 154q52 32 16 82l-109 139q-20 27 -23 52t9 55t29.5 34t36.5 -18l225 -244q20 -23 23.5 -44t-7.5 -48l-2 -4q-20 -52 -67 -78l-449 -256q-28 -17 -40.5 -5.5t-0.5 40.5zM678 215.5q-12 11.5 0 40.5l8 23q33 75 100 118l248 154 q28 17 32 36.5t-15 45.5l-109 139q-20 27 -23 52t9 55q25 63 65 16l226 -244q20 -23 23.5 -44.5t-7.5 -51.5q-20 -52 -68 -78l-448 -256q-29 -17 -41 -5.5z" />
<glyph unicode="&#xbc;" horiz-adv-x="1404" d="M72.5 13.5q-5.5 13.5 11.5 33.5l1137 1374q22 26 44 36.5t56 10.5h4q26 0 33 -13.5t-10 -33.5l-1139 -1374q-22 -26 -44 -36.5t-56 -10.5h-5q-26 0 -31.5 13.5zM197 1001q-22 25 2 52q179 179 313 368q20 28 41 38.5t55 10.5h2q59 0 37 -55l-291 -723 q-12 -30 -30.5 -42.5t-51.5 -12.5h-4q-61 0 -39 55l179 455q6 17 0.5 20.5t-17.5 -10.5q-65 -79 -145 -160q-24 -23 -51 4zM719 264q26 60 65 105l355 403q29 34 60 48t75 14h4q40 0 53 -19.5t-2 -56.5l-162 -404q-6 -14 1 -20t24 -2l6 2q23 9 32.5 6t24.5 -23 q23 -26 -2 -51q-36 -36 -88 -51q-41 -12 -58 -27t-32 -55l-31 -78q-12 -31 -30 -43t-51 -12h-5q-60 0 -38 55l36 92q22 58 -38 58h-162q-61 0 -37 59zM880.5 335.5q5.5 -13.5 32.5 -13.5h56q34 0 53 13t31 44l102 262q7 19 1.5 22t-19.5 -12l-244 -282q-18 -20 -12.5 -33.5z " />
<glyph unicode="&#xbd;" horiz-adv-x="1429" d="M77 13.5q-6 13.5 11 33.5l1137 1374q22 26 44 36.5t56 10.5h4q26 0 33 -13.5t-10 -33.5l-1139 -1374q-22 -26 -44 -36.5t-56 -10.5h-4q-26 0 -32 13.5zM197 999q-22 25 2 52q179 179 313 368q20 28 41 38.5t55 10.5h2q59 0 37 -55l-291 -723q-12 -30 -30.5 -42.5 t-51.5 -12.5h-4q-61 0 -39 55l179 455q6 17 0.5 20.5t-17.5 -10.5q-65 -79 -145 -160q-24 -23 -51 4zM739 68q28 66 86 110q123 96 179 144q245 215 245 352q0 33 -15 54.5t-44 21.5q-46 0 -82.5 -39t-52.5 -97q-9 -35 -24 -47t-52 -12h-2q-57 0 -47 59q20 95 88 164.5 t180 69.5q88 0 134 -44t46 -120q0 -63 -29 -128.5t-82.5 -128.5t-97 -105.5t-104.5 -94.5q-71 -57 -82 -67q-19 -15 -15 -27t29 -12h144q64 0 39 -60q-15 -34 -35 -47.5t-55 -13.5h-308q-70 0 -43 68z" />
<glyph unicode="&#xbe;" horiz-adv-x="1536" d="M106 806.5q2 32.5 11 65.5q16 62 78 62h10q32 0 42 -14.5t-1 -45.5q-14 -39 -16.5 -71.5t15 -57t56.5 -24.5q73 0 123.5 73.5t50.5 145.5q0 80 -84 84q-31 3 -39.5 16.5t2.5 42.5q12 30 28.5 42.5t55.5 19.5q48 9 81.5 33t47 52.5t18.5 47.5t5 33q0 24 -13.5 48.5 t-48.5 24.5q-76 0 -118 -94q-15 -35 -32 -46t-56 -11q-26 0 -37 15.5t-2 41.5q26 83 91 138t167 55q47 0 81 -13t51.5 -30t27.5 -41.5t12 -40.5t2 -33q0 -64 -34 -122.5t-101 -94.5q-28 -14 -31.5 -27t16.5 -39q31 -43 31 -104q0 -52 -19 -106.5t-55.5 -103t-97 -79.5 t-135.5 -31q-54 0 -93 17t-58 43.5t-26.5 61t-5.5 67zM183.5 13.5q-5.5 13.5 11.5 33.5l1136 1374q22 26 44.5 36.5t56.5 10.5h4q26 0 32.5 -13.5t-10.5 -33.5l-1139 -1374q-22 -26 -44 -36.5t-56 -10.5h-4q-26 0 -31.5 13.5zM844 264q26 60 65 105l355 403q29 34 60 48 t75 14h4q40 0 53 -19.5t-2 -56.5l-162 -404q-6 -14 1 -20t24 -2l6 2q23 9 32.5 6t24.5 -23q23 -26 -2 -51q-36 -36 -88 -51q-41 -12 -58 -27t-32 -55l-31 -78q-12 -30 -30.5 -42.5t-51.5 -12.5h-4q-61 0 -39 55l37 92q11 28 0.5 43t-39.5 15h-161q-61 0 -37 59z M1005.5 335.5q5.5 -13.5 32.5 -13.5h56q34 0 53 13t31 44l102 262q7 19 1.5 22t-19.5 -12l-244 -282q-18 -20 -12.5 -33.5z" />
<glyph unicode="&#xbf;" horiz-adv-x="870" d="M-31 -158q0 63 24 126.5t64 119.5t89.5 111.5t104.5 110t105 105.5t94 108t68 108q17 36 36 48.5t58 12.5q63 0 41 -61q-36 -92 -104.5 -184t-137 -163t-133 -141.5t-105 -145t-40.5 -147.5q0 -64 31 -101.5t86 -37.5q87 0 157 85.5t91 203.5q8 43 26 58.5t62 15.5 q74 0 65 -74q-9 -80 -36.5 -153t-74.5 -135.5t-122 -100t-168 -37.5q-76 0 -133 23t-88 63t-45.5 85.5t-14.5 96.5zM578 963q0 53 37 90t90 37q52 0 89 -37t37 -90t-37 -90t-89 -37q-53 0 -90 37t-37 90z" />
<glyph unicode="&#xc0;" horiz-adv-x="1689" d="M-147 305q0 155 110 252.5t289 97.5q174 0 377 -104q29 -15 49 -9.5t37 33.5l475 797q13 21 38 64t35.5 59.5t31 49t30.5 45t28 34.5t30.5 30t30 18.5t34.5 14t37 3.5q18 0 37.5 -5t45 -19t40 -39t21 -65.5t-10.5 -97.5l-313 -1185q-15 -60 47 -60q108 4 182 73t180 253 q16 26 43.5 22.5t39 -27t-2.5 -53.5q-125 -219 -225 -304.5t-248 -82.5q-35 0 -52 -12.5t-26 -46.5l-80 -303q-9 -37 -28.5 -42t-44.5 23l-29 35q-29 33 -36.5 66.5t3.5 75.5l51 190q17 61 -41 84q-75 33 -239 119q-29 17 -49.5 12t-40.5 -33q-211 -295 -482 -295 q-168 0 -271 93.5t-103 238.5zM2 313q0 -34 12.5 -67t37.5 -62t70.5 -47t104.5 -18q94 0 177.5 57t168.5 174q38 53 -18 80q-168 86 -303 86q-67 0 -117 -18t-78 -48.5t-41.5 -65t-13.5 -71.5zM846 492q-30 -56 22 -84q114 -64 207 -113q57 -28 72 33l315 1151q3 8 -8 12 q-10 2 -14 -4zM1277.5 2044.5q5.5 15.5 39.5 15.5h41q45 0 75.5 -14t59.5 -49l136 -160q17 -20 11 -32.5t-32 -12.5h-4q-60 0 -104 39l-203 176q-25 22 -19.5 37.5z" />
<glyph unicode="&#xc1;" horiz-adv-x="1689" d="M-147 305q0 155 110 252.5t289 97.5q174 0 377 -104q29 -15 49 -9.5t37 33.5l475 797q13 21 38 64t35.5 59.5t31 49t30.5 45t28 34.5t30.5 30t30 18.5t34.5 14t37 3.5q18 0 37.5 -5t45 -19t40 -39t21 -65.5t-10.5 -97.5l-313 -1185q-15 -60 47 -60q108 4 182 73t180 253 q16 26 43.5 22.5t39 -27t-2.5 -53.5q-125 -219 -225 -304.5t-248 -82.5q-35 0 -52 -12.5t-26 -46.5l-80 -303q-9 -37 -28.5 -42t-44.5 23l-29 35q-29 33 -36.5 66.5t3.5 75.5l51 190q17 61 -41 84q-75 33 -239 119q-29 17 -49.5 12t-40.5 -33q-211 -295 -482 -295 q-168 0 -271 93.5t-103 238.5zM2 313q0 -34 12.5 -67t37.5 -62t70.5 -47t104.5 -18q94 0 177.5 57t168.5 174q38 53 -18 80q-168 86 -303 86q-67 0 -117 -18t-78 -48.5t-41.5 -65t-13.5 -71.5zM846 492q-30 -56 22 -84q114 -64 207 -113q57 -28 72 33l315 1151q3 8 -8 12 q-10 2 -14 -4zM1508 1804.5q-6 12.5 11 32.5l136 160q29 35 59.5 49t75.5 14h41q34 0 39.5 -15.5t-19.5 -37.5l-202 -176q-44 -39 -105 -39h-4q-26 0 -32 12.5z" />
<glyph unicode="&#xc2;" horiz-adv-x="1689" d="M-147 305q0 155 110 252.5t289 97.5q174 0 377 -104q29 -15 49 -9.5t37 33.5l475 797q13 21 38 64t35.5 59.5t31 49t30.5 45t28 34.5t30.5 30t30 18.5t34.5 14t37 3.5q18 0 37.5 -5t45 -19t40 -39t21 -65.5t-10.5 -97.5l-313 -1185q-15 -60 47 -60q108 4 182 73t180 253 q16 26 43.5 22.5t39 -27t-2.5 -53.5q-125 -219 -225 -304.5t-248 -82.5q-35 0 -52 -12.5t-26 -46.5l-80 -303q-9 -37 -28.5 -42t-44.5 23l-29 35q-29 33 -36.5 66.5t3.5 75.5l51 190q17 61 -41 84q-75 33 -239 119q-29 17 -49.5 12t-40.5 -33q-211 -295 -482 -295 q-168 0 -271 93.5t-103 238.5zM2 313q0 -34 12.5 -67t37.5 -62t70.5 -47t104.5 -18q94 0 177.5 57t168.5 174q38 53 -18 80q-168 86 -303 86q-67 0 -117 -18t-78 -48.5t-41.5 -65t-13.5 -71.5zM846 492q-30 -56 22 -84q114 -64 207 -113q57 -28 72 33l315 1151q3 8 -8 12 q-10 2 -14 -4zM1275.5 1805.5q-4.5 13.5 18.5 32.5l313 245q29 23 66 23h4q35 0 51 -33l115 -235q22 -46 -27 -46h-4q-49 0 -74 43l-59 101q-29 54 -80 16l-157 -117q-57 -43 -129 -43h-5q-28 0 -32.5 13.5z" />
<glyph unicode="&#xc3;" horiz-adv-x="1689" d="M-147 305q0 155 110 252.5t289 97.5q174 0 377 -104q29 -15 49 -9.5t37 33.5l475 797q13 21 38 64t35.5 59.5t31 49t30.5 45t28 34.5t30.5 30t30 18.5t34.5 14t37 3.5q18 0 37.5 -5t45 -19t40 -39t21 -65.5t-10.5 -97.5l-313 -1185q-15 -60 47 -60q108 4 182 73t180 253 q16 26 43.5 22.5t39 -27t-2.5 -53.5q-125 -219 -225 -304.5t-248 -82.5q-35 0 -52 -12.5t-26 -46.5l-80 -303q-9 -37 -28.5 -42t-44.5 23l-29 35q-29 33 -36.5 66.5t3.5 75.5l51 190q17 61 -41 84q-75 33 -239 119q-29 17 -49.5 12t-40.5 -33q-211 -295 -482 -295 q-168 0 -271 93.5t-103 238.5zM2 313q0 -34 12.5 -67t37.5 -62t70.5 -47t104.5 -18q94 0 177.5 57t168.5 174q38 53 -18 80q-168 86 -303 86q-67 0 -117 -18t-78 -48.5t-41.5 -65t-13.5 -71.5zM846 492q-30 -56 22 -84q114 -64 207 -113q57 -28 72 33l315 1151q3 8 -8 12 q-10 2 -14 -4zM1299 1831q-23 29 2 57q85 94 168 94q39 0 75.5 -12t60 -26.5t53 -26.5t55.5 -12q46 0 86 40q15 15 26.5 14t24.5 -18q22 -32 -2 -59q-81 -90 -168 -90q-49 0 -92.5 19.5t-81 39t-70.5 19.5q-41 0 -86 -45q-15 -15 -26.5 -14t-24.5 20z" />
<glyph unicode="&#xc4;" horiz-adv-x="1689" d="M-147 305q0 155 110 252.5t289 97.5q174 0 377 -104q29 -15 49 -9.5t37 33.5l475 797q13 21 38 64t35.5 59.5t31 49t30.5 45t28 34.5t30.5 30t30 18.5t34.5 14t37 3.5q18 0 37.5 -5t45 -19t40 -39t21 -65.5t-10.5 -97.5l-313 -1185q-15 -60 47 -60q108 4 182 73t180 253 q16 26 43.5 22.5t39 -27t-2.5 -53.5q-125 -219 -225 -304.5t-248 -82.5q-35 0 -52 -12.5t-26 -46.5l-80 -303q-9 -37 -28.5 -42t-44.5 23l-29 35q-29 33 -36.5 66.5t3.5 75.5l51 190q17 61 -41 84q-75 33 -239 119q-29 17 -49.5 12t-40.5 -33q-211 -295 -482 -295 q-168 0 -271 93.5t-103 238.5zM2 313q0 -34 12.5 -67t37.5 -62t70.5 -47t104.5 -18q94 0 177.5 57t168.5 174q38 53 -18 80q-168 86 -303 86q-67 0 -117 -18t-78 -48.5t-41.5 -65t-13.5 -71.5zM846 492q-30 -56 22 -84q114 -64 207 -113q57 -28 72 33l315 1151q3 8 -8 12 q-10 2 -14 -4zM1268 1913q0 47 33.5 79.5t80.5 32.5q46 0 80.5 -32.5t34.5 -79.5t-34.5 -82t-80.5 -35q-47 0 -80.5 34.5t-33.5 82.5zM1606 1913q0 47 33.5 79.5t80.5 32.5q46 0 80.5 -32.5t34.5 -79.5t-34.5 -82t-80.5 -35q-47 0 -80.5 34.5t-33.5 82.5z" />
<glyph unicode="&#xc5;" horiz-adv-x="1689" d="M-147 305q0 155 110 252.5t289 97.5q174 0 377 -104q29 -15 49 -9.5t37 33.5l475 797q13 21 38 64t35.5 59.5t31 49t30.5 45t28 34.5t30.5 30t30 18.5t34.5 14t37 3.5q18 0 37.5 -5t45 -19t40 -39t21 -65.5t-10.5 -97.5l-313 -1185q-15 -60 47 -60q108 4 182 73t180 253 q16 26 43.5 22.5t39 -27t-2.5 -53.5q-125 -219 -225 -304.5t-248 -82.5q-35 0 -52 -12.5t-26 -46.5l-80 -303q-9 -37 -28.5 -42t-44.5 23l-29 35q-29 33 -36.5 66.5t3.5 75.5l51 190q17 61 -41 84q-75 33 -239 119q-29 17 -49.5 12t-40.5 -33q-211 -295 -482 -295 q-168 0 -271 93.5t-103 238.5zM2 313q0 -34 12.5 -67t37.5 -62t70.5 -47t104.5 -18q94 0 177.5 57t168.5 174q38 53 -18 80q-168 86 -303 86q-67 0 -117 -18t-78 -48.5t-41.5 -65t-13.5 -71.5zM846 492q-30 -56 22 -84q114 -64 207 -113q57 -28 72 33l315 1151q3 8 -8 12 q-10 2 -14 -4zM1417 1968q0 86 62.5 148.5t148.5 62.5q88 0 150.5 -62.5t62.5 -148.5q0 -89 -62.5 -151t-150.5 -62q-87 0 -149 62t-62 151zM1524 1968q0 -44 30.5 -75t73.5 -31q44 0 75.5 31t31.5 75q0 43 -31.5 74t-75.5 31q-43 0 -73.5 -31t-30.5 -74z" />
<glyph unicode="&#xc6;" horiz-adv-x="2430" d="M-147 305q0 155 110 252.5t289 97.5q174 0 377 -104q29 -15 49 -9.5t37 33.5l475 797q13 21 38 64t35.5 59.5t31 49t30.5 45t28 34.5t30.5 30t30 18.5t34.5 14t37 3.5q18 0 37.5 -5t45 -19t40 -39t21 -65.5t-10.5 -97.5l-139 -532q-7 -26 3.5 -36t35.5 1q105 42 219 39 q31 0 40.5 12t2.5 43q-21 78 -21 150q0 129 66 252q17 32 20 53.5t-4 56.5q-25 112 -16 228q3 56 59 47q31 -5 42.5 -19t8.5 -45q-2 -34 2 -96q1 -29 17 -36.5t39 9.5q137 97 305 97q87 0 157.5 -28t111.5 -73.5t62.5 -97t20.5 -103.5q-3 -129 -98 -224t-252 -95 q-98 0 -185 43t-149 121q-15 21 -30 17.5t-19 -29.5q-11 -61 -9.5 -120t26 -120.5t69.5 -108.5q29 -30 32.5 -51.5t-14.5 -50.5q-20 -34 -40.5 -40t-55.5 13q-88 47 -186 47q-109 0 -198.5 -58t-138 -152.5t-48.5 -202.5q0 -163 106 -278t277 -115q100 0 182 40.5 t131.5 105.5t72 145.5t11.5 162.5q-6 43 7 62.5t54 31.5q72 18 84 -53q22 -135 -13 -256.5t-111.5 -207t-188.5 -135.5t-240 -50q-133 0 -246 55.5t-190 151.5q-35 45 -51 -10l-76 -287q-9 -37 -28.5 -42t-44.5 23l-29 35q-29 33 -36.5 66.5t3.5 75.5l51 190q17 61 -41 84 q-75 33 -239 119q-29 17 -49.5 12t-40.5 -33q-212 -297 -482 -297q-168 0 -271 94.5t-103 239.5zM2 313q0 -34 12.5 -67.5t37.5 -63.5t70.5 -48.5t104.5 -18.5q93 0 177 58.5t169 176.5q38 53 -18 80q-168 86 -303 86q-67 0 -117 -18t-78 -48.5t-41.5 -65t-13.5 -71.5z M846 492q-30 -56 22 -84q114 -64 207 -113q57 -28 72 33l315 1151q2 7 -8 12q-9 3 -14 -4zM2020.5 1383q-1.5 -27 17.5 -50q48 -64 114.5 -100.5t139.5 -36.5q53 0 94.5 17.5t64.5 45t34.5 55.5t11.5 54q0 25 -10.5 50.5t-33 51t-65.5 41t-100 15.5q-141 0 -244 -96 q-22 -20 -23.5 -47z" />
<glyph unicode="&#xc7;" horiz-adv-x="1341" d="M0 1116q0 127 59 239t150 183q57 44 96 -14q26 -36 23.5 -58t-33.5 -49q-69 -60 -111.5 -141t-42.5 -168q0 -98 65.5 -188.5t166.5 -131.5q65 -25 86 37q49 135 112 262t141 241t161 199t176.5 135t183.5 50q123 0 193.5 -87t70.5 -218q0 -120 -52.5 -258t-164.5 -258 q-253 -272 -653 -283q-33 -2 -50 -14.5t-26 -44.5q-45 -167 -45 -297q0 -223 196 -223q160 0 344.5 142.5t319.5 373.5q16 26 43.5 22.5t39 -27t-2.5 -53.5q-73 -127 -155 -230.5t-176.5 -187t-202.5 -132.5t-220 -56q-18 0 -30 -18q-9 -20 10 -23q41 -2 68.5 -34t27.5 -89 q0 -76 -52 -125.5t-125.5 -63.5t-148.5 1q-22 3 -27.5 17.5t7.5 33.5q17 26 30 32t50 3q27 -2 54 2t52.5 14t41.5 31t16 49q0 56 -66 66q-55 6 -29 57q12 25 5.5 40t-35.5 24q-201 66 -201 362q0 145 39 311q9 34 -1 51.5t-42 28.5q-90 34 -157.5 89.5t-105 119.5t-55.5 128 t-18 128zM642.5 763q10.5 -14 39.5 -11q135 12 254 71.5t207 155.5q85 94 134.5 201.5t49.5 199.5q0 75 -32 119.5t-89 44.5q-88 0 -195 -111t-199.5 -274.5t-168.5 -355.5q-11 -26 -0.5 -40z" />
<glyph unicode="&#xc8;" horiz-adv-x="1249" d="M0 373q0 148 72 277.5t201 208t282 77.5q31 0 40.5 12t2.5 43q-20 74 -20 150q0 131 65 252q17 32 20 53.5t-4 56.5q-25 112 -16 228q3 56 59 47q31 -5 43 -19.5t9 -44.5q-2 -34 2 -96q2 -29 17 -36.5t38 9.5q137 97 305 97q87 0 157.5 -28t111.5 -73.5t62.5 -97 t20.5 -103.5q-3 -129 -98 -224t-252 -95q-99 0 -186 43.5t-146 120.5q-11 13 -21.5 16.5t-18 -4t-11.5 -24.5q-11 -60 -9.5 -119t26 -121t69.5 -109q29 -31 32.5 -51t-13.5 -51q-18 -32 -39.5 -38.5t-57.5 11.5q-88 47 -186 47q-109 0 -198.5 -58t-138 -152.5t-48.5 -202.5 q0 -162 105.5 -276.5t273.5 -114.5q99 0 180.5 40t131 104.5t72 144.5t11.5 161q-4 44 9.5 64t56.5 32q74 18 86 -55q22 -134 -13.5 -255.5t-112.5 -206.5t-189 -135t-240 -50q-150 0 -275.5 74t-196.5 199t-71 272zM838.5 1383q-1.5 -27 17.5 -50q48 -64 114.5 -100.5 t139.5 -36.5q53 0 94.5 17.5t64.5 45t34.5 55.5t11.5 54q0 25 -10.5 50.5t-33 51t-65.5 41t-100 15.5q-143 0 -244 -94q-22 -22 -23.5 -49zM1043.5 2038.5q5.5 15.5 39.5 15.5h41q45 0 75.5 -14t59.5 -49l136 -160q17 -20 11 -32.5t-32 -12.5h-4q-60 0 -104 39l-203 176 q-25 22 -19.5 37.5z" />
<glyph unicode="&#xc9;" horiz-adv-x="1249" d="M0 373q0 148 72 277.5t201 208t282 77.5q31 0 40.5 12t2.5 43q-20 74 -20 150q0 131 65 252q17 32 20 53.5t-4 56.5q-25 112 -16 228q3 56 59 47q31 -5 43 -19.5t9 -44.5q-2 -34 2 -96q2 -29 17 -36.5t38 9.5q137 97 305 97q87 0 157.5 -28t111.5 -73.5t62.5 -97 t20.5 -103.5q-3 -129 -98 -224t-252 -95q-99 0 -186 43.5t-146 120.5q-11 13 -21.5 16.5t-18 -4t-11.5 -24.5q-11 -60 -9.5 -119t26 -121t69.5 -109q29 -31 32.5 -51t-13.5 -51q-18 -32 -39.5 -38.5t-57.5 11.5q-88 47 -186 47q-109 0 -198.5 -58t-138 -152.5t-48.5 -202.5 q0 -162 105.5 -276.5t273.5 -114.5q99 0 180.5 40t131 104.5t72 144.5t11.5 161q-4 44 9.5 64t56.5 32q74 18 86 -55q22 -134 -13.5 -255.5t-112.5 -206.5t-189 -135t-240 -50q-150 0 -275.5 74t-196.5 199t-71 272zM838.5 1383q-1.5 -27 17.5 -50q48 -64 114.5 -100.5 t139.5 -36.5q53 0 94.5 17.5t64.5 45t34.5 55.5t11.5 54q0 25 -10.5 50.5t-33 51t-65.5 41t-100 15.5q-143 0 -244 -94q-22 -22 -23.5 -49zM1211 1798.5q-6 12.5 11 32.5l136 160q29 35 59.5 49t75.5 14h41q34 0 39.5 -15.5t-19.5 -37.5l-202 -176q-44 -39 -105 -39h-4 q-26 0 -32 12.5z" />
<glyph unicode="&#xca;" horiz-adv-x="1249" d="M0 373q0 148 72 277.5t201 208t282 77.5q31 0 40.5 12t2.5 43q-20 74 -20 150q0 131 65 252q17 32 20 53.5t-4 56.5q-25 112 -16 228q3 56 59 47q31 -5 43 -19.5t9 -44.5q-2 -34 2 -96q2 -29 17 -36.5t38 9.5q137 97 305 97q87 0 157.5 -28t111.5 -73.5t62.5 -97 t20.5 -103.5q-3 -129 -98 -224t-252 -95q-99 0 -186 43.5t-146 120.5q-11 13 -21.5 16.5t-18 -4t-11.5 -24.5q-11 -60 -9.5 -119t26 -121t69.5 -109q29 -31 32.5 -51t-13.5 -51q-18 -32 -39.5 -38.5t-57.5 11.5q-88 47 -186 47q-109 0 -198.5 -58t-138 -152.5t-48.5 -202.5 q0 -162 105.5 -276.5t273.5 -114.5q99 0 180.5 40t131 104.5t72 144.5t11.5 161q-4 44 9.5 64t56.5 32q74 18 86 -55q22 -134 -13.5 -255.5t-112.5 -206.5t-189 -135t-240 -50q-150 0 -275.5 74t-196.5 199t-71 272zM838.5 1383q-1.5 -27 17.5 -50q48 -64 114.5 -100.5 t139.5 -36.5q53 0 94.5 17.5t64.5 45t34.5 55.5t11.5 54q0 25 -10.5 50.5t-33 51t-65.5 41t-100 15.5q-143 0 -244 -94q-22 -22 -23.5 -49zM974.5 1798.5q-4.5 13.5 18.5 32.5l313 245q29 23 66 23h4q35 0 51 -33l115 -235q22 -46 -27 -46h-4q-49 0 -74 43l-59 101 q-29 54 -80 16l-157 -117q-57 -43 -129 -43h-5q-28 0 -32.5 13.5z" />
<glyph unicode="&#xcb;" horiz-adv-x="1249" d="M0 373q0 148 72 277.5t201 208t282 77.5q31 0 40.5 12t2.5 43q-20 74 -20 150q0 131 65 252q17 32 20 53.5t-4 56.5q-25 112 -16 228q3 56 59 47q31 -5 43 -19.5t9 -44.5q-2 -34 2 -96q2 -29 17 -36.5t38 9.5q137 97 305 97q87 0 157.5 -28t111.5 -73.5t62.5 -97 t20.5 -103.5q-3 -129 -98 -224t-252 -95q-99 0 -186 43.5t-146 120.5q-11 13 -21.5 16.5t-18 -4t-11.5 -24.5q-11 -60 -9.5 -119t26 -121t69.5 -109q29 -31 32.5 -51t-13.5 -51q-18 -32 -39.5 -38.5t-57.5 11.5q-88 47 -186 47q-109 0 -198.5 -58t-138 -152.5t-48.5 -202.5 q0 -162 105.5 -276.5t273.5 -114.5q99 0 180.5 40t131 104.5t72 144.5t11.5 161q-4 44 9.5 64t56.5 32q74 18 86 -55q22 -134 -13.5 -255.5t-112.5 -206.5t-189 -135t-240 -50q-150 0 -275.5 74t-196.5 199t-71 272zM838.5 1383q-1.5 -27 17.5 -50q48 -64 114.5 -100.5 t139.5 -36.5q53 0 94.5 17.5t64.5 45t34.5 55.5t11.5 54q0 25 -10.5 50.5t-33 51t-65.5 41t-100 15.5q-143 0 -244 -94q-22 -22 -23.5 -49zM991 1905q0 47 33.5 79.5t81.5 32.5q46 0 80.5 -32.5t34.5 -79.5t-34.5 -82t-80.5 -35q-47 0 -81 35t-34 82zM1329 1905 q0 47 33.5 79.5t81.5 32.5q46 0 80.5 -32.5t34.5 -79.5t-34.5 -82t-80.5 -35q-47 0 -81 35t-34 82z" />
<glyph unicode="&#xcc;" horiz-adv-x="1138" d="M-125 227q0 152 100 266t248 136q34 5 53 -12t19 -52q0 -42 -15 -59.5t-57 -26.5q-94 -18 -148.5 -93.5t-54.5 -164.5q0 -45 15.5 -87.5t46 -80.5t84.5 -61t123 -23q77 0 141.5 31.5t116.5 94.5t92 137.5t82 179.5l358 891q9 23 0 32t-32 0q-24 -10 -83.5 -32.5 t-95 -36.5t-93 -40.5t-93 -48.5t-79 -55.5t-68 -66.5t-41.5 -76t-17 -90q0 -64 25.5 -112.5t75.5 -69.5q45 -20 57 -39t12 -70q-3 -28 -22 -40t-50 -5q-115 24 -182 118.5t-65 211.5q0 69 22.5 131.5t57 109.5t90.5 92t107.5 76t125 64.5t126.5 54t128.5 49.5t114.5 45 q64 26 112 86q85 102 183 127q55 13 71 -45q10 -35 4 -52t-36 -40q-84 -55 -136 -182l-460 -1129q-43 -104 -99 -184.5t-111.5 -129t-117.5 -80t-115.5 -43t-107.5 -11.5q-121 0 -216.5 57.5t-145.5 149.5t-50 198zM1095 2089.5q6 15.5 40 15.5h41q45 0 75.5 -14t59.5 -49 l135 -160q17 -20 11 -32.5t-32 -12.5h-4q-60 0 -104 39l-203 176q-25 22 -19 37.5z" />
<glyph unicode="&#xcd;" horiz-adv-x="1138" d="M-125 227q0 152 100 266t248 136q34 5 53 -12t19 -52q0 -42 -15 -59.5t-57 -26.5q-94 -18 -148.5 -93.5t-54.5 -164.5q0 -45 15.5 -87.5t46 -80.5t84.5 -61t123 -23q77 0 141.5 31.5t116.5 94.5t92 137.5t82 179.5l358 891q9 23 0 32t-32 0q-24 -10 -83.5 -32.5 t-95 -36.5t-93 -40.5t-93 -48.5t-79 -55.5t-68 -66.5t-41.5 -76t-17 -90q0 -64 25.5 -112.5t75.5 -69.5q45 -20 57 -39t12 -70q-3 -28 -22 -40t-50 -5q-115 24 -182 118.5t-65 211.5q0 69 22.5 131.5t57 109.5t90.5 92t107.5 76t125 64.5t126.5 54t128.5 49.5t114.5 45 q64 26 112 86q85 102 183 127q55 13 71 -45q10 -35 4 -52t-36 -40q-84 -55 -136 -182l-460 -1129q-43 -104 -99 -184.5t-111.5 -129t-117.5 -80t-115.5 -43t-107.5 -11.5q-121 0 -216.5 57.5t-145.5 149.5t-50 198zM1334 1849.5q-6 12.5 11 32.5l136 160q29 35 59.5 49 t75.5 14h41q34 0 39.5 -15.5t-19.5 -37.5l-202 -176q-44 -39 -105 -39h-4q-26 0 -32 12.5z" />
<glyph unicode="&#xce;" horiz-adv-x="1138" d="M-125 227q0 152 100 266t248 136q34 5 53 -12t19 -52q0 -42 -15 -59.5t-57 -26.5q-94 -18 -148.5 -93.5t-54.5 -164.5q0 -45 15.5 -87.5t46 -80.5t84.5 -61t123 -23q77 0 141.5 31.5t116.5 94.5t92 137.5t82 179.5l358 891q9 23 0 32t-32 0q-24 -10 -83.5 -32.5 t-95 -36.5t-93 -40.5t-93 -48.5t-79 -55.5t-68 -66.5t-41.5 -76t-17 -90q0 -64 25.5 -112.5t75.5 -69.5q45 -20 57 -39t12 -70q-3 -28 -22 -40t-50 -5q-115 24 -182 118.5t-65 211.5q0 69 22.5 131.5t57 109.5t90.5 92t107.5 76t125 64.5t126.5 54t128.5 49.5t114.5 45 q64 26 112 86q85 102 183 127q55 13 71 -45q10 -35 4 -52t-36 -40q-84 -55 -136 -182l-460 -1129q-43 -104 -99 -184.5t-111.5 -129t-117.5 -80t-115.5 -43t-107.5 -11.5q-121 0 -216.5 57.5t-145.5 149.5t-50 198zM1042.5 1850q-4.5 13 18.5 32l313 246q28 22 66 22h4 q36 0 51 -32l115 -236q22 -45 -27 -45h-4q-49 0 -74 43l-59 100q-30 55 -80 17l-158 -117q-57 -43 -129 -43h-4q-28 0 -32.5 13z" />
<glyph unicode="&#xcf;" horiz-adv-x="1138" d="M-125 227q0 152 100 266t248 136q34 5 53 -12t19 -52q0 -42 -15 -59.5t-57 -26.5q-94 -18 -148.5 -93.5t-54.5 -164.5q0 -45 15.5 -87.5t46 -80.5t84.5 -61t123 -23q77 0 141.5 31.5t116.5 94.5t92 137.5t82 179.5l358 891q9 23 0 32t-32 0q-24 -10 -83.5 -32.5 t-95 -36.5t-93 -40.5t-93 -48.5t-79 -55.5t-68 -66.5t-41.5 -76t-17 -90q0 -64 25.5 -112.5t75.5 -69.5q45 -20 57 -39t12 -70q-3 -28 -22 -40t-50 -5q-115 24 -182 118.5t-65 211.5q0 69 22.5 131.5t57 109.5t90.5 92t107.5 76t125 64.5t126.5 54t128.5 49.5t114.5 45 q64 26 112 86q85 102 183 127q55 13 71 -45q10 -35 4 -52t-36 -40q-84 -55 -136 -182l-460 -1129q-43 -104 -99 -184.5t-111.5 -129t-117.5 -80t-115.5 -43t-107.5 -11.5q-121 0 -216.5 57.5t-145.5 149.5t-50 198zM1090 1958q0 47 33.5 80t80.5 33q46 0 80.5 -33t34.5 -80 t-34.5 -82t-80.5 -35q-47 0 -80.5 34.5t-33.5 82.5zM1428 1958q0 47 33.5 80t80.5 33q46 0 80.5 -33t34.5 -80t-34.5 -82t-80.5 -35q-47 0 -80.5 34.5t-33.5 82.5z" />
<glyph unicode="&#xd0;" horiz-adv-x="1884" d="M-63 182q0 106 78 190.5t214 84.5q81 0 151 -33t161 -107q46 -40 77 13q31 47 68 123q13 26 3.5 40.5t-38.5 14.5h-33q-38 0 -51 20t2 58q17 40 42.5 56.5t68.5 16.5h33q33 0 52.5 13.5t31.5 44.5l192 475q38 93 103.5 160.5t142.5 87.5q26 7 45 -3.5t27 -35.5 q11 -38 5 -55.5t-38 -40.5q-76 -56 -131 -183l-168 -405q-11 -28 -0.5 -43t39.5 -15h26q80 0 50 -77q-17 -40 -42.5 -57t-68.5 -17h-23q-34 0 -53 -12.5t-31 -44.5q-53 -129 -124 -230q-19 -26 -15.5 -45.5t29.5 -38.5q132 -98 252 -98q99 0 198.5 57t180.5 155t144.5 220.5 t98.5 262.5t35 272q0 121 -31 223.5t-90 179.5t-153 120.5t-213 43.5q-135 0 -253 -58t-194 -146.5t-119 -190t-43 -193.5q0 -60 19 -123q13 -46 5 -70t-46 -53h-2q-28 -20 -53 -12.5t-37 39.5q-35 103 -35 213q0 153 64 290.5t169.5 233.5t246 152.5t290.5 56.5 q134 0 249.5 -46.5t202 -132.5t136 -219.5t49.5 -297.5q0 -125 -28 -258t-79 -258.5t-126 -237.5t-164 -195.5t-199.5 -132.5t-226.5 -49q-93 0 -170 34t-176 110q-28 22 -49.5 22t-49.5 -22q-155 -105 -319 -105q-141 0 -225 74.5t-84 183.5zM78 188q0 -53 47.5 -84.5 t128.5 -31.5q97 0 184 61q25 17 26 38.5t-22 41.5q-123 104 -221 104q-59 0 -101 -40.5t-42 -88.5z" />
<glyph unicode="&#xd1;" horiz-adv-x="1437" d="M0 893q0 71 23.5 135t60.5 112.5t95 94.5t115 78t134 67t137.5 58.5t140 54.5t128.5 53q75 34 96 -45l35 -112q15 -60 63 -21q240 195 377 195q69 0 116.5 -44t47.5 -120q0 -84 -80 -285l-445 -1110q-54 -136 9 -213q35 -41 40 -67t-14 -76q-14 -37 -39.5 -44.5 t-56.5 17.5q-208 159 -94 442l407 1014q90 228 90 252q0 66 -53 66q-63 0 -181 -75.5t-214 -168.5q-41 -41 -61 -92l-406 -1010q-17 -41 -43 -58.5t-70 -17.5h-14q-40 0 -53 19.5t2 56.5l512 1278q9 25 -0.5 34.5t-34.5 0.5q-22 -8 -74 -27t-82 -30t-81.5 -31.5t-83.5 -36.5 t-76.5 -40t-73 -46t-59.5 -51.5t-49 -59t-29.5 -65.5t-11.5 -74q0 -64 25 -112.5t73 -69.5q47 -22 59 -40t12 -69q-3 -29 -21.5 -41.5t-49.5 -5.5q-115 25 -182.5 119t-65.5 211zM1061 1745q-23 29 2 57q85 94 168 94q39 0 75.5 -12t60 -26.5t53 -26.5t55.5 -12q46 0 86 40 q15 15 26.5 14t24.5 -18q22 -32 -2 -59q-81 -90 -168 -90q-49 0 -92.5 19.5t-81 39t-70.5 19.5q-41 0 -86 -45q-15 -15 -26.5 -14t-24.5 20z" />
<glyph unicode="&#xd2;" horiz-adv-x="1378" d="M2 260q0 149 49.5 337t133 367t205 334.5t253.5 233.5q52 31 102 76q107 96 240 96q145 0 229 -111t84 -293q0 -192 -59.5 -416.5t-165.5 -439.5q-12 -25 -2.5 -42.5t37.5 -20.5q54 -7 104 7t87 42.5t61.5 56.5t42.5 58q16 25 43.5 20.5t39 -27.5t-2.5 -51 q-77 -120 -196 -169.5t-236 -30.5q-34 5 -51.5 -3.5t-36.5 -37.5q-127 -199 -278.5 -314.5t-315.5 -115.5q-94 0 -166 35t-115 96.5t-64.5 140.5t-21.5 172zM170 242q0 -54 10 -101.5t32 -90.5t64 -68t99 -25q102 0 214.5 95.5t211.5 254.5q20 31 17 51t-30 45 q-25 23 -49 50t-54.5 71.5t-55 94t-46 118t-32 142.5t-9 168.5t18.5 195.5q4 22 -4 25.5t-22 -13.5q-136 -185 -250.5 -497.5t-114.5 -515.5zM688 999q0 -149 41 -274t117 -211q20 -23 40 -20.5t32 30.5q97 200 156 421t59 335q0 134 -47.5 194t-127.5 60q-77 0 -140 -76.5 t-96.5 -198t-33.5 -260.5zM769 2044.5q6 15.5 40 15.5h41q45 0 75.5 -14t59.5 -49l135 -160q17 -20 11.5 -32.5t-31.5 -12.5h-4q-61 0 -105 39l-203 176q-25 22 -19 37.5z" />
<glyph unicode="&#xd3;" horiz-adv-x="1378" d="M2 260q0 149 49.5 337t133 367t205 334.5t253.5 233.5q52 31 102 76q107 96 240 96q145 0 229 -111t84 -293q0 -192 -59.5 -416.5t-165.5 -439.5q-12 -25 -2.5 -42.5t37.5 -20.5q54 -7 104 7t87 42.5t61.5 56.5t42.5 58q16 25 43.5 20.5t39 -27.5t-2.5 -51 q-77 -120 -196 -169.5t-236 -30.5q-34 5 -51.5 -3.5t-36.5 -37.5q-127 -199 -278.5 -314.5t-315.5 -115.5q-94 0 -166 35t-115 96.5t-64.5 140.5t-21.5 172zM170 242q0 -54 10 -101.5t32 -90.5t64 -68t99 -25q102 0 214.5 95.5t211.5 254.5q20 31 17 51t-30 45 q-25 23 -49 50t-54.5 71.5t-55 94t-46 118t-32 142.5t-9 168.5t18.5 195.5q4 22 -4 25.5t-22 -13.5q-136 -185 -250.5 -497.5t-114.5 -515.5zM688 999q0 -149 41 -274t117 -211q20 -23 40 -20.5t32 30.5q97 200 156 421t59 335q0 134 -47.5 194t-127.5 60q-77 0 -140 -76.5 t-96.5 -198t-33.5 -260.5zM959 1804.5q-6 12.5 11 32.5l136 160q29 35 59.5 49t75.5 14h41q34 0 39.5 -15.5t-19.5 -37.5l-202 -176q-44 -39 -105 -39h-4q-26 0 -32 12.5z" />
<glyph unicode="&#xd4;" horiz-adv-x="1378" d="M2 260q0 149 49.5 337t133 367t205 334.5t253.5 233.5q52 31 102 76q107 96 240 96q145 0 229 -111t84 -293q0 -192 -59.5 -416.5t-165.5 -439.5q-12 -25 -2.5 -42.5t37.5 -20.5q54 -7 104 7t87 42.5t61.5 56.5t42.5 58q16 25 43.5 20.5t39 -27.5t-2.5 -51 q-77 -120 -196 -169.5t-236 -30.5q-34 5 -51.5 -3.5t-36.5 -37.5q-127 -199 -278.5 -314.5t-315.5 -115.5q-94 0 -166 35t-115 96.5t-64.5 140.5t-21.5 172zM170 242q0 -54 10 -101.5t32 -90.5t64 -68t99 -25q102 0 214.5 95.5t211.5 254.5q20 31 17 51t-30 45 q-25 23 -49 50t-54.5 71.5t-55 94t-46 118t-32 142.5t-9 168.5t18.5 195.5q4 22 -4 25.5t-22 -13.5q-136 -185 -250.5 -497.5t-114.5 -515.5zM688 999q0 -149 41 -274t117 -211q20 -23 40 -20.5t32 30.5q97 200 156 421t59 335q0 134 -47.5 194t-127.5 60q-77 0 -140 -76.5 t-96.5 -198t-33.5 -260.5zM768 1805q-5 13 18 32l314 246q28 22 65 22h4q37 0 52 -32l114 -236q22 -45 -26 -45h-4q-49 0 -74 43l-60 100q-29 55 -79 17l-158 -117q-57 -43 -129 -43h-4q-28 0 -33 13z" />
<glyph unicode="&#xd5;" horiz-adv-x="1378" d="M2 260q0 149 49.5 337t133 367t205 334.5t253.5 233.5q52 31 102 76q107 96 240 96q145 0 229 -111t84 -293q0 -192 -59.5 -416.5t-165.5 -439.5q-12 -25 -2.5 -42.5t37.5 -20.5q54 -7 104 7t87 42.5t61.5 56.5t42.5 58q16 25 43.5 20.5t39 -27.5t-2.5 -51 q-77 -120 -196 -169.5t-236 -30.5q-34 5 -51.5 -3.5t-36.5 -37.5q-127 -199 -278.5 -314.5t-315.5 -115.5q-94 0 -166 35t-115 96.5t-64.5 140.5t-21.5 172zM170 242q0 -54 10 -101.5t32 -90.5t64 -68t99 -25q102 0 214.5 95.5t211.5 254.5q20 31 17 51t-30 45 q-25 23 -49 50t-54.5 71.5t-55 94t-46 118t-32 142.5t-9 168.5t18.5 195.5q4 22 -4 25.5t-22 -13.5q-136 -185 -250.5 -497.5t-114.5 -515.5zM688 999q0 -149 41 -274t117 -211q20 -23 40 -20.5t32 30.5q97 200 156 421t59 335q0 134 -47.5 194t-127.5 60q-77 0 -140 -76.5 t-96.5 -198t-33.5 -260.5zM811 1831q-23 29 2 57q85 94 168 94q39 0 75.5 -12t60 -26.5t53 -26.5t55.5 -12q45 0 86 41q15 15 26.5 14t24.5 -18q23 -32 -2 -60q-81 -90 -168 -90q-49 0 -92.5 19.5t-81 39t-70.5 19.5q-41 0 -86 -45q-15 -15 -26.5 -14t-24.5 20z" />
<glyph unicode="&#xd6;" horiz-adv-x="1378" d="M2 260q0 149 49.5 337t133 367t205 334.5t253.5 233.5q52 31 102 76q107 96 240 96q145 0 229 -111t84 -293q0 -192 -59.5 -416.5t-165.5 -439.5q-12 -25 -2.5 -42.5t37.5 -20.5q54 -7 104 7t87 42.5t61.5 56.5t42.5 58q16 25 43.5 20.5t39 -27.5t-2.5 -51 q-77 -120 -196 -169.5t-236 -30.5q-34 5 -51.5 -3.5t-36.5 -37.5q-127 -199 -278.5 -314.5t-315.5 -115.5q-94 0 -166 35t-115 96.5t-64.5 140.5t-21.5 172zM170 242q0 -54 10 -101.5t32 -90.5t64 -68t99 -25q102 0 214.5 95.5t211.5 254.5q20 31 17 51t-30 45 q-25 23 -49 50t-54.5 71.5t-55 94t-46 118t-32 142.5t-9 168.5t18.5 195.5q4 22 -4 25.5t-22 -13.5q-136 -185 -250.5 -497.5t-114.5 -515.5zM688 999q0 -149 41 -274t117 -211q20 -23 40 -20.5t32 30.5q97 200 156 421t59 335q0 134 -47.5 194t-127.5 60q-77 0 -140 -76.5 t-96.5 -198t-33.5 -260.5zM795 1913q0 47 33.5 80t80.5 33q46 0 80.5 -33t34.5 -80t-34.5 -82t-80.5 -35q-47 0 -80.5 34.5t-33.5 82.5zM1133 1913q0 47 33.5 80t80.5 33q46 0 80.5 -33t34.5 -80t-34.5 -82t-80.5 -35q-47 0 -80.5 34.5t-33.5 82.5z" />
<glyph unicode="&#xd7;" horiz-adv-x="1183" d="M92 272q-35 60 21 101l274 194q51 39 19 90l-74 123q-20 35 -15 60.5t37 50.5q35 24 60 19.5t45 -38.5l76 -124q30 -56 79 -19l287 205q57 42 96 -23q20 -32 15.5 -56t-35.5 -46l-289 -201q-27 -18 -31.5 -39.5t11.5 -48.5l90 -151q21 -34 15 -59t-40 -52 q-61 -41 -100 21l-88 147q-34 54 -84 18l-275 -194q-29 -20 -50.5 -15t-43.5 37z" />
<glyph unicode="&#xd8;" horiz-adv-x="1378" d="M2 260q0 149 49.5 337t133 367t205 334.5t253.5 233.5q52 31 102 76q85 79 191 94q38 4 55.5 18.5t32.5 51.5l4 14q19 45 68 45h4q49 0 30 -45l-14 -35q-12 -34 -6 -53t35 -41q153 -103 153 -357q0 -192 -59.5 -416.5t-165.5 -439.5q-12 -25 -2.5 -42.5t37.5 -20.5 q54 -7 104 7t87 42.5t61.5 56.5t42.5 58q16 26 43.5 21t38.5 -28.5t-2 -50.5q-77 -120 -196 -169.5t-236 -30.5q-34 5 -51.5 -3.5t-36.5 -37.5q-264 -411 -566 -430q-37 -3 -55 -16t-33 -48l-24 -61q-19 -45 -68 -45h-4q-23 0 -31.5 11.5t0.5 33.5l33 78q13 34 7.5 51.5 t-36.5 36.5q-81 47 -132.5 147.5t-51.5 255.5zM170 242q0 -54 10 -101.5t32 -90.5t64 -68t99 -25q103 0 215.5 95.5t212.5 254.5q19 31 16.5 51t-28.5 45q-25 23 -49 50t-55 71.5t-55.5 93.5t-46.5 118t-33 143t-9.5 168.5t18.5 195.5q4 22 -4 25.5t-22 -13.5 q-136 -185 -250.5 -497.5t-114.5 -515.5zM688 999q0 -149 41 -274t117 -211q20 -23 40 -20.5t32 30.5q97 200 156 421t59 335q0 134 -47.5 194t-127.5 60q-77 0 -140 -76.5t-96.5 -198t-33.5 -260.5z" />
<glyph unicode="&#xd9;" horiz-adv-x="1624" d="M0 786q0 69 22.5 131t56.5 109t90.5 92.5t108 76t126 65t126.5 55t128.5 49.5t115.5 45q64 27 115 84q77 94 166 117q26 7 44.5 -3.5t26.5 -35.5q11 -38 5.5 -55.5t-37.5 -38.5q-82 -61 -136 -191l-372 -924q-91 -220 -12 -272q19 -12 42 -12q51 0 112 35.5t117 90.5 t113.5 126.5t101.5 137.5t81 130q21 32 49 96l287 717q17 41 42.5 58.5t69.5 17.5h15q40 0 53 -19.5t-2 -56.5l-434 -1083q-94 -232 4 -232q80 0 195 128t229 321q16 25 43.5 21.5t39 -26.5t-2.5 -53q-295 -514 -539 -514q-74 0 -122.5 45.5t-51.5 141.5q-1 23 -11.5 26 t-25.5 -14q-220 -250 -395 -250q-31 0 -60 7t-57 25t-48.5 45.5t-32 71.5t-10 100t20.5 134t56 170l292 729q9 23 0 32.5t-32 0.5q-26 -11 -82 -33t-93 -37t-92 -41t-92 -48.5t-79 -55t-67 -65.5t-41.5 -75.5t-16.5 -88.5q0 -64 25.5 -113t74.5 -70q46 -20 57.5 -38.5 t11.5 -69.5q-3 -28 -22 -40t-49 -5q-115 24 -182.5 118t-65.5 211zM1158.5 1958.5q5.5 15.5 39.5 15.5h41q45 0 75.5 -14t59.5 -49l135 -160q17 -20 11.5 -32.5t-31.5 -12.5h-4q-61 0 -105 39l-202 176q-25 22 -19.5 37.5z" />
<glyph unicode="&#xda;" horiz-adv-x="1624" d="M0 786q0 69 22.5 131t56.5 109t90.5 92.5t108 76t126 65t126.5 55t128.5 49.5t115.5 45q64 27 115 84q77 94 166 117q26 7 44.5 -3.5t26.5 -35.5q11 -38 5.5 -55.5t-37.5 -38.5q-82 -61 -136 -191l-372 -924q-91 -220 -12 -272q19 -12 42 -12q51 0 112 35.5t117 90.5 t113.5 126.5t101.5 137.5t81 130q21 32 49 96l287 717q17 41 42.5 58.5t69.5 17.5h15q40 0 53 -19.5t-2 -56.5l-434 -1083q-94 -232 4 -232q80 0 195 128t229 321q16 25 43.5 21.5t39 -26.5t-2.5 -53q-295 -514 -539 -514q-74 0 -122.5 45.5t-51.5 141.5q-1 23 -11.5 26 t-25.5 -14q-220 -250 -395 -250q-31 0 -60 7t-57 25t-48.5 45.5t-32 71.5t-10 100t20.5 134t56 170l292 729q9 23 0 32.5t-32 0.5q-26 -11 -82 -33t-93 -37t-92 -41t-92 -48.5t-79 -55t-67 -65.5t-41.5 -75.5t-16.5 -88.5q0 -64 25.5 -113t74.5 -70q46 -20 57.5 -38.5 t11.5 -69.5q-3 -28 -22 -40t-49 -5q-115 24 -182.5 118t-65.5 211zM1314 1718.5q-6 12.5 11 32.5l136 160q29 35 59.5 49t75.5 14h41q34 0 39.5 -15.5t-19.5 -37.5l-202 -176q-44 -39 -105 -39h-4q-26 0 -32 12.5z" />
<glyph unicode="&#xdb;" horiz-adv-x="1624" d="M0 786q0 69 22.5 131t56.5 109t90.5 92.5t108 76t126 65t126.5 55t128.5 49.5t115.5 45q64 27 115 84q77 94 166 117q26 7 44.5 -3.5t26.5 -35.5q11 -38 5.5 -55.5t-37.5 -38.5q-82 -61 -136 -191l-372 -924q-91 -220 -12 -272q19 -12 42 -12q51 0 112 35.5t117 90.5 t113.5 126.5t101.5 137.5t81 130q21 32 49 96l287 717q17 41 42.5 58.5t69.5 17.5h15q40 0 53 -19.5t-2 -56.5l-434 -1083q-94 -232 4 -232q80 0 195 128t229 321q16 25 43.5 21.5t39 -26.5t-2.5 -53q-295 -514 -539 -514q-74 0 -122.5 45.5t-51.5 141.5q-1 23 -11.5 26 t-25.5 -14q-220 -250 -395 -250q-31 0 -60 7t-57 25t-48.5 45.5t-32 71.5t-10 100t20.5 134t56 170l292 729q9 23 0 32.5t-32 0.5q-26 -11 -82 -33t-93 -37t-92 -41t-92 -48.5t-79 -55t-67 -65.5t-41.5 -75.5t-16.5 -88.5q0 -64 25.5 -113t74.5 -70q46 -20 57.5 -38.5 t11.5 -69.5q-3 -28 -22 -40t-49 -5q-115 24 -182.5 118t-65.5 211zM1102 1719q-5 13 18 32l314 246q28 22 65 22h4q36 0 51 -32l115 -236q22 -45 -27 -45h-4q-48 0 -73 43l-60 100q-30 55 -80 17l-157 -117q-57 -43 -129 -43h-4q-28 0 -33 13z" />
<glyph unicode="&#xdc;" horiz-adv-x="1624" d="M0 786q0 69 22.5 131t56.5 109t90.5 92.5t108 76t126 65t126.5 55t128.5 49.5t115.5 45q64 27 115 84q77 94 166 117q26 7 44.5 -3.5t26.5 -35.5q11 -38 5.5 -55.5t-37.5 -38.5q-82 -61 -136 -191l-372 -924q-91 -220 -12 -272q19 -12 42 -12q51 0 112 35.5t117 90.5 t113.5 126.5t101.5 137.5t81 130q21 32 49 96l287 717q17 41 42.5 58.5t69.5 17.5h15q40 0 53 -19.5t-2 -56.5l-434 -1083q-94 -232 4 -232q80 0 195 128t229 321q16 25 43.5 21.5t39 -26.5t-2.5 -53q-295 -514 -539 -514q-74 0 -122.5 45.5t-51.5 141.5q-1 23 -11.5 26 t-25.5 -14q-220 -250 -395 -250q-31 0 -60 7t-57 25t-48.5 45.5t-32 71.5t-10 100t20.5 134t56 170l292 729q9 23 0 32.5t-32 0.5q-26 -11 -82 -33t-93 -37t-92 -41t-92 -48.5t-79 -55t-67 -65.5t-41.5 -75.5t-16.5 -88.5q0 -64 25.5 -113t74.5 -70q46 -20 57.5 -38.5 t11.5 -69.5q-3 -28 -22 -40t-49 -5q-115 24 -182.5 118t-65.5 211zM1115 1827q0 47 33.5 80t80.5 33q46 0 80.5 -33t34.5 -80t-34.5 -82t-80.5 -35q-47 0 -80.5 34.5t-33.5 82.5zM1453 1827q0 47 33.5 80t80.5 33q46 0 80.5 -33t34.5 -80t-34.5 -82t-80.5 -35 q-47 0 -80.5 34.5t-33.5 82.5z" />
<glyph unicode="&#xdd;" horiz-adv-x="1564" d="M-2 786q0 69 22.5 131.5t57.5 109.5t91 92.5t108 76t125.5 64.5t127 54.5t128.5 49.5t114 45q70 29 119 86q79 92 166 115q26 7 44.5 -3.5t26.5 -35.5q11 -38 5.5 -55.5t-37.5 -38.5q-87 -64 -138 -191l-370 -924q-27 -69 -38.5 -122t-9.5 -83t13.5 -48.5t25.5 -24.5 t31 -6q67 0 155 62t166.5 152.5t144 187t98.5 171.5l307 760q17 41 42.5 58.5t69.5 17.5h15q40 0 53 -19.5t-2 -56.5l-520 -1290q-9 -23 0.5 -31t29.5 4q131 83 239.5 203t180.5 248q15 26 42.5 22.5t39.5 -27t-2 -53.5q-107 -184 -256.5 -322.5t-304.5 -219.5 q-30 -18 -46 -36t-28 -48q-30 -75 -52.5 -125t-59.5 -111.5t-74.5 -98t-91 -62t-115.5 -25.5q-92 0 -144.5 52.5t-45.5 146.5q13 137 221 231q17 9 79.5 35t98.5 43q56 27 76 82l43 104q6 18 -0.5 22t-18.5 -10q-99 -103 -198 -163t-183 -60q-40 0 -76 14t-67.5 53 t-43.5 98.5t5 160t68 227.5l295 729q9 25 -0.5 34t-34.5 -1q-21 -9 -65.5 -25.5t-74 -28t-74.5 -30.5t-76.5 -35t-71.5 -39t-67.5 -44.5t-56 -50t-45.5 -57t-28 -64t-11 -72.5q0 -62 26.5 -111t76.5 -70q46 -20 57.5 -38t11.5 -68q-3 -29 -21.5 -41.5t-49.5 -5.5 q-115 24 -182.5 118t-65.5 211zM555 -383q0 -25 18.5 -38t40.5 -13q47 0 101.5 51.5t109.5 161.5q11 23 2 33t-32 0q-98 -45 -140 -68q-100 -57 -100 -127zM1314 1720.5q-6 12.5 11 32.5l136 160q29 35 59.5 49t75.5 14h41q34 0 39.5 -15.5t-19.5 -37.5l-202 -176 q-44 -39 -105 -39h-4q-26 0 -32 12.5z" />
<glyph unicode="&#xde;" horiz-adv-x="1304" d="M-102 774q0 182 92.5 345t260.5 269.5t372 118.5q36 1 53.5 12t38.5 44q39 68 94 114.5t117 61.5q26 7 44.5 -3.5t26.5 -35.5q10 -38 4.5 -55.5t-36.5 -40.5q-35 -24 -70 -68q-41 -53 20 -78q174 -67 279.5 -213t105.5 -334q0 -119 -42.5 -235t-119.5 -208t-184 -151 t-235.5 -64.5t-274.5 50.5q-31 12 -49 4t-30 -39l-89 -219q-17 -41 -42.5 -58.5t-69.5 -17.5h-14q-40 0 -53.5 19.5t1.5 56.5l510 1268q10 26 -0.5 40t-38.5 9q-114 -18 -215 -79.5t-167.5 -144t-105 -177t-38.5 -181.5q0 -57 20 -127q14 -42 7 -65.5t-43 -50.5 q-28 -21 -52 -14.5t-36 38.5q-41 96 -41 209zM457 498q-24 -60 35 -78q148 -51 267.5 -23.5t203.5 108.5t129 186t45 210q0 138 -75.5 253.5t-205.5 172.5q-56 24 -78 -33z" />
<glyph unicode="&#xdf;" horiz-adv-x="954" d="M-243.5 -165q-13.5 19 1.5 56l375 924q29 73 55.5 133.5t63.5 132t73 127.5t81.5 110.5t92 90.5t103 58t115.5 22q99 0 153 -53.5t54 -157.5q0 -134 -75.5 -265.5t-182.5 -205.5q-25 -19 -26 -33.5t22 -36.5q102 -92 102 -248q0 -119 -62 -241q-9 -18 -1.5 -23.5 t22.5 6.5q164 135 256 314q14 25 41 21.5t39.5 -26.5t-0.5 -53q-80 -140 -193.5 -254t-257 -187t-284.5 -73q-131 0 -207 95q-24 31 10 57q19 14 30.5 14.5t32.5 -14.5q44 -31 95 -31q70 0 131 40.5t99.5 101.5t60.5 129.5t22 128.5q0 80 -37 137t-117 71q-30 6 -37.5 21 t3.5 43q13 28 27 42t48 28q125 58 212 197.5t87 244.5q0 76 -69 76q-83 0 -180.5 -117t-204.5 -381l-389 -965q-17 -41 -43 -58t-70 -17h-18q-40 0 -53.5 19z" />
<glyph unicode="&#xe0;" d="M-51 190q0 57 16.5 143t46.5 187.5t78 202t104.5 182.5t131.5 133.5t155 51.5q119 0 170 -109q15 -31 32 -36t48 13l107 64q28 15 39.5 4.5t-0.5 -39.5l-256 -635q-107 -264 0 -264q77 0 188 129.5t227 327.5q16 26 43.5 22.5t39 -27t-2.5 -53.5q-51 -89 -97.5 -159 t-102 -139t-107.5 -114.5t-111.5 -73.5t-117.5 -28q-124 0 -160 105q-8 25 -19 27.5t-30 -17.5q-115 -115 -236 -115q-90 0 -138 60t-48 157zM117 211q0 -86 67 -86q92 0 211 149q34 49 51 91l152 374q18 49 8 99q-22 98 -96 98q-58 0 -118.5 -58.5t-108 -147.5t-86 -189 t-59.5 -189t-21 -141zM441.5 1446.5q5.5 15.5 39.5 15.5h41q45 0 75.5 -14t59.5 -49l136 -160q17 -20 11 -32.5t-32 -12.5h-4q-60 0 -104 39l-203 176q-25 22 -19.5 37.5z" />
<glyph unicode="&#xe1;" d="M-51 190q0 57 16.5 143t46.5 187.5t78 202t104.5 182.5t131.5 133.5t155 51.5q119 0 170 -109q15 -31 32 -36t48 13l107 64q28 15 39.5 4.5t-0.5 -39.5l-256 -635q-107 -264 0 -264q77 0 188 129.5t227 327.5q16 26 43.5 22.5t39 -27t-2.5 -53.5q-51 -89 -97.5 -159 t-102 -139t-107.5 -114.5t-111.5 -73.5t-117.5 -28q-124 0 -160 105q-8 25 -19 27.5t-30 -17.5q-115 -115 -236 -115q-90 0 -138 60t-48 157zM117 211q0 -86 67 -86q92 0 211 149q34 49 51 91l152 374q18 49 8 99q-22 98 -96 98q-58 0 -118.5 -58.5t-108 -147.5t-86 -189 t-59.5 -189t-21 -141zM503 1206.5q-6 12.5 11 32.5l136 160q29 35 59.5 49t75.5 14h41q34 0 39.5 -15.5t-19.5 -37.5l-202 -176q-44 -39 -105 -39h-4q-26 0 -32 12.5z" />
<glyph unicode="&#xe2;" d="M-51 190q0 57 16.5 143t46.5 187.5t78 202t104.5 182.5t131.5 133.5t155 51.5q119 0 170 -109q15 -31 32 -36t48 13l107 64q28 15 39.5 4.5t-0.5 -39.5l-256 -635q-107 -264 0 -264q77 0 188 129.5t227 327.5q16 26 43.5 22.5t39 -27t-2.5 -53.5q-51 -89 -97.5 -159 t-102 -139t-107.5 -114.5t-111.5 -73.5t-117.5 -28q-124 0 -160 105q-8 25 -19 27.5t-30 -17.5q-115 -115 -236 -115q-90 0 -138 60t-48 157zM117 211q0 -86 67 -86q92 0 211 149q34 49 51 91l152 374q18 49 8 99q-22 98 -96 98q-58 0 -118.5 -58.5t-108 -147.5t-86 -189 t-59.5 -189t-21 -141zM352.5 1184.5q-4.5 13.5 18.5 32.5l313 245q29 23 66 23h4q35 0 51 -33l115 -235q22 -46 -27 -46h-4q-49 0 -74 43l-59 101q-29 54 -80 16l-157 -117q-57 -43 -129 -43h-5q-28 0 -32.5 13.5z" />
<glyph unicode="&#xe3;" d="M-51 190q0 57 16.5 143t46.5 187.5t78 202t104.5 182.5t131.5 133.5t155 51.5q119 0 170 -109q15 -31 32 -36t48 13l107 64q28 15 39.5 4.5t-0.5 -39.5l-256 -635q-107 -264 0 -264q77 0 188 129.5t227 327.5q16 26 43.5 22.5t39 -27t-2.5 -53.5q-51 -89 -97.5 -159 t-102 -139t-107.5 -114.5t-111.5 -73.5t-117.5 -28q-124 0 -160 105q-8 25 -19 27.5t-30 -17.5q-115 -115 -236 -115q-90 0 -138 60t-48 157zM117 211q0 -86 67 -86q92 0 211 149q34 49 51 91l152 374q18 49 8 99q-22 98 -96 98q-58 0 -118.5 -58.5t-108 -147.5t-86 -189 t-59.5 -189t-21 -141zM428 1272q-23 29 2 57q85 94 168 94q49 0 93 -19.5t81.5 -38.5t69.5 -19q46 0 86 40q15 15 26.5 14t24.5 -18q22 -32 -2 -59q-81 -90 -168 -90q-49 0 -92.5 19.5t-81 39t-70.5 19.5q-41 0 -86 -45q-15 -15 -26.5 -14t-24.5 20z" />
<glyph unicode="&#xe4;" d="M-51 190q0 57 16.5 143t46.5 187.5t78 202t104.5 182.5t131.5 133.5t155 51.5q119 0 170 -109q15 -31 32 -36t48 13l107 64q28 15 39.5 4.5t-0.5 -39.5l-256 -635q-107 -264 0 -264q77 0 188 129.5t227 327.5q16 26 43.5 22.5t39 -27t-2.5 -53.5q-51 -89 -97.5 -159 t-102 -139t-107.5 -114.5t-111.5 -73.5t-117.5 -28q-124 0 -160 105q-8 25 -19 27.5t-30 -17.5q-115 -115 -236 -115q-90 0 -138 60t-48 157zM117 211q0 -86 67 -86q92 0 211 149q34 49 51 91l152 374q18 49 8 99q-22 98 -96 98q-58 0 -118.5 -58.5t-108 -147.5t-86 -189 t-59.5 -189t-21 -141zM410 1335q0 47 33.5 80t80.5 33q46 0 80.5 -33t34.5 -80t-34.5 -81.5t-80.5 -34.5q-47 0 -80.5 34.5t-33.5 81.5zM748 1335q0 47 33.5 80t80.5 33q46 0 80.5 -33t34.5 -80t-34.5 -81.5t-80.5 -34.5q-47 0 -80.5 34.5t-33.5 81.5z" />
<glyph unicode="&#xe5;" d="M-51 190q0 57 16.5 143t46.5 187.5t78 202t104.5 182.5t131.5 133.5t155 51.5q119 0 170 -109q15 -31 32 -36t48 13l107 64q28 15 39.5 4.5t-0.5 -39.5l-256 -635q-107 -264 0 -264q77 0 188 129.5t227 327.5q16 26 43.5 22.5t39 -27t-2.5 -53.5q-51 -89 -97.5 -159 t-102 -139t-107.5 -114.5t-111.5 -73.5t-117.5 -28q-124 0 -160 105q-8 25 -19 27.5t-30 -17.5q-115 -115 -236 -115q-90 0 -138 60t-48 157zM117 211q0 -86 67 -86q92 0 211 149q34 49 51 91l152 374q18 49 8 99q-22 98 -96 98q-58 0 -118.5 -58.5t-108 -147.5t-86 -189 t-59.5 -189t-21 -141zM508 1378q0 86 62.5 148.5t148.5 62.5q88 0 150.5 -62.5t62.5 -148.5q0 -89 -62.5 -151t-150.5 -62q-87 0 -149 62t-62 151zM614 1378q0 -44 31 -75t74 -31q44 0 75 31t31 75q0 43 -31 74t-75 31q-43 0 -74 -31t-31 -74z" />
<glyph unicode="&#xe6;" horiz-adv-x="1327" d="M-51 190q0 57 16.5 143t46.5 187.5t77.5 202t104 182.5t132 133.5t155.5 51.5q73 0 115.5 -37t62.5 -86q9 -23 21.5 -28t34.5 7l39 21q28 15 75 43t73 42t64 26t74 12q94 0 148 -56.5t53.5 -148.5t-55.5 -209q-38 -79 -87 -131.5t-109.5 -79t-123.5 -35t-143 -4.5 q-57 3 -72 -49q-10 -35 -15 -68t-3 -75.5t16 -73t50 -51.5t92 -21q141 0 288.5 125.5t272.5 331.5q16 26 43.5 22.5t39 -27t-2.5 -53.5q-45 -79 -94.5 -148.5t-115 -138.5t-134.5 -117.5t-154.5 -79t-173.5 -30.5q-222 0 -275 181q-15 51 -47 8q-23 -32 -50.5 -61t-66.5 -60 t-87.5 -49.5t-98.5 -18.5q-90 0 -138 60t-48 157zM117 211q0 -86 67 -86q92 0 211 149q34 49 51 91l152 374q18 49 8 99q-22 98 -96 98q-58 0 -118.5 -58.5t-108 -147.5t-86 -189t-59.5 -189t-21 -141zM721 584q-11 -28 0.5 -45t40.5 -17q57 -2 102 13.5t78 47t54.5 64.5 t43.5 80q102 215 -14 215q-41 0 -82.5 -27.5t-73 -65.5t-63 -91t-50 -92t-36.5 -82z" />
<glyph unicode="&#xe7;" horiz-adv-x="821" d="M-33 262q0 114 45.5 256.5t119 270t180.5 214.5t216 87q134 0 184 -101.5t-14 -267.5q-30 -74 -110 -74h-17q-78 0 -47 74q38 86 47.5 135.5t-3 66.5t-44.5 17q-75 0 -151 -85t-128 -201t-85 -229t-33 -177q0 -70 42.5 -115t123.5 -45q129 0 282 128.5t271 328.5 q16 26 43.5 22.5t39 -27t-2.5 -53.5q-43 -74 -89 -139.5t-106.5 -131.5t-124.5 -114.5t-142 -83t-159 -43.5q-28 -3 -42 -12t-25 -29q-12 -23 -7.5 -34.5t29.5 -20.5q70 -25 70 -117q0 -76 -52 -125.5t-125.5 -63.5t-148.5 1q-22 3 -27.5 17.5t7.5 33.5q17 27 30 32.5 t49 2.5q27 -2 54 2t52.5 14t41.5 31t16 49q0 52 -57 64q-34 8 -41 23t10 46l17 29q15 29 8.5 46.5t-37.5 27.5q-160 60 -160 270z" />
<glyph unicode="&#xe8;" horiz-adv-x="823" d="M-31 264q0 115 45.5 257.5t119.5 269t181.5 213t219.5 86.5q94 0 148 -56.5t54 -148.5t-55 -209q-39 -79 -88.5 -131.5t-110.5 -79t-124 -35t-144 -4.5q-55 3 -70 -49q-7 -29 -11.5 -56t-6.5 -62t6.5 -63.5t24.5 -54t49 -39.5t80 -14q141 0 289.5 126t271.5 331 q16 26 43.5 22.5t39 -27t-2.5 -53.5q-46 -80 -95.5 -148.5t-115.5 -138t-135 -118t-154.5 -79t-173.5 -30.5q-138 0 -211.5 73t-73.5 218zM215 584q-11 -28 0.5 -45t40.5 -17q107 -4 170 51t109 154q103 215 -15 215q-41 0 -82.5 -27.5t-73 -65.5t-63 -91t-50 -92t-36.5 -82 zM316.5 1446.5q5.5 15.5 39.5 15.5h41q45 0 75.5 -14t59.5 -49l136 -160q17 -20 11 -32.5t-32 -12.5h-4q-60 0 -104 39l-203 176q-25 22 -19.5 37.5z" />
<glyph unicode="&#xe9;" horiz-adv-x="823" d="M-31 264q0 115 45.5 257.5t119.5 269t181.5 213t219.5 86.5q94 0 148 -56.5t54 -148.5t-55 -209q-39 -79 -88.5 -131.5t-110.5 -79t-124 -35t-144 -4.5q-55 3 -70 -49q-7 -29 -11.5 -56t-6.5 -62t6.5 -63.5t24.5 -54t49 -39.5t80 -14q141 0 289.5 126t271.5 331 q16 26 43.5 22.5t39 -27t-2.5 -53.5q-46 -80 -95.5 -148.5t-115.5 -138t-135 -118t-154.5 -79t-173.5 -30.5q-138 0 -211.5 73t-73.5 218zM215 584q-11 -28 0.5 -45t40.5 -17q107 -4 170 51t109 154q103 215 -15 215q-41 0 -82.5 -27.5t-73 -65.5t-63 -91t-50 -92t-36.5 -82 zM464 1206.5q-6 12.5 11 32.5l136 160q29 35 59.5 49t75.5 14h41q34 0 39.5 -15.5t-19.5 -37.5l-202 -176q-44 -39 -105 -39h-4q-26 0 -32 12.5z" />
<glyph unicode="&#xea;" horiz-adv-x="823" d="M-31 264q0 115 45.5 257.5t119.5 269t181.5 213t219.5 86.5q94 0 148 -56.5t54 -148.5t-55 -209q-39 -79 -88.5 -131.5t-110.5 -79t-124 -35t-144 -4.5q-55 3 -70 -49q-7 -29 -11.5 -56t-6.5 -62t6.5 -63.5t24.5 -54t49 -39.5t80 -14q141 0 289.5 126t271.5 331 q16 26 43.5 22.5t39 -27t-2.5 -53.5q-46 -80 -95.5 -148.5t-115.5 -138t-135 -118t-154.5 -79t-173.5 -30.5q-138 0 -211.5 73t-73.5 218zM215 584q-11 -28 0.5 -45t40.5 -17q107 -4 170 51t109 154q103 215 -15 215q-41 0 -82.5 -27.5t-73 -65.5t-63 -91t-50 -92t-36.5 -82 zM286.5 1184.5q-4.5 13.5 18.5 32.5l313 245q29 23 66 23h4q35 0 51 -33l115 -235q22 -46 -27 -46h-4q-49 0 -74 43l-59 101q-29 54 -80 16l-157 -117q-57 -43 -129 -43h-5q-28 0 -32.5 13.5z" />
<glyph unicode="&#xeb;" horiz-adv-x="823" d="M-31 264q0 115 45.5 257.5t119.5 269t181.5 213t219.5 86.5q94 0 148 -56.5t54 -148.5t-55 -209q-39 -79 -88.5 -131.5t-110.5 -79t-124 -35t-144 -4.5q-55 3 -70 -49q-7 -29 -11.5 -56t-6.5 -62t6.5 -63.5t24.5 -54t49 -39.5t80 -14q141 0 289.5 126t271.5 331 q16 26 43.5 22.5t39 -27t-2.5 -53.5q-46 -80 -95.5 -148.5t-115.5 -138t-135 -118t-154.5 -79t-173.5 -30.5q-138 0 -211.5 73t-73.5 218zM215 584q-11 -28 0.5 -45t40.5 -17q107 -4 170 51t109 154q103 215 -15 215q-41 0 -82.5 -27.5t-73 -65.5t-63 -91t-50 -92t-36.5 -82 zM326 1335q0 47 33.5 80t80.5 33q46 0 80.5 -33t34.5 -80t-34.5 -81.5t-80.5 -34.5q-47 0 -80.5 34.5t-33.5 81.5zM664 1335q0 47 33.5 80t80.5 33q46 0 80.5 -33t34.5 -80t-34.5 -81.5t-80.5 -34.5q-47 0 -80.5 34.5t-33.5 81.5z" />
<glyph unicode="&#xec;" horiz-adv-x="516" d="M-18 442l221 545q17 41 42.5 58.5t69.5 17.5h15q40 0 53 -19.5t-2 -56.5l-256 -635q-21 -50 -33.5 -91t-16.5 -68t-3 -47t6 -31t13.5 -17.5t15.5 -8t16 -1.5q54 0 128.5 68t145 165.5t144.5 223.5q16 26 43.5 22.5t39 -27t-2.5 -53.5q-68 -117 -128.5 -203t-128.5 -160 t-138.5 -112.5t-141.5 -38.5q-291 0 -102 469zM79 1446.5q6 15.5 40 15.5h41q45 0 75.5 -14t59.5 -49l135 -160q17 -20 11.5 -32.5t-31.5 -12.5h-4q-61 0 -105 39l-203 176q-25 22 -19 37.5z" />
<glyph unicode="&#xed;" horiz-adv-x="516" d="M-18 442l221 545q17 41 42.5 58.5t69.5 17.5h15q40 0 53 -19.5t-2 -56.5l-256 -635q-21 -50 -33.5 -91t-16.5 -68t-3 -47t6 -31t13.5 -17.5t15.5 -8t16 -1.5q54 0 128.5 68t145 165.5t144.5 223.5q16 26 43.5 22.5t39 -27t-2.5 -53.5q-68 -117 -128.5 -203t-128.5 -160 t-138.5 -112.5t-141.5 -38.5q-291 0 -102 469zM314.5 1206.5q-5.5 12.5 11.5 32.5l135 160q29 35 59.5 49t75.5 14h41q34 0 39.5 -15.5t-19.5 -37.5l-202 -176q-44 -39 -105 -39h-4q-26 0 -31.5 12.5z" />
<glyph unicode="&#xee;" horiz-adv-x="516" d="M-18 442l221 545q17 41 42.5 58.5t69.5 17.5h15q40 0 53 -19.5t-2 -56.5l-256 -635q-21 -50 -33.5 -91t-16.5 -68t-3 -47t6 -31t13.5 -17.5t15.5 -8t16 -1.5q54 0 128.5 68t145 165.5t144.5 223.5q16 26 43.5 22.5t39 -27t-2.5 -53.5q-68 -117 -128.5 -203t-128.5 -160 t-138.5 -112.5t-141.5 -38.5q-291 0 -102 469zM77.5 1184.5q-4.5 13.5 18.5 32.5l313 245q29 23 66 23h4q35 0 51 -33l115 -235q22 -46 -27 -46h-4q-49 0 -74 43l-59 101q-29 54 -80 16l-157 -117q-57 -43 -129 -43h-5q-28 0 -32.5 13.5z" />
<glyph unicode="&#xef;" horiz-adv-x="516" d="M-18 442l221 545q17 41 42.5 58.5t69.5 17.5h15q40 0 53 -19.5t-2 -56.5l-256 -635q-21 -50 -33.5 -91t-16.5 -68t-3 -47t6 -31t13.5 -17.5t15.5 -8t16 -1.5q54 0 128.5 68t145 165.5t144.5 223.5q16 26 43.5 22.5t39 -27t-2.5 -53.5q-68 -117 -128.5 -203t-128.5 -160 t-138.5 -112.5t-141.5 -38.5q-291 0 -102 469zM121 1335q0 47 34 80t81 33q46 0 80 -33t34 -80t-34 -81.5t-80 -34.5q-47 0 -81 34.5t-34 81.5zM459 1335q0 47 33.5 80t80.5 33q46 0 80.5 -33t34.5 -80t-34.5 -81.5t-80.5 -34.5q-47 0 -80.5 34.5t-33.5 81.5z" />
<glyph unicode="&#xf0;" horiz-adv-x="819" d="M-29 233q0 81 17 170t48 175.5t78 165.5t102.5 139t126 95.5t144.5 35.5q48 0 82 -15q25 -11 34.5 -4t6.5 33q-12 160 -106 250q-20 19 -43.5 16t-38.5 -26l-47 -72q-25 -38 -66 -14q-42 27 -16 67l37 58q14 22 5.5 39t-34.5 20q-47 4 -84 2q-33 -2 -49.5 10.5 t-22.5 44.5q-9 62 50 68q98 5 184 -10q36 -6 56 2t42 37l21 30q26 39 65 13l4 -2q39 -26 13 -66l-13 -18q-21 -30 -18 -47t31 -41q32 -24 60.5 -59.5t59.5 -93.5t48 -145.5t14 -193.5q-3 -126 -29 -256t-75 -249.5t-114 -213t-152 -149.5t-183 -56q-114 0 -176 70.5 t-62 189.5zM119 221q0 -64 26.5 -94.5t69.5 -30.5q69 0 139.5 78.5t118.5 187t78.5 216.5t30.5 172q0 72 -27 107.5t-72 35.5q-69 0 -139 -80.5t-117.5 -191.5t-77.5 -222t-30 -178z" />
<glyph unicode="&#xf1;" horiz-adv-x="970" d="M-166 19.5q-13 19.5 2 56.5l367 911q32 78 94 25l20 -17q28 -20 49.5 -20t49.5 22q118 93 219 93q62 0 104.5 -39t42.5 -113q0 -83 -69 -258l-133 -328q-106 -264 0 -264q77 0 188 129.5t227 327.5q16 25 43.5 21.5t39 -26.5t-2.5 -53q-66 -115 -126.5 -202 t-128.5 -160.5t-138 -112.5t-139 -39q-49 0 -85.5 14t-61 47.5t-30.5 86t11 134t59 185.5l101 244q64 162 69 194q2 8 2 15q0 22 -16.5 34.5t-42.5 12.5q-38 0 -92.5 -28t-112.5 -81q-42 -38 -61 -88l-269 -667q-17 -41 -42.5 -58.5t-69.5 -17.5h-15q-40 0 -53 19.5z M281 1272q-23 29 2 57q85 94 168 94q49 0 93 -19.5t81.5 -38.5t69.5 -19q46 0 86 40q15 15 26.5 14t24.5 -18q22 -32 -2 -59q-81 -90 -168 -90q-49 0 -92.5 19.5t-81 39t-70.5 19.5q-41 0 -86 -45q-15 -15 -26.5 -14t-24.5 20z" />
<glyph unicode="&#xf2;" horiz-adv-x="948" d="M-37 231q0 66 17.5 154t50 184.5t83 189t110.5 166.5t139.5 119.5t164.5 45.5q98 0 163 -65t65 -194q0 -93 -34 -224t-93 -253q-12 -25 -1.5 -41t38.5 -16q75 2 155 63.5t152 184.5q16 26 43.5 22.5t39 -27t-2.5 -53.5q-90 -159 -206.5 -239.5t-248.5 -59.5 q-36 5 -53.5 -2t-40.5 -34q-142 -179 -314 -179q-98 0 -162.5 63.5t-64.5 194.5zM113 227q0 -61 25.5 -96t68.5 -35q67 0 139 88q37 41 43 64.5t-6 79.5q-4 20 -4 30q0 41 25 73t63 38q32 7 42.5 16.5t22.5 40.5q74 199 74 316q0 63 -23.5 94t-62.5 31q-66 0 -141.5 -87 t-132.5 -207t-95 -245t-38 -201zM380 1446.5q6 15.5 40 15.5h41q45 0 75.5 -14t59.5 -49l135 -160q17 -20 11.5 -32.5t-31.5 -12.5h-4q-61 0 -105 39l-203 176q-25 22 -19 37.5z" />
<glyph unicode="&#xf3;" horiz-adv-x="948" d="M-37 231q0 66 17.5 154t50 184.5t83 189t110.5 166.5t139.5 119.5t164.5 45.5q98 0 163 -65t65 -194q0 -93 -34 -224t-93 -253q-12 -25 -1.5 -41t38.5 -16q75 2 155 63.5t152 184.5q16 26 43.5 22.5t39 -27t-2.5 -53.5q-90 -159 -206.5 -239.5t-248.5 -59.5 q-36 5 -53.5 -2t-40.5 -34q-142 -179 -314 -179q-98 0 -162.5 63.5t-64.5 194.5zM113 227q0 -61 25.5 -96t68.5 -35q67 0 139 88q37 41 43 64.5t-6 79.5q-4 20 -4 30q0 41 25 73t63 38q32 7 42.5 16.5t22.5 40.5q74 199 74 316q0 63 -23.5 94t-62.5 31q-66 0 -141.5 -87 t-132.5 -207t-95 -245t-38 -201zM511 1206.5q-6 12.5 11 32.5l136 160q29 35 59.5 49t75.5 14h41q34 0 39.5 -15.5t-19.5 -37.5l-202 -176q-44 -39 -105 -39h-4q-26 0 -32 12.5z" />
<glyph unicode="&#xf4;" horiz-adv-x="948" d="M-37 231q0 66 17.5 154t50 184.5t83 189t110.5 166.5t139.5 119.5t164.5 45.5q98 0 163 -65t65 -194q0 -93 -34 -224t-93 -253q-12 -25 -1.5 -41t38.5 -16q75 2 155 63.5t152 184.5q16 26 43.5 22.5t39 -27t-2.5 -53.5q-90 -159 -206.5 -239.5t-248.5 -59.5 q-36 5 -53.5 -2t-40.5 -34q-142 -179 -314 -179q-98 0 -162.5 63.5t-64.5 194.5zM113 227q0 -61 25.5 -96t68.5 -35q67 0 139 88q37 41 43 64.5t-6 79.5q-4 20 -4 30q0 41 25 73t63 38q32 7 42.5 16.5t22.5 40.5q74 199 74 316q0 63 -23.5 94t-62.5 31q-66 0 -141.5 -87 t-132.5 -207t-95 -245t-38 -201zM286.5 1184.5q-4.5 13.5 18.5 32.5l313 245q29 23 66 23h4q35 0 51 -33l115 -235q22 -46 -27 -46h-4q-48 0 -73 43l-60 101q-29 54 -80 16l-157 -117q-57 -43 -129 -43h-5q-28 0 -32.5 13.5z" />
<glyph unicode="&#xf5;" horiz-adv-x="948" d="M-37 231q0 66 17.5 154t50 184.5t83 189t110.5 166.5t139.5 119.5t164.5 45.5q98 0 163 -65t65 -194q0 -93 -34 -224t-93 -253q-12 -25 -1.5 -41t38.5 -16q75 2 155 63.5t152 184.5q16 26 43.5 22.5t39 -27t-2.5 -53.5q-90 -159 -206.5 -239.5t-248.5 -59.5 q-36 5 -53.5 -2t-40.5 -34q-142 -179 -314 -179q-98 0 -162.5 63.5t-64.5 194.5zM113 227q0 -61 25.5 -96t68.5 -35q67 0 139 88q37 41 43 64.5t-6 79.5q-4 20 -4 30q0 41 25 73t63 38q32 7 42.5 16.5t22.5 40.5q74 199 74 316q0 63 -23.5 94t-62.5 31q-66 0 -141.5 -87 t-132.5 -207t-95 -245t-38 -201zM387 1272q-23 29 2 57q85 94 168 94q49 0 93 -19.5t81.5 -38.5t69.5 -19q46 0 86 40q15 15 26.5 14t24.5 -18q22 -32 -2 -59q-81 -90 -168 -90q-49 0 -92.5 19.5t-81 39t-70.5 19.5q-41 0 -86 -45q-15 -15 -26.5 -14t-24.5 20z" />
<glyph unicode="&#xf6;" horiz-adv-x="948" d="M-37 231q0 66 17.5 154t50 184.5t83 189t110.5 166.5t139.5 119.5t164.5 45.5q98 0 163 -65t65 -194q0 -93 -34 -224t-93 -253q-12 -25 -1.5 -41t38.5 -16q75 2 155 63.5t152 184.5q16 26 43.5 22.5t39 -27t-2.5 -53.5q-90 -159 -206.5 -239.5t-248.5 -59.5 q-36 5 -53.5 -2t-40.5 -34q-142 -179 -314 -179q-98 0 -162.5 63.5t-64.5 194.5zM113 227q0 -61 25.5 -96t68.5 -35q67 0 139 88q37 41 43 64.5t-6 79.5q-4 20 -4 30q0 41 25 73t63 38q32 7 42.5 16.5t22.5 40.5q74 199 74 316q0 63 -23.5 94t-62.5 31q-66 0 -141.5 -87 t-132.5 -207t-95 -245t-38 -201zM363 1335q0 47 33.5 80t80.5 33q46 0 80.5 -33t34.5 -80t-34.5 -82t-80.5 -35q-47 0 -80.5 34.5t-33.5 82.5zM701 1335q0 47 33.5 80t80.5 33q46 0 80.5 -33t34.5 -80t-34.5 -82t-80.5 -35q-47 0 -80.5 34.5t-33.5 82.5z" />
<glyph unicode="&#xf7;" horiz-adv-x="1181" d="M102.5 527.5q-13.5 19.5 1.5 56.5q19 43 45 60.5t70 17.5h735q40 0 53.5 -19.5t-1.5 -56.5q-19 -43 -45 -60.5t-70 -17.5h-735q-40 0 -53.5 19.5zM332 299q0 45 31 77t75 32q45 0 77 -32t32 -77t-32 -77t-77 -32q-44 0 -75 32t-31 77zM565 872q0 46 31.5 78.5t75.5 32.5 q45 0 76.5 -32.5t31.5 -78.5q0 -44 -31 -75t-77 -31q-44 0 -75.5 31t-31.5 75z" />
<glyph unicode="&#xf8;" horiz-adv-x="948" d="M-37 231q0 62 15.5 144t44.5 172.5t74 180t100 164t127.5 127t150.5 66.5q38 6 55.5 20.5t32.5 51.5l72 178q10 25 25.5 35t41.5 10h5q49 0 30 -45l-80 -196q-15 -38 -10.5 -57.5t33.5 -47.5q76 -69 76 -203q0 -93 -34 -224t-93 -253q-12 -25 -1.5 -41t38.5 -16 q75 2 155 63.5t152 184.5q16 26 43.5 22.5t39 -27t-2.5 -53.5q-90 -159 -207 -239.5t-250 -59.5q-34 5 -51.5 -2t-40.5 -34q-120 -151 -254 -175q-39 -6 -57 -20.5t-31 -50.5l-27 -66q-10 -25 -25.5 -35t-41.5 -10h-5q-49 0 -30 45l33 82q15 38 10.5 57t-35.5 44 q-78 68 -78 208zM117 176q5 -25 21.5 -27t25.5 23l297 735q10 23 -0.5 30.5t-30.5 -7.5q-79 -62 -159.5 -209t-125 -302.5t-28.5 -242.5zM260 152q-9 -25 3 -33.5t32 8.5q73 58 151.5 204t124.5 305.5t31 250.5q-4 26 -19 27.5t-24 -23.5z" />
<glyph unicode="&#xf9;" horiz-adv-x="978" d="M-90.5 113.5q-5.5 51.5 12 135.5t62.5 193l219 545q17 41 42.5 58.5t69.5 17.5h15q40 0 53 -19.5t-2 -56.5l-256 -635q-25 -61 -38.5 -106t-17 -71t2 -42t14.5 -21.5t23 -5.5q48 0 104.5 44.5t107.5 113.5t90.5 134t67.5 124l187 465q17 41 42.5 58.5t69.5 17.5h15 q40 0 53 -19.5t-2 -56.5l-256 -635q-106 -262 0 -262q51 0 125 67t147 166.5t144 221.5q16 26 42.5 22.5t38 -27t-1.5 -53.5q-64 -111 -123 -196.5t-127.5 -161t-141 -116t-144.5 -40.5q-66 0 -111.5 29.5t-58.5 89.5q-12 49 -49 12q-131 -131 -248 -131q-46 0 -80 12 t-59.5 44.5t-31 84zM335 1446.5q6 15.5 40 15.5h41q45 0 75.5 -14t59.5 -49l135 -160q17 -20 11.5 -32.5t-31.5 -12.5h-4q-61 0 -105 39l-203 176q-25 22 -19 37.5z" />
<glyph unicode="&#xfa;" horiz-adv-x="978" d="M-90.5 113.5q-5.5 51.5 12 135.5t62.5 193l219 545q17 41 42.5 58.5t69.5 17.5h15q40 0 53 -19.5t-2 -56.5l-256 -635q-25 -61 -38.5 -106t-17 -71t2 -42t14.5 -21.5t23 -5.5q48 0 104.5 44.5t107.5 113.5t90.5 134t67.5 124l187 465q17 41 42.5 58.5t69.5 17.5h15 q40 0 53 -19.5t-2 -56.5l-256 -635q-106 -262 0 -262q51 0 125 67t147 166.5t144 221.5q16 26 42.5 22.5t38 -27t-1.5 -53.5q-64 -111 -123 -196.5t-127.5 -161t-141 -116t-144.5 -40.5q-66 0 -111.5 29.5t-58.5 89.5q-12 49 -49 12q-131 -131 -248 -131q-46 0 -80 12 t-59.5 44.5t-31 84zM501 1206.5q-6 12.5 11 32.5l136 160q29 35 59.5 49t75.5 14h41q34 0 39.5 -15.5t-19.5 -37.5l-202 -176q-44 -39 -105 -39h-4q-26 0 -32 12.5z" />
<glyph unicode="&#xfb;" horiz-adv-x="978" d="M-90.5 113.5q-5.5 51.5 12 135.5t62.5 193l219 545q17 41 42.5 58.5t69.5 17.5h15q40 0 53 -19.5t-2 -56.5l-256 -635q-25 -61 -38.5 -106t-17 -71t2 -42t14.5 -21.5t23 -5.5q48 0 104.5 44.5t107.5 113.5t90.5 134t67.5 124l187 465q17 41 42.5 58.5t69.5 17.5h15 q40 0 53 -19.5t-2 -56.5l-256 -635q-106 -262 0 -262q51 0 125 67t147 166.5t144 221.5q16 26 42.5 22.5t38 -27t-1.5 -53.5q-64 -111 -123 -196.5t-127.5 -161t-141 -116t-144.5 -40.5q-66 0 -111.5 29.5t-58.5 89.5q-12 49 -49 12q-131 -131 -248 -131q-46 0 -80 12 t-59.5 44.5t-31 84zM303.5 1184.5q-4.5 13.5 18.5 32.5l313 245q29 23 65 23h5q35 0 51 -33l114 -235q22 -46 -26 -46h-4q-49 0 -74 43l-59 101q-29 54 -80 16l-158 -117q-57 -43 -129 -43h-4q-28 0 -32.5 13.5z" />
<glyph unicode="&#xfc;" horiz-adv-x="978" d="M-90.5 113.5q-5.5 51.5 12 135.5t62.5 193l219 545q17 41 42.5 58.5t69.5 17.5h15q40 0 53 -19.5t-2 -56.5l-256 -635q-25 -61 -38.5 -106t-17 -71t2 -42t14.5 -21.5t23 -5.5q48 0 104.5 44.5t107.5 113.5t90.5 134t67.5 124l187 465q17 41 42.5 58.5t69.5 17.5h15 q40 0 53 -19.5t-2 -56.5l-256 -635q-106 -262 0 -262q51 0 125 67t147 166.5t144 221.5q16 26 42.5 22.5t38 -27t-1.5 -53.5q-64 -111 -123 -196.5t-127.5 -161t-141 -116t-144.5 -40.5q-66 0 -111.5 29.5t-58.5 89.5q-12 49 -49 12q-131 -131 -248 -131q-46 0 -80 12 t-59.5 44.5t-31 84zM349 1335q0 47 33.5 80t80.5 33q46 0 80.5 -33t34.5 -80t-34.5 -82t-80.5 -35q-47 0 -80.5 34.5t-33.5 82.5zM687 1335q0 47 33.5 80t80.5 33q46 0 80.5 -33t34.5 -80t-34.5 -82t-80.5 -35q-47 0 -80.5 34.5t-33.5 82.5z" />
<glyph unicode="&#xfd;" horiz-adv-x="958" d="M-215 -397q7 79 66.5 135.5t156.5 105.5q29 14 95 43t92 41q52 25 73 78l15 37q7 17 1 21.5t-20 -7.5q-98 -84 -190 -84q-45 0 -79 13t-57.5 46.5t-28.5 85.5t12.5 134.5t60.5 189.5l221 545q17 41 42.5 58.5t69.5 17.5h15q40 0 53 -19.5t-2 -56.5l-256 -635 q-25 -61 -38.5 -106t-17 -71t2 -42t14.5 -21.5t23 -5.5q48 0 104.5 44.5t107.5 113.5t90.5 134t67.5 124l187 465q17 41 42.5 58.5t69.5 17.5h15q40 0 53 -19.5t-2 -56.5l-357 -876q-9 -23 0 -32t31 3q294 164 465 463q15 26 42 22.5t39 -27t-1 -53.5q-55 -96 -120 -177 t-122 -134t-127.5 -101t-117.5 -74t-111 -56q-57 -29 -78 -84q-27 -71 -50.5 -123t-62 -117t-78.5 -106.5t-96.5 -70t-119.5 -28.5q-92 0 -147 51t-48 136zM-104 -401q0 -25 17.5 -40t45.5 -14q48 4 102.5 52.5t102.5 154.5q12 25 2 35.5t-35 -0.5q-235 -93 -235 -188z M501 1206.5q-6 12.5 11 32.5l136 160q29 35 59.5 49t75.5 14h41q34 0 39.5 -15.5t-19.5 -37.5l-202 -176q-44 -39 -105 -39h-4q-26 0 -32 12.5z" />
<glyph unicode="&#xfe;" horiz-adv-x="921" d="M-332 -386.5q-13 19.5 2 56.5l709 1749q17 41 43 58.5t70 17.5h8q40 0 53 -19.5t-2 -56.5l-154 -377q-7 -17 -0.5 -21.5t21.5 7.5q75 62 162 62q79 0 124.5 -63t45.5 -179q0 -172 -92 -390t-195 -337q-14 -17 -9 -24.5t27 -0.5q128 51 248.5 168t216.5 281q16 26 43 22.5 t38.5 -27t-1.5 -53.5q-126 -225 -309.5 -369.5t-388.5 -144.5q-159 0 -244 90q-13 15 -12 32.5t16 31.5q17 16 32 18t24.5 -4t24.5 -13t28 -7q68 0 162.5 142t160.5 317t66 272q0 86 -64 86q-85 0 -192 -123q-43 -53 -56 -92l-426 -1053q-17 -41 -42.5 -58.5t-69.5 -17.5 h-15q-40 0 -53 19.5z" />
<glyph unicode="&#xff;" horiz-adv-x="958" d="M-215 -397q7 79 66.5 135.5t156.5 105.5q29 14 95 43t92 41q52 25 73 78l15 37q7 17 1 21.5t-20 -7.5q-98 -84 -190 -84q-45 0 -79 13t-57.5 46.5t-28.5 85.5t12.5 134.5t60.5 189.5l221 545q17 41 42.5 58.5t69.5 17.5h15q40 0 53 -19.5t-2 -56.5l-256 -635 q-25 -61 -38.5 -106t-17 -71t2 -42t14.5 -21.5t23 -5.5q48 0 104.5 44.5t107.5 113.5t90.5 134t67.5 124l187 465q17 41 42.5 58.5t69.5 17.5h15q40 0 53 -19.5t-2 -56.5l-357 -876q-9 -23 0 -32t31 3q294 164 465 463q15 26 42 22.5t39 -27t-1 -53.5q-55 -96 -120 -177 t-122 -134t-127.5 -101t-117.5 -74t-111 -56q-57 -29 -78 -84q-27 -71 -50.5 -123t-62 -117t-78.5 -106.5t-96.5 -70t-119.5 -28.5q-92 0 -147 51t-48 136zM-104 -401q0 -25 17.5 -40t45.5 -14q48 4 102.5 52.5t102.5 154.5q12 25 2 35.5t-35 -0.5q-235 -93 -235 -188z M348 1335q0 47 34 80t81 33q46 0 80.5 -33t34.5 -80t-34.5 -81.5t-80.5 -34.5q-47 0 -81 34.5t-34 81.5zM686 1335q0 47 34 80t81 33q46 0 80 -33t34 -80t-34 -81.5t-80 -34.5q-47 0 -81 34.5t-34 81.5z" />
<glyph unicode="&#x102;" horiz-adv-x="1689" d="M-147 305q0 155 110 252.5t289 97.5q174 0 377 -104q29 -15 49 -9.5t37 33.5l475 797q13 21 38 64t35.5 59.5t31 49t30.5 45t28 34.5t30.5 30t30 18.5t34.5 14t37 3.5q18 0 37.5 -5t45 -19t40 -39t21 -65.5t-10.5 -97.5l-313 -1185q-15 -60 47 -60q108 4 182 73t180 253 q16 26 43.5 22.5t39 -27t-2.5 -53.5q-125 -219 -225 -304.5t-248 -82.5q-35 0 -52 -12.5t-26 -46.5l-80 -303q-9 -37 -28.5 -42t-44.5 23l-29 35q-29 33 -36.5 66.5t3.5 75.5l51 190q17 61 -41 84q-75 33 -239 119q-29 17 -49.5 12t-40.5 -33q-211 -295 -482 -295 q-168 0 -271 93.5t-103 238.5zM2 313q0 -34 12.5 -67t37.5 -62t70.5 -47t104.5 -18q94 0 177.5 57t168.5 174q38 53 -18 80q-168 86 -303 86q-67 0 -117 -18t-78 -48.5t-41.5 -65t-13.5 -71.5zM846 492q-30 -56 22 -84q114 -64 207 -113q57 -28 72 33l315 1151q3 8 -8 12 q-10 2 -14 -4zM1390 1928.5q1 27.5 4.5 48.5t10.5 42q12 35 49 35h4q20 0 27 -8t2 -27q-7 -16 -5 -35t9 -35t31 -27t63 -11q123 0 197 110q12 20 23 26.5t34 6.5h2q35 0 23 -35q-10 -26 -23 -51.5t-39 -59t-57 -58t-78.5 -41.5t-101.5 -17q-50 0 -85.5 11.5t-53.5 31.5 t-27.5 43t-8.5 50.5z" />
<glyph unicode="&#x103;" d="M-51 190q0 57 16.5 143t46.5 187.5t78 202t104.5 182.5t131.5 133.5t155 51.5q119 0 170 -109q15 -31 32 -36t48 13l107 64q28 15 39.5 4.5t-0.5 -39.5l-256 -635q-107 -264 0 -264q77 0 188 129.5t227 327.5q16 26 43.5 22.5t39 -27t-2.5 -53.5q-51 -89 -97.5 -159 t-102 -139t-107.5 -114.5t-111.5 -73.5t-117.5 -28q-124 0 -160 105q-8 25 -19 27.5t-30 -17.5q-115 -115 -236 -115q-90 0 -138 60t-48 157zM117 211q0 -86 67 -86q92 0 211 149q34 49 51 91l152 374q18 49 8 99q-22 98 -96 98q-58 0 -118.5 -58.5t-108 -147.5t-86 -189 t-59.5 -189t-21 -141zM458 1336.5q1 27.5 4.5 48.5t10.5 42q12 35 49 35h4q20 0 27 -8t2 -27q-7 -16 -5 -35t9 -35t31 -27t63 -11q122 0 197 111q12 20 23 26t34 6h2q35 0 23 -35q-10 -26 -23 -51.5t-39 -59t-57 -58t-78.5 -41.5t-101.5 -17q-50 0 -85.5 11.5t-53.5 31.5 t-27.5 43t-8.5 50.5z" />
<glyph unicode="&#x104;" horiz-adv-x="1689" d="M-147 305q0 155 110 252.5t289 97.5q174 0 377 -104q29 -15 49 -9.5t37 33.5l475 797q13 21 38 64t35.5 59.5t31 49t30.5 45t28 34.5t30.5 30t30 18.5t34.5 14t37 3.5q18 0 37.5 -5t45 -19t40 -39t21 -65.5t-10.5 -97.5l-313 -1185q-15 -60 47 -60q108 4 182 73t180 253 q16 26 43.5 22.5t39 -27t-2.5 -53.5q-125 -219 -225 -304.5t-248 -82.5q-35 0 -52 -12.5t-26 -46.5l-92 -354q-4 -14 -11 -16t-14 1.5t-14 -0.5q-102 -64 -170 -132t-68 -115q0 -79 130 -48q26 6 35.5 -5t0.5 -36l-4 -10q-21 -53 -80 -65q-30 -6 -57.5 -7t-56.5 5t-49.5 21 t-34 44t-13.5 70q0 144 291 301q55 30 13 74l-2 2q-39 44 -25 102l57 213q17 61 -41 84q-75 33 -239 119q-29 17 -49.5 12t-40.5 -33q-211 -295 -482 -295q-168 0 -271 93.5t-103 238.5zM2 313q0 -34 12.5 -67t37.5 -62t70.5 -47t104.5 -18q94 0 177.5 57t168.5 174 q38 53 -18 80q-168 86 -303 86q-67 0 -117 -18t-78 -48.5t-41.5 -65t-13.5 -71.5zM846 492q-30 -56 22 -84q114 -64 207 -113q57 -28 72 33l315 1151q4 8 -8 12q-8 4 -14 -4z" />
<glyph unicode="&#x105;" d="M-51 190q0 57 16.5 143t46.5 187.5t78 202t104.5 182.5t131.5 133.5t155 51.5q119 0 170 -109q15 -31 32 -36t48 13l107 64q28 15 39.5 4.5t-0.5 -39.5l-256 -635q-107 -264 0 -264q77 0 188 129.5t227 327.5q16 26 43.5 22.5t39 -27t-2.5 -53.5q-115 -195 -220.5 -321 t-215.5 -172q-34 -12 -84 -45q-170 -130 -170 -205q0 -78 129 -47q26 6 35.5 -5t-0.5 -36l-4 -10q-20 -54 -80 -66q-34 -9 -71.5 -6.5t-68.5 13.5t-51 43.5t-20 82.5q0 110 176 230q25 17 25 29.5t-23 31.5q-37 25 -51 74q-9 25 -20 27.5t-31 -17.5q-115 -115 -236 -115 q-90 0 -138 60t-48 157zM117 211q0 -86 67 -86q92 0 211 149q34 49 51 91l152 374q18 49 8 99q-22 98 -96 98q-58 0 -118.5 -58.5t-108 -147.5t-86 -189t-59.5 -189t-21 -141z" />
<glyph unicode="&#x106;" horiz-adv-x="1341" d="M0 1116q0 127 59 239t150 183q57 44 96 -14q26 -36 23.5 -58t-33.5 -49q-69 -60 -111.5 -141t-42.5 -168q0 -98 65.5 -188.5t166.5 -131.5q65 -25 86 37q49 135 112 262t141 241t161 199t176.5 135t183.5 50q123 0 193.5 -87t70.5 -218q0 -120 -52.5 -258t-164.5 -258 q-256 -272 -653 -283q-33 -2 -50 -14.5t-26 -44.5q-45 -167 -45 -297q0 -223 196 -223q160 0 344.5 142.5t319.5 373.5q16 26 43.5 22.5t39 -27t-2.5 -53.5q-76 -131 -160.5 -237t-182 -190t-209.5 -130.5t-228 -46.5q-326 0 -326 377q0 145 39 311q9 34 -1 51.5t-42 28.5 q-90 34 -157.5 89.5t-105 119.5t-55.5 128t-18 128zM642.5 763q10.5 -14 39.5 -11q134 12 253 72t208 155q85 94 134.5 201.5t49.5 199.5q0 75 -32 119.5t-89 44.5q-88 0 -195 -111t-199.5 -274.5t-168.5 -355.5q-11 -26 -0.5 -40zM1223 1806.5q-6 12.5 11 32.5l136 160 q29 35 59.5 49t75.5 14h41q34 0 39.5 -15.5t-19.5 -37.5l-202 -176q-44 -39 -105 -39h-4q-26 0 -32 12.5z" />
<glyph unicode="&#x107;" horiz-adv-x="821" d="M-33 262q0 114 45.5 256.5t119 270t180.5 214.5t216 87q134 0 184 -101.5t-14 -267.5q-30 -74 -110 -74h-17q-78 0 -47 74q38 86 47.5 135.5t-3 66.5t-44.5 17q-75 0 -151 -85t-128 -201t-85 -229t-33 -177q0 -70 42.5 -115t123.5 -45q129 0 282 128.5t271 328.5 q16 26 43.5 22.5t39 -27t-2.5 -53.5q-45 -79 -94.5 -148.5t-115 -138.5t-134.5 -117.5t-154.5 -79t-173.5 -30.5q-138 0 -212.5 73t-74.5 216zM482 1206.5q-6 12.5 11 32.5l136 160q29 35 59.5 49t75.5 14h41q34 0 39.5 -15.5t-19.5 -37.5l-202 -176q-44 -39 -105 -39h-4 q-26 0 -32 12.5z" />
<glyph unicode="&#x10c;" horiz-adv-x="1341" d="M0 1116q0 127 59 239t150 183q57 44 96 -14q26 -36 23.5 -58t-33.5 -49q-69 -60 -111.5 -141t-42.5 -168q0 -98 65.5 -188.5t166.5 -131.5q65 -25 86 37q49 135 112 262t141 241t161 199t176.5 135t183.5 50q123 0 193.5 -87t70.5 -218q0 -120 -52.5 -258t-164.5 -258 q-256 -272 -653 -283q-33 -2 -50 -14.5t-26 -44.5q-45 -167 -45 -297q0 -223 196 -223q160 0 344.5 142.5t319.5 373.5q16 26 43.5 22.5t39 -27t-2.5 -53.5q-76 -131 -160.5 -237t-182 -190t-209.5 -130.5t-228 -46.5q-326 0 -326 377q0 145 39 311q9 34 -1 51.5t-42 28.5 q-90 34 -157.5 89.5t-105 119.5t-55.5 128t-18 128zM642.5 763q10.5 -14 39.5 -11q134 12 253 72t208 155q85 94 134.5 201.5t49.5 199.5q0 75 -32 119.5t-89 44.5q-88 0 -195 -111t-199.5 -274.5t-168.5 -355.5q-11 -26 -0.5 -40zM1116 2062q-19 43 27 43h4q27 0 43 -9 t29 -32l57 -98q29 -54 80 -16l155 112q57 43 134 43h4q28 0 32.5 -13t-18.5 -32l-313 -245q-29 -23 -64 -23h-4q-37 0 -53 33z" />
<glyph unicode="&#x10d;" horiz-adv-x="821" d="M-33 262q0 114 45.5 256.5t119 270t180.5 214.5t216 87q134 0 184 -101.5t-14 -267.5q-30 -74 -110 -74h-17q-78 0 -47 74q38 86 47.5 135.5t-3 66.5t-44.5 17q-75 0 -151 -85t-128 -201t-85 -229t-33 -177q0 -70 42.5 -115t123.5 -45q129 0 282 128.5t271 328.5 q16 26 43.5 22.5t39 -27t-2.5 -53.5q-45 -79 -94.5 -148.5t-115 -138.5t-134.5 -117.5t-154.5 -79t-173.5 -30.5q-138 0 -212.5 73t-74.5 216zM416 1442q-19 43 26 43h4q27 0 43 -9t29 -32l57 -98q30 -55 80 -17l156 113q57 43 133 43h4q28 0 33 -13t-18 -32l-314 -246 q-29 -23 -63 -23h-4q-38 0 -54 33z" />
<glyph unicode="&#x10e;" horiz-adv-x="1884" d="M-63 182q0 106 78 190.5t214 84.5q81 0 151 -33t161 -107q45 -40 80 13q63 101 122 248l246 614q38 93 103.5 160.5t142.5 87.5q26 8 45.5 -3.5t26.5 -39.5q11 -35 5 -52t-38 -40q-80 -58 -131 -183l-254 -628q-73 -177 -141 -273q-19 -26 -15.5 -45.5t29.5 -38.5 q132 -98 252 -98q99 0 198.5 57t180.5 155t144.5 220.5t98.5 262.5t35 272q0 121 -31 223.5t-90 179.5t-153 120.5t-213 43.5q-135 0 -253 -58t-194 -146.5t-119 -190t-43 -193.5q0 -60 19 -123q13 -46 5 -70t-46 -53q-29 -20 -54.5 -12.5t-37.5 39.5q-35 103 -35 213 q0 153 64 290.5t169.5 233.5t246 152.5t290.5 56.5q134 0 249.5 -46.5t202 -132.5t136 -219.5t49.5 -297.5q0 -125 -28 -258t-79 -258.5t-126 -237.5t-164 -195.5t-199.5 -132.5t-226.5 -49q-93 0 -170 34t-176 110q-28 22 -49.5 22t-49.5 -22q-155 -105 -319 -105 q-141 0 -225 74.5t-84 183.5zM78 188q0 -53 47.5 -84.5t128.5 -31.5q97 0 184 61q25 17 26 38.5t-22 41.5q-123 104 -221 104q-59 0 -101 -40.5t-42 -88.5zM1333 2062q-19 43 27 43h4q27 0 43 -9t29 -32l57 -98q29 -54 80 -16l156 112q57 43 133 43h4q28 0 32.5 -13 t-18.5 -32l-313 -245q-29 -23 -64 -23h-4q-37 0 -53 33z" />
<glyph unicode="&#x10f;" d="M-49 190q0 69 22 177t68 233.5t107 235t149 182t184 72.5q119 0 170 -109q12 -22 24 -21.5t21 23.5l166 410q17 41 43 58t70 17h14q82 0 51 -75l-419 -1041q-26 -64 -39 -112t-14.5 -76.5t5.5 -46t18 -23.5t27 -6q54 0 128.5 68t145 165.5t144.5 223.5q16 26 43.5 22.5 t39 -27t-2.5 -53.5q-66 -113 -124 -197t-126 -160t-140 -116.5t-144 -40.5q-126 0 -162 105q-8 25 -19 27.5t-30 -17.5q-115 -115 -236 -115q-89 0 -136.5 59.5t-47.5 157.5zM117 211q0 -86 69 -86q95 0 209 149q34 49 51 91l152 374q18 49 8 99q-22 98 -96 98 q-58 0 -118.5 -58.5t-108 -147.5t-86 -189t-59.5 -189t-21 -141zM973 1042q-18 35 14 54q70 47 109 86q57 54 6 114q-25 36 -25 72q0 47 34 81t81 34q16 0 34 -6t37 -18.5t31.5 -38.5t12.5 -60q0 -57 -31.5 -114t-82 -101.5t-90.5 -72.5t-81 -50q-31 -18 -47 14z" />
<glyph unicode="&#x110;" horiz-adv-x="1884" d="M-63 182q0 106 78 190.5t214 84.5q81 0 151 -33t161 -107q46 -40 77 13q31 47 68 123q13 26 3.5 40.5t-38.5 14.5h-33q-38 0 -51 20t2 58q17 40 42.5 56.5t68.5 16.5h33q33 0 52.5 13.5t31.5 44.5l192 475q38 93 103.5 160.5t142.5 87.5q26 7 45 -3.5t27 -35.5 q11 -38 5 -55.5t-38 -40.5q-76 -56 -131 -183l-168 -405q-11 -28 -0.5 -43t39.5 -15h26q80 0 50 -77q-17 -40 -42.5 -57t-68.5 -17h-23q-34 0 -53 -12.5t-31 -44.5q-53 -129 -124 -230q-19 -26 -15.5 -45.5t29.5 -38.5q132 -98 252 -98q99 0 198.5 57t180.5 155t144.5 220.5 t98.5 262.5t35 272q0 121 -31 223.5t-90 179.5t-153 120.5t-213 43.5q-135 0 -253 -58t-194 -146.5t-119 -190t-43 -193.5q0 -60 19 -123q13 -46 5 -70t-46 -53h-2q-28 -20 -53 -12.5t-37 39.5q-35 103 -35 213q0 153 64 290.5t169.5 233.5t246 152.5t290.5 56.5 q134 0 249.5 -46.5t202 -132.5t136 -219.5t49.5 -297.5q0 -125 -28 -258t-79 -258.5t-126 -237.5t-164 -195.5t-199.5 -132.5t-226.5 -49q-93 0 -170 34t-176 110q-28 22 -49.5 22t-49.5 -22q-155 -105 -319 -105q-141 0 -225 74.5t-84 183.5zM78 188q0 -53 47.5 -84.5 t128.5 -31.5q97 0 184 61q25 17 26 38.5t-22 41.5q-123 104 -221 104q-59 0 -101 -40.5t-42 -88.5z" />
<glyph unicode="&#x111;" d="M-49 190q0 69 22 177t68 233.5t107 235t149 182t184 72.5q119 0 170 -109q12 -22 24 -21.5t21 23.5l62 145q11 28 0.5 43t-39.5 15h-49q-55 0 -37 53q12 30 30.5 42.5t49.5 12.5h49q33 0 52.5 13.5t31.5 44.5l16 41q17 41 43 58t70 17h14q82 0 51 -75l-16 -41 q-11 -28 -0.5 -43t39.5 -15h41q56 0 35 -55q-12 -29 -30.5 -41t-49.5 -12h-41q-33 0 -52.5 -13.5t-31.5 -44.5l-313 -776q-26 -64 -39 -112t-14.5 -76.5t5.5 -46t18 -23.5t27 -6q54 0 128.5 68t145 165.5t144.5 223.5q16 26 43.5 22.5t39 -27t-2.5 -53.5q-66 -113 -124 -197 t-126 -160t-140 -116.5t-144 -40.5q-126 0 -162 105q-8 25 -19 27.5t-30 -17.5q-115 -115 -236 -115q-89 0 -136.5 59.5t-47.5 157.5zM117 211q0 -86 69 -86q95 0 209 149q34 49 51 91l152 374q18 49 8 99q-22 98 -96 98q-58 0 -118.5 -58.5t-108 -147.5t-86 -189 t-59.5 -189t-21 -141z" />
<glyph unicode="&#x118;" horiz-adv-x="1249" d="M0 373q0 148 72 277.5t201 208t282 77.5q31 0 40.5 12t2.5 43q-20 74 -20 150q0 131 65 252q17 32 20 53.5t-4 56.5q-25 112 -16 228q3 56 59 47q31 -5 43 -19.5t9 -44.5q-2 -34 2 -96q2 -29 17 -36.5t38 9.5q137 97 305 97q87 0 157.5 -28t111.5 -73.5t62.5 -97 t20.5 -103.5q-3 -129 -98 -224t-252 -95q-99 0 -186 43.5t-146 120.5q-11 13 -21.5 16.5t-18 -4t-11.5 -24.5q-11 -60 -9.5 -119t26 -121t69.5 -109q29 -30 33 -51.5t-14 -50.5q-20 -34 -41 -40t-56 13q-88 47 -186 47q-109 0 -198.5 -58t-138 -152.5t-48.5 -202.5 q0 -162 105.5 -276.5t273.5 -114.5q99 0 180.5 40t131 104.5t72 144.5t11.5 161q-4 44 9.5 64t56.5 32q74 18 86 -55q36 -224 -75.5 -396.5t-315.5 -230.5q-50 -15 -95 -43q-97 -65 -157 -126.5t-60 -106.5q0 -78 129 -47q26 6 36 -5t1 -36l-4 -10q-22 -54 -80 -66 q-35 -9 -72.5 -6.5t-68.5 13t-51.5 43t-20.5 83.5q0 123 213 252q13 8 16.5 16t-3 13.5t-21.5 7.5q-203 29 -336 183.5t-133 359.5zM838.5 1383q-1.5 -27 17.5 -50q48 -64 114.5 -100.5t139.5 -36.5q53 0 94.5 17.5t64.5 45t34.5 55.5t11.5 54q0 25 -10.5 50.5t-33 51 t-65.5 41t-100 15.5q-143 0 -244 -94q-22 -22 -23.5 -49z" />
<glyph unicode="&#x119;" horiz-adv-x="823" d="M-31 264q0 115 45.5 257.5t119.5 269t181.5 213t219.5 86.5q94 0 148 -56.5t54 -148.5t-55 -209q-39 -79 -88.5 -131.5t-110.5 -79t-124 -35t-144 -4.5q-55 3 -70 -49q-7 -29 -11.5 -56t-6.5 -62t6.5 -63.5t24.5 -54t49 -39.5t80 -14q141 0 289.5 126t271.5 331 q16 26 43.5 22.5t39 -27t-2.5 -53.5q-247 -424 -549 -497q-47 -11 -94 -43q-75 -56 -121.5 -110t-46.5 -93q0 -78 129 -47q26 6 36 -5t1 -36l-4 -10q-22 -54 -80 -66q-35 -9 -72 -6.5t-68 13t-51 43t-20 83.5q0 111 172 230q20 13 18.5 25t-26.5 18q-183 52 -183 278z M215 584q-11 -28 0.5 -45t40.5 -17q107 -4 170 51t109 154q103 215 -15 215q-41 0 -82.5 -27.5t-73 -65.5t-63 -91t-50 -92t-36.5 -82z" />
<glyph unicode="&#x11a;" horiz-adv-x="1249" d="M0 373q0 148 72 277.5t201 208t282 77.5q31 0 40.5 12t2.5 43q-20 74 -20 150q0 131 65 252q17 32 20 53.5t-4 56.5q-25 112 -16 228q3 56 59 47q31 -5 43 -19.5t9 -44.5q-2 -34 2 -96q2 -29 17 -36.5t38 9.5q137 97 305 97q87 0 157.5 -28t111.5 -73.5t62.5 -97 t20.5 -103.5q-3 -129 -98 -224t-252 -95q-99 0 -186 43.5t-146 120.5q-11 13 -21.5 16.5t-18 -4t-11.5 -24.5q-11 -60 -9.5 -119t26 -121t69.5 -109q29 -31 32.5 -51t-13.5 -51q-18 -32 -39.5 -38.5t-57.5 11.5q-88 47 -186 47q-109 0 -198.5 -58t-138 -152.5t-48.5 -202.5 q0 -162 105.5 -276.5t273.5 -114.5q99 0 180.5 40t131 104.5t72 144.5t11.5 161q-4 44 9.5 64t56.5 32q74 18 86 -55q22 -134 -13.5 -255.5t-112.5 -206.5t-189 -135t-240 -50q-150 0 -275.5 74t-196.5 199t-71 272zM838.5 1383q-1.5 -27 17.5 -50q48 -64 114.5 -100.5 t139.5 -36.5q53 0 94.5 17.5t64.5 45t34.5 55.5t11.5 54q0 25 -10.5 50.5t-33 51t-65.5 41t-100 15.5q-143 0 -244 -94q-22 -22 -23.5 -49zM1049 2056q-19 43 26 43h4q27 0 43 -9t29 -32l57 -98q29 -54 80 -16l156 112q57 43 133 43h4q28 0 32.5 -13t-18.5 -32l-313 -246 q-28 -22 -63 -22h-5q-37 0 -53 33z" />
<glyph unicode="&#x11b;" horiz-adv-x="823" d="M-31 264q0 115 45.5 257.5t119.5 269t181.5 213t219.5 86.5q94 0 148 -56.5t54 -148.5t-55 -209q-39 -79 -88.5 -131.5t-110.5 -79t-124 -35t-144 -4.5q-55 3 -70 -49q-7 -29 -11.5 -56t-6.5 -62t6.5 -63.5t24.5 -54t49 -39.5t80 -14q141 0 289.5 126t271.5 331 q16 26 43.5 22.5t39 -27t-2.5 -53.5q-46 -80 -95.5 -148.5t-115.5 -138t-135 -118t-154.5 -79t-173.5 -30.5q-138 0 -211.5 73t-73.5 218zM215 584q-11 -28 0.5 -45t40.5 -17q107 -4 170 51t109 154q103 215 -15 215q-41 0 -82.5 -27.5t-73 -65.5t-63 -91t-50 -92t-36.5 -82 zM383 1442q-19 43 27 43h4q26 0 42 -9t29 -32l58 -98q30 -55 80 -17l155 113q57 43 133 43h4q28 0 33 -13t-18 -32l-314 -246q-29 -23 -63 -23h-4q-37 0 -53 33z" />
<glyph unicode="&#x131;" horiz-adv-x="516" d="M-18 442l221 545q17 41 42.5 58.5t69.5 17.5h15q40 0 53 -19.5t-2 -56.5l-256 -635q-21 -50 -33.5 -91t-16.5 -68t-3 -47t6 -31t13.5 -17.5t15.5 -8t16 -1.5q54 0 128.5 68t145 165.5t144.5 223.5q16 26 43.5 22.5t39 -27t-2.5 -53.5q-68 -117 -128.5 -203t-128.5 -160 t-138.5 -112.5t-141.5 -38.5q-291 0 -102 469z" />
<glyph unicode="&#x139;" horiz-adv-x="1443" d="M-133 115q0 106 80 190t213 84q132 0 254 -82q47 -33 73 21q67 154 101 243q12 31 4 49.5t-39 30.5q-93 35 -161.5 90t-105.5 119.5t-54 127.5t-17 128q0 127 59 239t150 183q56 44 98 -14q26 -36 23.5 -58.5t-33.5 -50.5q-156 -131 -156 -307q0 -104 67.5 -192 t170.5 -132q62 -27 86 35q55 140 102.5 247t103.5 214t112.5 182t121 134t137 88.5t152.5 29.5q67 0 120.5 -20.5t86 -52.5t54 -74t30 -80.5t8.5 -75.5q0 -120 -56 -259.5t-169 -260.5q-254 -267 -635 -283q-33 0 -51.5 -13t-30.5 -44q-87 -226 -143 -340q-15 -29 -11.5 -50 t27.5 -44q35 -34 122.5 -120t147 -141t119.5 -102q162 -125 275 -125q100 0 215 92q35 28 61 26t55 -36l2 -2q54 -60 -10 -112q-168 -134 -319 -134q-167 0 -375 162q-109 84 -385 348q-25 24 -44 24t-46 -24q-120 -108 -287 -118q-131 -6 -217 72t-86 188zM18 125 q0 -50 36.5 -87.5t101.5 -37.5q95 0 178 86q42 49 -8 90q-91 70 -162 70q-69 0 -107.5 -37t-38.5 -84zM858 797q-9 -27 1.5 -41t39.5 -11q251 31 447 234q85 94 134.5 202t49.5 203q0 70 -33 112t-96 42q-260 0 -543 -741zM1408 1804.5q-6 12.5 11 32.5l136 160 q29 35 59.5 49t75.5 14h41q34 0 39.5 -15.5t-19.5 -37.5l-202 -176q-44 -39 -105 -39h-4q-26 0 -32 12.5z" />
<glyph unicode="&#x13a;" horiz-adv-x="516" d="M-18 442l385 951q17 41 42.5 58t69.5 17h15q82 0 51 -75l-420 -1041q-26 -64 -39 -112t-14.5 -76.5t5.5 -46t18.5 -23.5t27.5 -6q54 0 128.5 68t145 165.5t144.5 223.5q16 26 43.5 22.5t39 -27t-2.5 -53.5q-68 -117 -128.5 -203t-128.5 -160t-138.5 -112.5t-141.5 -38.5 q-288 0 -102 469zM496 1612.5q-6 12.5 11 32.5l136 160q29 35 59.5 49t75.5 14h41q34 0 39.5 -15.5t-19.5 -37.5l-202 -176q-44 -39 -105 -39h-4q-26 0 -32 12.5z" />
<glyph unicode="&#x13d;" horiz-adv-x="1443" d="M-133 115q0 106 80 190t213 84q132 0 254 -82q47 -33 73 21q67 154 101 243q12 31 4 49.5t-39 30.5q-93 35 -161.5 90t-105.5 119.5t-54 127.5t-17 128q0 127 59 239t150 183q56 44 98 -14q26 -36 23.5 -58.5t-33.5 -50.5q-156 -131 -156 -307q0 -104 67.5 -192 t170.5 -132q62 -27 86 35q55 140 102.5 247t103.5 214t112.5 182t121 134t137 88.5t152.5 29.5q67 0 120.5 -20.5t86 -52.5t54 -74t30 -80.5t8.5 -75.5q0 -120 -56 -259.5t-169 -260.5q-254 -267 -635 -283q-33 0 -51.5 -13t-30.5 -44q-87 -226 -143 -340q-15 -29 -11.5 -50 t27.5 -44q35 -34 122.5 -120t147 -141t119.5 -102q162 -125 275 -125q100 0 215 92q35 28 61 26t55 -36l2 -2q54 -60 -10 -112q-168 -134 -319 -134q-167 0 -375 162q-109 84 -385 348q-25 24 -44 24t-46 -24q-120 -108 -287 -118q-131 -6 -217 72t-86 188zM18 125 q0 -50 36.5 -87.5t101.5 -37.5q95 0 178 86q42 49 -8 90q-91 70 -162 70q-69 0 -107.5 -37t-38.5 -84zM858 797q-9 -27 1.5 -41t39.5 -11q251 31 447 234q85 94 134.5 202t49.5 203q0 70 -33 112t-96 42q-260 0 -543 -741zM1731 1249q-14 32 14 51q79 56 121 95q58 55 8 118 q-27 30 -27 72q0 46 34 80.5t81 34.5q41 0 77 -30t36 -95q0 -49 -23 -98t-56 -86t-77 -72t-76.5 -55t-64.5 -37q-30 -17 -43 16z" />
<glyph unicode="&#x13e;" horiz-adv-x="516" d="M-18 442l385 951q17 41 42.5 58t69.5 17h15q82 0 51 -75l-420 -1041q-26 -64 -39 -112t-14.5 -76.5t5.5 -46t18.5 -23.5t27.5 -6q54 0 128.5 68t145 165.5t144.5 223.5q16 26 43.5 22.5t39 -27t-2.5 -53.5q-68 -117 -128.5 -203t-128.5 -160t-138.5 -112.5t-141.5 -38.5 q-288 0 -102 469zM475 1040q-17 33 12 54q73 50 111 88q57 54 6 114q-24 34 -24 72q0 47 33.5 81t80.5 34q23 0 47 -9t46 -38.5t22 -75.5q0 -57 -31.5 -114t-82 -102t-91 -73.5t-80.5 -50.5q-31 -16 -47 16z" />
<glyph unicode="&#x141;" horiz-adv-x="1443" d="M-133 115q0 106 80 190t213 84q132 0 254 -82q47 -33 73 21q39 86 113 282q10 26 0.5 38t-37.5 7l-143 -32q-31 -6 -42 7.5t1 45.5q15 35 36 53t58 25l139 30q33 8 51.5 24t30.5 48q63 161 119.5 282t126 234t139.5 185t156.5 114.5t181.5 42.5q125 0 191.5 -62.5 t77.5 -172.5q3 -38 -15 -59t-53 -23q-54 0 -73.5 14t-41.5 68q-26 59 -102 59q-69 0 -137 -48.5t-130.5 -139t-117.5 -198.5t-111 -247q-10 -26 0 -37.5t37 -5.5l133 31q31 6 42 -7.5t-1 -45.5q-15 -35 -36 -53t-58 -27l-137 -31q-29 -6 -45 -20.5t-27 -42.5 q-116 -301 -192 -455q-14 -29 -10 -50t28 -44q35 -34 122.5 -120t147 -141t119.5 -102q162 -125 275 -125q100 0 215 92q35 28 61 25.5t57 -37.5q54 -60 -10 -112q-164 -130 -317 -134q-168 0 -375 162q-88 67 -387 348q-25 24 -44 24t-46 -24q-120 -108 -287 -118 q-131 -6 -217 72t-86 188zM18 125q0 -50 36.5 -87.5t101.5 -37.5q95 0 178 86q42 49 -8 90q-91 70 -162 70q-69 0 -107.5 -37t-38.5 -84z" />
<glyph unicode="&#x142;" horiz-adv-x="516" d="M-102 538q-10 11 0 40q25 63 90 92l49 22q56 26 78 82l252 619q17 41 42.5 58t69.5 17h15q82 0 51 -75l-213 -525q-9 -25 0.5 -34t32.5 2l79 34q26 12 36.5 1t0.5 -40q-25 -63 -90 -92l-78 -34q-55 -25 -77 -82l-111 -271q-26 -64 -39 -112t-14.5 -76.5t5.5 -46 t18.5 -23.5t27.5 -6q54 0 128.5 68t145 165.5t144.5 223.5q16 26 43.5 22.5t39 -27t-2.5 -53.5q-68 -117 -128.5 -203t-128.5 -160t-138.5 -112.5t-141.5 -38.5q-291 0 -102 469l36 86q9 25 0 34t-32 -1l-52 -22q-26 -12 -36 -1z" />
<glyph unicode="&#x143;" horiz-adv-x="1437" d="M0 893q0 71 23.5 135t60.5 112.5t95 94.5t115 78t134 67t137.5 58.5t140 54.5t128.5 53q75 34 96 -45l35 -112q15 -60 63 -21q240 195 377 195q69 0 116.5 -44t47.5 -120q0 -84 -80 -285l-445 -1110q-54 -136 9 -213q35 -41 40 -67t-14 -76q-14 -37 -39.5 -44.5 t-56.5 17.5q-208 159 -94 442l407 1014q90 228 90 252q0 66 -53 66q-63 0 -181 -75.5t-214 -168.5q-41 -41 -61 -92l-406 -1010q-17 -41 -43 -58.5t-70 -17.5h-14q-40 0 -53 19.5t2 56.5l512 1278q9 25 -0.5 34.5t-34.5 0.5q-22 -8 -74 -27t-82 -30t-81.5 -31.5t-83.5 -36.5 t-76.5 -40t-73 -46t-59.5 -51.5t-49 -59t-29.5 -65.5t-11.5 -74q0 -64 25 -112.5t73 -69.5q47 -22 59 -40t12 -69q-3 -29 -21.5 -41.5t-49.5 -5.5q-115 25 -182.5 119t-65.5 211zM1209.5 1716.5q-5.5 12.5 11.5 32.5l135 160q29 35 59.5 49t75.5 14h41q34 0 39.5 -15.5 t-19.5 -37.5l-202 -176q-44 -39 -105 -39h-4q-26 0 -31.5 12.5z" />
<glyph unicode="&#x144;" horiz-adv-x="970" d="M-166 19.5q-13 19.5 2 56.5l367 911q32 78 94 25l20 -17q28 -20 49.5 -20t49.5 22q118 93 219 93q62 0 104.5 -39t42.5 -113q0 -83 -69 -258l-133 -328q-106 -264 0 -264q77 0 188 129.5t227 327.5q16 25 43.5 21.5t39 -26.5t-2.5 -53q-66 -115 -126.5 -202 t-128.5 -160.5t-138 -112.5t-139 -39q-49 0 -85.5 14t-61 47.5t-30.5 86t11 134t59 185.5l101 244q64 162 69 194q2 8 2 15q0 22 -16.5 34.5t-42.5 12.5q-38 0 -92.5 -28t-112.5 -81q-42 -38 -61 -88l-269 -667q-17 -41 -42.5 -58.5t-69.5 -17.5h-15q-40 0 -53 19.5z M439.5 1206.5q-5.5 12.5 11.5 32.5l135 160q29 35 59.5 49t75.5 14h41q34 0 39.5 -15.5t-19.5 -37.5l-202 -176q-44 -39 -105 -39h-4q-26 0 -31.5 12.5z" />
<glyph unicode="&#x147;" horiz-adv-x="1437" d="M0 893q0 71 23.5 135t60.5 112.5t95 94.5t115 78t134 67t137.5 58.5t140 54.5t128.5 53q75 34 96 -45l35 -112q15 -60 63 -21q240 195 377 195q69 0 116.5 -44t47.5 -120q0 -84 -80 -285l-445 -1110q-54 -136 9 -213q35 -41 40 -67t-14 -76q-14 -37 -39.5 -44.5 t-56.5 17.5q-208 159 -94 442l407 1014q90 228 90 252q0 66 -53 66q-63 0 -181 -75.5t-214 -168.5q-41 -41 -61 -92l-406 -1010q-17 -41 -43 -58.5t-70 -17.5h-14q-40 0 -53 19.5t2 56.5l512 1278q9 25 -0.5 34.5t-34.5 0.5q-22 -8 -74 -27t-82 -30t-81.5 -31.5t-83.5 -36.5 t-76.5 -40t-73 -46t-59.5 -51.5t-49 -59t-29.5 -65.5t-11.5 -74q0 -64 25 -112.5t73 -69.5q47 -22 59 -40t12 -69q-3 -29 -21.5 -41.5t-49.5 -5.5q-115 25 -182.5 119t-65.5 211zM1104 1976q-19 43 26 43h5q26 0 42 -9t29 -32l58 -98q29 -54 79 -16l156 112q57 43 133 43h4 q28 0 33 -13t-18 -32l-314 -245q-29 -23 -63 -23h-4q-37 0 -53 33z" />
<glyph unicode="&#x148;" horiz-adv-x="970" d="M-166 19.5q-13 19.5 2 56.5l367 911q32 78 94 25l20 -17q28 -20 49.5 -20t49.5 22q118 93 219 93q62 0 104.5 -39t42.5 -113q0 -83 -69 -258l-133 -328q-106 -264 0 -264q77 0 188 129.5t227 327.5q16 25 43.5 21.5t39 -26.5t-2.5 -53q-66 -115 -126.5 -202 t-128.5 -160.5t-138 -112.5t-139 -39q-49 0 -85.5 14t-61 47.5t-30.5 86t11 134t59 185.5l101 244q64 162 69 194q2 8 2 15q0 22 -16.5 34.5t-42.5 12.5q-38 0 -92.5 -28t-112.5 -81q-42 -38 -61 -88l-269 -667q-17 -41 -42.5 -58.5t-69.5 -17.5h-15q-40 0 -53 19.5z M350 1442q-19 43 27 43h4q27 0 43 -9t29 -32l57 -98q30 -55 80 -17l155 113q57 43 134 43h4q28 0 32.5 -13t-18.5 -32l-313 -246q-29 -23 -64 -23h-4q-37 0 -53 33z" />
<glyph unicode="&#x150;" horiz-adv-x="1378" d="M2 260q0 149 49.5 337t133 367t205 334.5t253.5 233.5q52 31 102 76q107 96 240 96q145 0 229 -111t84 -293q0 -192 -59.5 -416.5t-165.5 -439.5q-12 -25 -2.5 -42.5t37.5 -20.5q54 -7 104 7t87 42.5t61.5 56.5t42.5 58q16 25 43.5 20.5t39 -27.5t-2.5 -51 q-77 -120 -196 -169.5t-236 -30.5q-34 5 -51.5 -3.5t-36.5 -37.5q-127 -199 -278.5 -314.5t-315.5 -115.5q-94 0 -166 35t-115 96.5t-64.5 140.5t-21.5 172zM170 242q0 -54 10 -101.5t32 -90.5t64 -68t99 -25q102 0 214.5 95.5t211.5 254.5q20 31 17 51t-30 45 q-25 23 -49 50t-54.5 71.5t-55 94t-46 118t-32 142.5t-9 168.5t18.5 195.5q4 22 -4 25.5t-22 -13.5q-136 -185 -250.5 -497.5t-114.5 -515.5zM688 999q0 -149 41 -274t117 -211q20 -23 40 -20.5t32 30.5q97 200 156 421t59 335q0 134 -47.5 194t-127.5 60q-77 0 -140 -76.5 t-96.5 -198t-33.5 -260.5zM839.5 1803q-5.5 11 8.5 30l114 162q26 35 55.5 50t73.5 15h13q34 0 41.5 -17t-17.5 -42l-170 -172q-34 -37 -86 -37h-4q-23 0 -28.5 11zM1128 1803q-6 11 8 30l115 162q26 35 55.5 50t73.5 15h12q34 0 41.5 -17t-16.5 -42l-170 -172 q-34 -37 -86 -37h-4q-23 0 -29 11z" />
<glyph unicode="&#x151;" horiz-adv-x="948" d="M-37 231q0 66 17.5 154t50 184.5t83 189t110.5 166.5t139.5 119.5t164.5 45.5q98 0 163 -65t65 -194q0 -93 -34 -224t-93 -253q-12 -25 -1.5 -41t38.5 -16q75 2 155 63.5t152 184.5q16 26 43.5 22.5t39 -27t-2.5 -53.5q-90 -159 -206.5 -239.5t-248.5 -59.5 q-36 5 -53.5 -2t-40.5 -34q-142 -179 -314 -179q-98 0 -162.5 63.5t-64.5 194.5zM113 227q0 -61 25.5 -96t68.5 -35q67 0 139 88q37 41 43 64.5t-6 79.5q-4 20 -4 30q0 41 25 73t63 38q32 7 42.5 16.5t22.5 40.5q74 199 74 316q0 63 -23.5 94t-62.5 31q-66 0 -141.5 -87 t-132.5 -207t-95 -245t-38 -201zM399.5 1205q-5.5 11 8.5 30l114 162q26 35 55.5 50t73.5 15h13q34 0 41.5 -17t-17.5 -42l-170 -172q-34 -37 -86 -37h-4q-23 0 -28.5 11zM688 1205q-6 11 8 30l115 162q26 35 55.5 50t73.5 15h12q34 0 41.5 -17t-16.5 -42l-170 -172 q-34 -37 -86 -37h-4q-23 0 -29 11z" />
<glyph unicode="&#x152;" horiz-adv-x="2164" d="M2 260q0 70 8 133q19 150 75 319t137.5 326.5t192 290.5t228.5 203q52 31 102 76q107 96 240 96q145 0 229 -111t84 -293q0 -54 -6 -122q-8 -97 -35 -224q-6 -28 4.5 -38t38.5 -3q76 23 168 23q31 -1 41 11.5t2 43.5q-20 74 -20 150q0 131 65 252q18 33 21 53.5t-4 56.5 q-26 115 -17 228q3 56 60 47q31 -5 42.5 -19t8.5 -45q-2 -34 2 -96q3 -29 18.5 -36.5t38.5 9.5q137 97 306 97q87 0 157 -28t111 -73.5t62 -97t20 -103.5q-2 -129 -97 -224t-253 -95q-99 0 -185 43.5t-147 120.5q-11 13 -21.5 16.5t-18 -4t-11.5 -24.5q-11 -60 -9.5 -119 t26.5 -121t71 -109q29 -30 32.5 -51.5t-14.5 -50.5q-22 -34 -42.5 -40t-55.5 13q-88 47 -187 47q-109 0 -198.5 -58t-138 -152.5t-48.5 -202.5q0 -163 106 -278t277 -115q100 0 182.5 40.5t132.5 105.5t72.5 145.5t10.5 162.5q-5 43 8 62.5t55 31.5q72 18 84 -55 q22 -134 -13.5 -255t-112 -206.5t-189 -135.5t-240.5 -50q-166 0 -299 89t-198 233q-12 26 -27.5 28t-30.5 -20q-253 -342 -534 -342q-94 0 -166 35t-115 96.5t-64.5 140.5t-21.5 172zM170 242q0 -54 10 -101.5t32 -90.5t64 -68t99 -25q102 0 214.5 95.5t211.5 254.5 q20 31 17 51t-30 45q-25 22 -49 49t-54.5 71t-55 93.5t-46 118t-32 142.5t-9 169t18.5 197q4 22 -4 25.5t-22 -13.5q-136 -185 -250.5 -497.5t-114.5 -515.5zM688 999q0 -148 41.5 -274t116.5 -211q20 -23 40 -20.5t32 30.5q97 200 156 421t59 335q0 134 -47.5 194 t-127.5 60q-77 0 -140 -76.5t-96.5 -198t-33.5 -260.5zM1752 1383q-2 -27 17 -50q48 -64 114.5 -100.5t139.5 -36.5q53 0 94.5 17.5t64.5 45t34.5 55.5t11.5 54q0 25 -10.5 50.5t-33 51t-65.5 41t-100 15.5q-140 0 -243 -96q-22 -20 -24 -47z" />
<glyph unicode="&#x153;" horiz-adv-x="1343" d="M-37 231q0 66 17.5 154t50 184.5t83 189t110.5 166.5t139.5 119.5t164.5 45.5q138 0 201 -111q13 -26 28.5 -28t37.5 18q128 121 260 121q94 0 148 -56.5t54 -148.5t-55 -209q-39 -79 -88.5 -131.5t-110 -79t-123.5 -35t-143 -4.5q-56 3 -71 -49q-7 -29 -11.5 -56 t-6.5 -62t6 -63.5t24 -54t49 -39.5t80 -14q141 0 289.5 126t271.5 331q16 26 43.5 22.5t39 -27t-2.5 -53.5q-46 -80 -95.5 -148.5t-115.5 -138t-135 -118t-154.5 -79t-173.5 -30.5q-182 0 -252 113q-15 26 -29.5 28t-37.5 -20q-124 -121 -265 -121q-98 0 -162.5 63.5 t-64.5 194.5zM113 227q0 -61 25.5 -96t68.5 -35q53 0 112.5 57t109 146t90.5 190t64 196t23 157q0 63 -23.5 94t-62.5 31q-66 0 -141.5 -87t-132.5 -207t-95 -245t-38 -201zM735 584q-11 -28 0.5 -45t40.5 -17q57 -2 102.5 13.5t78.5 47t55 65t43 79.5q103 215 -15 215 q-41 0 -82.5 -27.5t-73 -65.5t-63 -91t-50 -92t-36.5 -82z" />
<glyph unicode="&#x154;" horiz-adv-x="1288" d="M2 1014q0 141 59 274.5t160 234.5t246.5 162.5t308.5 61.5q127 0 240 -36.5t200 -105t138 -175t51 -236.5q0 -146 -54.5 -274t-158 -217t-238.5 -115q-54 -9 -16 -47q106 -117 57 -383l-67 -369q-30 -159 59 -195q45 -21 59 -39t15 -63q0 -34 -20 -50.5t-54 -10.5 q-124 19 -183 123t-30 260l55 299q31 178 23 268q-6 71 -29 111q-46 80 -170 120q-8 2 -69 27q-55 23 -78 -33l-225 -557q-17 -41 -43 -58.5t-70 -17.5h-14q-40 0 -53.5 19.5t1.5 56.5l473 1174q37 92 103 159.5t143 87.5q26 7 45 -3t27 -35q10 -38 4 -56t-37 -41 q-82 -56 -133 -182l-133 -326q-24 -58 35 -79q147 -53 260.5 -32t191 96.5t118 176t40.5 207.5q0 182 -132.5 297t-336.5 115q-114 0 -216 -38.5t-174.5 -100.5t-126.5 -139t-80 -156t-26 -150q0 -54 21 -127q14 -42 6.5 -66t-43.5 -51q-28 -20 -52 -13.5t-36 38.5 q-41 96 -41 209zM955 1849.5q-6 12.5 11 32.5l136 160q29 35 59.5 49t75.5 14h41q34 0 39.5 -15.5t-19.5 -37.5l-202 -176q-44 -39 -105 -39h-4q-26 0 -32 12.5z" />
<glyph unicode="&#x155;" horiz-adv-x="776" d="M23 491.5q-12 23.5 2 53.5q76 128 155 307q18 39 17.5 61t-21.5 58q-24 41 -24 84q0 53 34.5 101.5t85.5 80.5q54 33 99 -6l12 -8q50 -41 25 -97l-33 -75q-26 -59 20 -97q4 -4 28.5 -25.5t31 -28t27 -26.5t27.5 -29.5t20.5 -28.5t18.5 -33.5t10 -33.5t5 -38 q0 -45 -24 -105l-103 -256q-27 -66 -40.5 -116t-14.5 -77t6.5 -43.5t17 -21t21.5 -4.5q61 0 148.5 110.5t226.5 346.5q16 26 43.5 22.5t39 -27t-2.5 -53.5q-41 -70 -68.5 -115t-66.5 -105t-69 -97.5t-68 -79t-72 -64.5t-72.5 -38t-77.5 -15q-63 0 -102.5 27t-56.5 83 t0.5 150.5t70.5 221.5l78 190q18 46 18 70q0 37 -61 92q-47 41 -74 -14q-73 -160 -156 -306q-15 -26 -42 -22.5t-39 27zM337 1356.5q-6 12.5 11 32.5l136 160q29 35 59.5 49t75.5 14h41q34 0 39.5 -15.5t-19.5 -37.5l-202 -176q-44 -39 -105 -39h-4q-26 0 -32 12.5z" />
<glyph unicode="&#x158;" horiz-adv-x="1288" d="M2 1014q0 141 59 274.5t160 234.5t246.5 162.5t308.5 61.5q127 0 240 -36.5t200 -105t138 -175t51 -236.5q0 -146 -54.5 -274t-158 -217t-238.5 -115q-54 -9 -16 -47q106 -117 57 -383l-67 -369q-30 -159 59 -195q45 -21 59 -39t15 -63q0 -34 -20 -50.5t-54 -10.5 q-124 19 -183 123t-30 260l55 299q31 178 23 268q-6 71 -29 111q-46 80 -170 120q-8 2 -69 27q-55 23 -78 -33l-225 -557q-17 -41 -43 -58.5t-70 -17.5h-14q-40 0 -53.5 19.5t1.5 56.5l473 1174q37 92 103 159.5t143 87.5q26 7 45 -3t27 -35q10 -38 4 -56t-37 -41 q-82 -56 -133 -182l-133 -326q-24 -58 35 -79q147 -53 260.5 -32t191 96.5t118 176t40.5 207.5q0 182 -132.5 297t-336.5 115q-114 0 -216 -38.5t-174.5 -100.5t-126.5 -139t-80 -156t-26 -150q0 -54 21 -127q14 -42 6.5 -66t-43.5 -51q-28 -20 -52 -13.5t-36 38.5 q-41 96 -41 209zM879 2107q-19 43 26 43h4q27 0 43 -9t29 -32l57 -98q29 -54 80 -16l156 112q57 43 133 43h4q28 0 32.5 -13t-18.5 -32l-313 -245q-29 -23 -63 -23h-5q-37 0 -53 33z" />
<glyph unicode="&#x159;" horiz-adv-x="776" d="M23 491.5q-12 23.5 2 53.5q76 128 155 307q18 39 17.5 61t-21.5 58q-24 41 -24 84q0 53 34.5 101.5t85.5 80.5q54 33 99 -6l12 -8q50 -41 25 -97l-33 -75q-26 -59 20 -97q4 -4 28.5 -25.5t31 -28t27 -26.5t27.5 -29.5t20.5 -28.5t18.5 -33.5t10 -33.5t5 -38 q0 -45 -24 -105l-103 -256q-27 -66 -40.5 -116t-14.5 -77t6.5 -43.5t17 -21t21.5 -4.5q61 0 148.5 110.5t226.5 346.5q16 26 43.5 22.5t39 -27t-2.5 -53.5q-41 -70 -68.5 -115t-66.5 -105t-69 -97.5t-68 -79t-72 -64.5t-72.5 -38t-77.5 -15q-63 0 -102.5 27t-56.5 83 t0.5 150.5t70.5 221.5l78 190q18 46 18 70q0 37 -61 92q-47 41 -74 -14q-73 -160 -156 -306q-15 -26 -42 -22.5t-39 27zM209 1614q-19 43 27 43h4q26 0 42 -9t29 -32l58 -98q30 -55 80 -17l155 113q57 43 133 43h4q28 0 33 -13t-18 -32l-314 -246q-29 -23 -63 -23h-4 q-37 0 -53 33z" />
<glyph unicode="&#x15a;" horiz-adv-x="1304" d="M-86 -424q-13 208 127 418q20 29 20.5 50t-18.5 52q-84 139 -84 310q0 84 21 160.5t58.5 136.5t88 109t110.5 80.5t125 48t133 14.5t132 -23t39 -86q-17 -38 -38 -49t-59 -2q-93 20 -177.5 -2.5t-144 -76.5t-95 -135.5t-35.5 -174.5q0 -95 35 -179q11 -28 30 -32t41 18 q60 61 161.5 160.5t258 251t242.5 235.5q25 23 33.5 47t3.5 58q-25 186 -25 297q0 225 91 350t249 125q124 0 195 -73t71 -189q0 -48 -12 -94.5t-40.5 -95t-54 -85.5t-76 -91t-81 -84.5t-92.5 -90.5q-46 -43 -35 -105q41 -281 41 -380q0 -280 -163.5 -456.5t-424.5 -176.5 q-193 0 -352 102q-26 17 -44.5 12.5t-35.5 -30.5q-98 -159 -90 -324q1 -34 -12 -47.5t-47 -13.5h-4q-63 0 -66 61zM307 113q-44 -44 8 -76q108 -64 232 -64q194 0 317 125.5t123 343.5q0 77 -22 242q-5 28 -20 33t-34 -15zM1065 1272q0 -61 10 -156q2 -28 16.5 -33t34.5 15 q127 122 184.5 202.5t57.5 159.5q0 61 -31 97t-82 36q-74 0 -132 -79t-58 -242zM1287 1849.5q-6 12.5 11 32.5l136 160q29 35 59.5 49t75.5 14h41q34 0 39.5 -15.5t-19.5 -37.5l-203 -176q-44 -39 -104 -39h-4q-26 0 -32 12.5z" />
<glyph unicode="&#x15b;" horiz-adv-x="718" d="M-53.5 107q2.5 18 22.5 30q28 17 45 16.5t43 -20.5q48 -29 99 -29q66 0 96.5 52.5t30.5 189.5q0 37 -5 170.5t-4 218.5q0 22 -9 24t-19 -18q-12 -22 -142 -254q-15 -26 -42 -22.5t-39 27t2 53.5q136 232 276 522q17 36 40 43.5t58 -10.5q37 -20 48 -44t4 -65 q-19 -92 -26 -203.5t-4.5 -187t8 -166t5.5 -110.5q0 -75 -12 -127q-4 -25 7.5 -31.5t31.5 8.5q125 99 282 371q15 26 42.5 22.5t39.5 -27t-2 -53.5q-31 -54 -50.5 -87t-51.5 -82.5t-56 -80t-59 -71t-66 -65.5t-72 -52t-82.5 -42t-91.5 -24.5t-104 -9.5q-141 0 -231 99 q-15 17 -12.5 35zM308 1224.5q-6 12.5 11 32.5l136 160q29 35 60 49.5t75 14.5h41q34 0 39.5 -16t-19.5 -38l-202 -176q-44 -39 -105 -39h-4q-26 0 -32 12.5z" />
<glyph unicode="&#x15e;" horiz-adv-x="1304" d="M-86 -424q-13 208 127 418q20 29 20.5 50t-18.5 52q-84 139 -84 310q0 84 21 160.5t58.5 136.5t88 109t110.5 80.5t125 48t133 14.5t132 -23t39 -86q-17 -38 -38 -49t-59 -2q-93 20 -177.5 -2.5t-144 -76.5t-95 -135.5t-35.5 -174.5q0 -95 35 -179q11 -28 30 -32t41 18 q60 61 161.5 160.5t258 251t242.5 235.5q25 23 33.5 47t3.5 58q-25 186 -25 297q0 225 91 350t249 125q124 0 195 -73t71 -189q0 -48 -12 -94.5t-40.5 -95t-54 -85.5t-76 -91t-81 -84.5t-92.5 -90.5q-46 -43 -35 -105q41 -281 41 -380q0 -254 -136.5 -424.5t-361.5 -202.5 q-33 -5 -51 -16.5t-33 -38.5q-12 -26 -6 -39.5t35 -28.5q59 -29 59 -115q0 -57 -30.5 -100.5t-77.5 -63.5t-105 -27.5t-112 5.5q-22 3 -28 17.5t7 33.5q17 26 30 32t50 3q27 -2 54 2t52.5 14t41.5 31t16 49q0 51 -55 64q-34 7 -41 22.5t8 46.5l27 47q27 53 -33 62 q-138 24 -248 96q-49 32 -82 -18q-98 -159 -90 -324q1 -34 -12 -47.5t-47 -13.5h-4q-63 0 -66 61zM307 109q-43 -46 10 -76q102 -60 230 -60q194 0 317 125.5t123 343.5q0 77 -22 242q-5 28 -20 33t-34 -15q-52 -51 -267 -263t-337 -330zM1065 1272q0 -61 10 -156 q2 -28 16.5 -33t34.5 15q127 122 184.5 202.5t57.5 159.5q0 61 -31 97t-82 36q-74 0 -132 -79t-58 -242z" />
<glyph unicode="&#x15f;" horiz-adv-x="718" d="M-116 -408.5q-6 14.5 7 33.5q17 26 30 32t50 3q27 -2 54 2t52.5 14t41.5 31t16 49q0 51 -55 64q-34 7 -41 22.5t8 44.5l21 39q17 31 11.5 48t-36.5 32q-47 23 -84 64q-14 15 -11.5 35t19.5 30l4 2q26 17 43 16.5t43 -20.5q48 -29 99 -29q66 0 96.5 52.5t30.5 189.5 q0 35 -5 168.5t-4 220.5q0 22 -9 24t-19 -18q-12 -22 -142 -254q-15 -26 -42 -22.5t-39 27t2 53.5q136 232 276 522q17 36 40 43.5t58 -10.5q37 -20 48 -44t4 -65q-19 -92 -26 -203.5t-4.5 -187t8 -166t5.5 -110.5q0 -75 -12 -127q-4 -25 7.5 -31.5t31.5 8.5q125 99 282 371 q15 26 42.5 22.5t39.5 -27t-2 -53.5q-30 -53 -49 -84.5t-50 -80.5t-54 -79t-57 -70t-64 -65t-69.5 -52.5t-79.5 -43t-88 -26.5t-99 -13q-28 -1 -42.5 -10t-25.5 -29q-12 -23 -7 -34.5t30 -20.5q70 -25 70 -117q0 -76 -52 -125.5t-125.5 -63.5t-148.5 1q-22 3 -28 17.5z" />
<glyph unicode="&#x160;" horiz-adv-x="1304" d="M-86 -424q-13 208 127 418q20 29 20.5 50t-18.5 52q-84 139 -84 310q0 84 21 160.5t58.5 136.5t88 109t110.5 80.5t125 48t133 14.5t132 -23t39 -86q-17 -38 -38 -49t-59 -2q-93 20 -177.5 -2.5t-144 -76.5t-95 -135.5t-35.5 -174.5q0 -95 35 -179q11 -28 30 -32t41 18 q60 61 161.5 160.5t258 251t242.5 235.5q25 23 33.5 47t3.5 58q-25 186 -25 297q0 225 91 350t249 125q124 0 195 -73t71 -189q0 -48 -12 -94.5t-40.5 -95t-54 -85.5t-76 -91t-81 -84.5t-92.5 -90.5q-46 -43 -35 -105q41 -281 41 -380q0 -280 -163.5 -456.5t-424.5 -176.5 q-193 0 -352 102q-26 17 -44.5 12.5t-35.5 -30.5q-98 -159 -90 -324q1 -34 -12 -47.5t-47 -13.5h-4q-63 0 -66 61zM307 113q-44 -44 8 -76q108 -64 232 -64q194 0 317 125.5t123 343.5q0 77 -22 242q-5 28 -20 33t-34 -15zM1065 1272q0 -61 10 -156q2 -28 16.5 -33t34.5 15 q127 122 184.5 202.5t57.5 159.5q0 61 -31 97t-82 36q-74 0 -132 -79t-58 -242zM1229 2107q-19 43 26 43h5q26 0 42 -9t29 -32l58 -98q29 -54 79 -16l156 112q57 43 133 43h4q28 0 33 -13t-18 -32l-314 -245q-29 -23 -63 -23h-4q-38 0 -54 33z" />
</font>
</defs>
</svg>
